# 
# Wavefront OBJ file
# Converted by the DEEP Exploration Deep Exploration 5 5.0.3.1555 Release
# Right Hemisphere, LTD
# http://www.righthemisphere.com/
# 
mtllib cherry_LOD2.mtl
# object Model__blend_root
g Model__blend_root
v 5.90296 0.00000 11.80296
v -5.90296 0.00000 -0.00296
v 5.90296 0.00000 -0.00296
v -5.90296 0.00000 11.80296
v 0.00000 5.90296 11.80296
v 0.00000 -5.90296 -0.00296
v 0.00000 5.90296 -0.00296
v 0.00000 -5.90296 11.80296
# 8 verticies
vt 0.50000 1.00000
vt 0.00000 0.00000
vt 0.50000 0.00000
vt 0.00000 1.00000
vt 1.00000 1.00000
vt 1.00000 0.00000
# 6 texture verticies
vn 0.00000 -1.00000 0.00000
vn 1.00000 0.00000 0.00000
# 2 normals
usemtl cherry_lod2_surface
f  1/1/1 2/2/1 3/3/1
f  1/1/1 4/4/1 2/2/1
f  5/5/2 6/3/2 7/6/2
f  5/5/2 8/1/2 6/3/2
