# Wavefront OBJ file
# Creator: Ultimate Unwrap3D Pro v3.27
# Website: http://www.unwrap3d.com
# Time: Thu Apr 11 09:29:47 2013
# num_vertices: 40
# num_vertex_normals: 40
# num_uvs: 228
# num_faces: 76
# num_groups: 1

mtllib Crate_LOD01.mtl

v 0.659938 0.659764 -0.659590
v 0.659894 -0.659764 -0.489938
v 0.659938 -0.659764 -0.659590
v 0.659894 0.659764 -0.489938
v 0.622236 0.622062 -0.659600
v 0.622236 -0.622062 -0.659600
v -0.621888 -0.622062 -0.659928
v -0.659634 -0.659764 -0.490286
v 0.641030 -0.640906 -0.471084
v 0.659634 -0.659764 0.490286
v 0.659590 -0.659764 0.659938
v 0.621888 -0.622062 0.659928
v -0.659938 -0.659764 0.659590
v 0.621888 0.622062 0.659928
v 0.659590 0.659764 0.659938
v 0.640782 -0.640906 0.471424
v 0.640782 0.640906 0.471424
v -0.640782 0.640906 -0.471424
v 0.641030 0.640906 -0.471084
v -0.659634 0.659764 -0.490286
v -0.640782 -0.640906 -0.471424
v -0.659590 -0.659764 -0.659938
v -0.659590 0.659764 -0.659938
v -0.621888 0.622062 -0.659928
v -0.621898 0.622062 -0.622226
v -0.621898 -0.622062 -0.622226
v 0.622226 0.622062 -0.621898
v 0.622226 -0.622062 -0.621898
v -0.641030 -0.640906 0.471084
v -0.659894 -0.659764 0.489938
v -0.641030 0.640906 0.471084
v -0.659938 0.659764 0.659590
v 0.659634 0.659764 0.490286
v -0.659894 0.659764 0.489938
v -0.622236 0.622062 0.659600
v -0.622236 -0.622062 0.659600
v 0.621898 -0.622062 0.622226
v 0.621898 0.622062 0.622226
v -0.622226 0.622062 0.621898
v -0.622226 -0.622062 0.621898
# num_vertices: 40

vn 0.485263 0.485071 -0.727479
vn 0.704404 -0.558612 0.437913
vn 0.301750 -0.301511 -0.904454
vn 0.468955 0.663420 0.583057
vn -0.534310 -0.267261 -0.801925
vn -0.267049 0.534522 -0.801855
vn 0.534734 0.267261 -0.801642
vn -0.469262 -0.663419 0.582811
vn 0.468954 -0.663419 0.583058
vn 0.469262 -0.663419 -0.582811
vn 0.484880 -0.485072 0.727734
vn -0.534734 0.267261 0.801642
vn -0.301750 -0.301511 0.904454
vn -0.267473 -0.534523 0.801713
vn 0.301273 0.301512 0.904613
vn 0.704635 -0.558605 -0.437550
vn 0.610266 0.610125 -0.505296
vn -0.644375 0.574538 0.504665
vn 0.704403 0.558612 0.437914
vn -0.704635 0.558604 0.437551
vn -0.574672 -0.644237 0.504688
vn -0.484880 -0.485072 -0.727734
vn -0.301273 0.301512 -0.904613
vn 0.267473 -0.534523 -0.801713
vn 0.816605 -0.408249 -0.408032
vn 0.333509 0.666667 -0.666578
vn -0.333157 -0.666666 -0.666755
vn -0.816388 0.408248 -0.408465
vn -0.644108 -0.574538 -0.505005
vn -0.704404 -0.558612 -0.437913
vn -0.478075 0.676310 -0.560400
vn -0.485263 0.485071 0.727479
vn 0.610265 0.610131 -0.505290
vn -0.609998 0.610138 -0.505603
vn 0.534310 -0.267261 0.801925
vn 0.267049 0.534522 0.801855
vn -0.333509 0.666667 0.666578
vn -0.816605 -0.408249 0.408032
vn 0.333157 -0.666666 0.666755
vn 0.816388 0.408248 0.408465
# num_vertex_normals: 40

vt 0.649900 0.020460
vt 0.649900 0.060710
vt 0.336910 0.060710
vt 0.336910 0.020460
vt 0.649900 0.020460
vt 0.336910 0.060710
vt 0.352610 0.660720
vt 0.665610 0.660720
vt 0.665610 0.700970
vt 0.352610 0.700970
vt 0.352610 0.660720
vt 0.665610 0.700970
vt 0.979360 0.346150
vt 0.970500 0.355010
vt 0.979360 0.656460
vt 0.979360 0.346150
vt 0.677920 0.355010
vt 0.970500 0.355010
vt 0.677920 0.355010
vt 0.979360 0.346150
vt 0.669050 0.346150
vt 0.669050 0.346150
vt 0.677920 0.647590
vt 0.677920 0.355010
vt 0.669050 0.346150
vt 0.669050 0.656460
vt 0.677920 0.647590
vt 0.336560 0.060640
vt 0.023570 0.060640
vt 0.023570 0.020400
vt 0.023570 0.020400
vt 0.336560 0.020400
vt 0.336560 0.060640
vt 0.332090 0.065110
vt 0.023570 0.060640
vt 0.336560 0.060640
vt 0.332090 0.065110
vt 0.028040 0.065110
vt 0.023570 0.060640
vt 0.332090 0.288680
vt 0.028040 0.288680
vt 0.028040 0.065110
vt 0.028040 0.065110
vt 0.332090 0.065110
vt 0.332090 0.288680
vt 0.336560 0.293150
vt 0.028040 0.288680
vt 0.332090 0.288680
vt 0.336560 0.293150
vt 0.023570 0.293150
vt 0.028040 0.288680
vt 0.336560 0.333390
vt 0.023570 0.333390
vt 0.023570 0.293150
vt 0.023570 0.293150
vt 0.336560 0.293150
vt 0.336560 0.333390
vt 0.335300 0.334980
vt 0.326430 0.343850
vt 0.024980 0.334980
vt 0.335300 0.334980
vt 0.335300 0.645290
vt 0.326430 0.636430
vt 0.326430 0.636430
vt 0.326430 0.343850
vt 0.335300 0.334980
vt 0.336910 0.333460
vt 0.336910 0.293220
vt 0.649900 0.293220
vt 0.649900 0.293220
vt 0.649900 0.333460
vt 0.336910 0.333460
vt 0.649900 0.293220
vt 0.336910 0.293220
vt 0.341380 0.288750
vt 0.649900 0.293220
vt 0.341380 0.288750
vt 0.645430 0.288750
vt 0.341380 0.288750
vt 0.341380 0.065180
vt 0.645430 0.065180
vt 0.645430 0.065180
vt 0.645430 0.288750
vt 0.341380 0.288750
vt 0.645430 0.065180
vt 0.341380 0.065180
vt 0.336910 0.060710
vt 0.649900 0.060710
vt 0.645430 0.065180
vt 0.336910 0.060710
vt 0.352610 0.700970
vt 0.665610 0.700970
vt 0.661140 0.705440
vt 0.661140 0.705440
vt 0.357090 0.705440
vt 0.352610 0.700970
vt 0.666740 0.700750
vt 0.979730 0.700750
vt 0.975260 0.705220
vt 0.975260 0.705220
vt 0.671210 0.705220
vt 0.666740 0.700750
vt 0.666740 0.700750
vt 0.666740 0.660510
vt 0.979730 0.660510
vt 0.979730 0.660510
vt 0.979730 0.700750
vt 0.666740 0.700750
vt 0.970500 0.647590
vt 0.669050 0.656460
vt 0.979360 0.656460
vt 0.677920 0.647590
vt 0.669050 0.656460
vt 0.970500 0.647590
vt 0.964870 0.641970
vt 0.677920 0.647590
vt 0.970500 0.647590
vt 0.964870 0.641970
vt 0.683540 0.641970
vt 0.677920 0.647590
vt 0.964870 0.360640
vt 0.683540 0.360640
vt 0.683540 0.641970
vt 0.683540 0.641970
vt 0.964870 0.641970
vt 0.964870 0.360640
vt 0.970500 0.355010
vt 0.683540 0.360640
vt 0.964870 0.360640
vt 0.970500 0.355010
vt 0.677920 0.355010
vt 0.683540 0.360640
vt 0.683540 0.360640
vt 0.677920 0.355010
vt 0.683540 0.641970
vt 0.683540 0.641970
vt 0.677920 0.355010
vt 0.677920 0.647590
vt 0.964870 0.360640
vt 0.970500 0.647590
vt 0.970500 0.355010
vt 0.964870 0.641970
vt 0.970500 0.647590
vt 0.964870 0.360640
vt 0.970500 0.355010
vt 0.970500 0.647590
vt 0.979360 0.656460
vt 0.975260 0.928790
vt 0.671210 0.928790
vt 0.671210 0.705220
vt 0.671210 0.705220
vt 0.975260 0.705220
vt 0.975260 0.928790
vt 0.975260 0.928790
vt 0.979730 0.933260
vt 0.671210 0.928790
vt 0.666740 0.933260
vt 0.671210 0.928790
vt 0.979730 0.933260
vt 0.352610 0.933480
vt 0.357090 0.929010
vt 0.661140 0.929010
vt 0.661140 0.929010
vt 0.665610 0.933480
vt 0.352610 0.933480
vt 0.357090 0.705440
vt 0.661140 0.705440
vt 0.661140 0.929010
vt 0.661140 0.929010
vt 0.357090 0.929010
vt 0.357090 0.705440
vt 0.665610 0.973720
vt 0.352610 0.973720
vt 0.352610 0.933480
vt 0.352610 0.933480
vt 0.665610 0.933480
vt 0.665610 0.973720
vt 0.024980 0.334980
vt 0.326430 0.343850
vt 0.033850 0.343850
vt 0.024980 0.645290
vt 0.024980 0.334980
vt 0.033850 0.343850
vt 0.024980 0.645290
vt 0.033850 0.343850
vt 0.033850 0.636430
vt 0.024980 0.645290
vt 0.033850 0.636430
vt 0.335300 0.645300
vt 0.326430 0.343850
vt 0.320800 0.349470
vt 0.033850 0.343850
vt 0.320800 0.630800
vt 0.320800 0.349470
vt 0.326430 0.343850
vt 0.039480 0.630800
vt 0.039480 0.349470
vt 0.320800 0.349470
vt 0.320800 0.349470
vt 0.320800 0.630800
vt 0.039480 0.630800
vt 0.033850 0.636430
vt 0.039480 0.349470
vt 0.039480 0.630800
vt 0.033850 0.636430
vt 0.033850 0.343850
vt 0.039480 0.349470
vt 0.033850 0.343850
vt 0.320800 0.349470
vt 0.039480 0.349470
vt 0.033850 0.636430
vt 0.039480 0.630800
vt 0.326430 0.636430
vt 0.326430 0.636430
vt 0.039480 0.630800
vt 0.320800 0.630800
vt 0.320800 0.630800
vt 0.326430 0.343850
vt 0.326430 0.636430
vt 0.335300 0.645290
vt 0.033850 0.636430
vt 0.326430 0.636430
vt 0.666740 0.973510
vt 0.666740 0.933260
vt 0.979730 0.933260
vt 0.979730 0.933260
vt 0.979730 0.973510
vt 0.666740 0.973510
# num_uvs: 228

g Default_Layer
s 1

usemtl crate_crate01_D_tga
f 1/1/1 4/2/4 2/3/2 
f 3/4/3 1/5/1 2/6/2 
f 1/7/1 23/8/23 20/9/20 
f 4/10/4 1/11/1 20/12/20 
f 1/13/1 5/14/5 23/15/23 
f 1/16/1 6/17/6 5/18/5 
f 6/19/6 1/20/1 3/21/3 
f 3/22/3 7/23/7 6/24/6 
f 3/25/3 22/26/22 7/27/7 
f 2/28/2 8/29/8 22/30/22 
f 22/31/22 3/32/3 2/33/2 
f 9/34/9 8/35/8 2/36/2 
f 9/37/9 21/38/21 8/39/8 
f 16/40/16 29/41/29 21/42/21 
f 21/43/21 9/44/9 16/45/16 
f 10/46/10 29/47/29 16/48/16 
f 10/49/10 30/50/30 29/51/29 
f 11/52/11 13/53/13 30/54/30 
f 30/55/30 10/56/10 11/57/11 
f 11/58/11 12/59/12 13/60/13 
f 11/61/11 15/62/15 14/63/14 
f 14/64/14 12/65/12 11/66/11 
f 11/67/11 10/68/10 33/69/33 
f 33/70/33 15/71/15 11/72/11 
f 33/73/33 10/74/10 16/75/16 
f 33/76/33 16/77/16 17/78/17 
f 16/79/16 9/80/9 19/81/19 
f 19/82/19 17/83/17 16/84/16 
f 19/85/19 9/86/9 2/87/2 
f 4/88/4 19/89/19 2/90/2 
f 4/91/4 20/92/20 18/93/18 
f 18/94/18 19/95/19 4/96/4 
f 20/97/20 8/98/8 21/99/21 
f 21/100/21 18/101/18 20/102/20 
f 20/103/20 23/104/23 22/105/22 
f 22/106/22 8/107/8 20/108/20 
f 24/109/24 22/110/22 23/111/23 
f 7/112/7 22/113/22 24/114/24 
f 25/115/25 7/116/7 24/117/24 
f 25/118/25 26/119/26 7/120/7 
f 27/121/27 28/122/28 26/123/26 
f 26/124/26 25/125/25 27/126/27 
f 5/127/5 28/128/28 27/129/27 
f 5/130/5 6/131/6 28/132/28 
f 28/133/28 6/134/6 26/135/26 
f 26/136/26 6/137/6 7/138/7 
f 27/139/27 24/140/24 5/141/5 
f 25/142/25 24/143/24 27/144/27 
f 5/145/5 24/146/24 23/147/23 
f 29/148/29 31/149/31 18/150/18 
f 18/151/18 21/152/21 29/153/29 
f 29/154/29 30/155/30 31/156/31 
f 34/157/34 31/158/31 30/159/30 
f 33/160/33 17/161/17 31/162/31 
f 31/163/31 34/164/34 33/165/33 
f 19/166/19 18/167/18 31/168/31 
f 31/169/31 17/170/17 19/171/19 
f 32/172/32 15/173/15 33/174/33 
f 33/175/33 34/176/34 32/177/32 
f 13/178/13 12/179/12 36/180/36 
f 32/181/32 13/182/13 36/183/36 
f 32/184/32 36/185/36 35/186/35 
f 32/187/32 35/188/35 15/189/15 
f 12/190/12 37/191/37 36/192/36 
f 38/193/38 37/194/37 12/195/12 
f 39/196/39 40/197/40 37/198/37 
f 37/199/37 38/200/38 39/201/39 
f 35/202/35 40/203/40 39/204/39 
f 35/205/35 36/206/36 40/207/40 
f 36/208/36 37/209/37 40/210/40 
f 35/211/35 39/212/39 14/213/14 
f 14/214/14 39/215/39 38/216/38 
f 38/217/38 12/218/12 14/219/14 
f 15/220/15 35/221/35 14/222/14 
f 32/223/32 34/224/34 30/225/30 
f 30/226/30 13/227/13 32/228/32 
# num_faces: 76

