# Blender 3.5.0
# www.blender.org
mtllib Crate_LOD01.mtl
o Crate_LOD01
v 0.659938 0.659764 -0.659590
v 0.659894 -0.659764 -0.489938
v 0.659938 -0.659764 -0.659590
v 0.659894 0.659764 -0.489938
v 0.622236 0.622062 -0.659600
v 0.622236 -0.622062 -0.659600
v -0.621888 -0.622062 -0.659928
v -0.659634 -0.659764 -0.490286
v 0.641030 -0.640906 -0.471084
v 0.659634 -0.659764 0.490286
v 0.659590 -0.659764 0.659938
v 0.621888 -0.622062 0.659928
v -0.659938 -0.659764 0.659590
v 0.621888 0.622062 0.659928
v 0.659590 0.659764 0.659938
v 0.640782 -0.640906 0.471424
v 0.640782 0.640906 0.471424
v -0.640782 0.640906 -0.471424
v 0.641030 0.640906 -0.471084
v -0.659634 0.659764 -0.490286
v -0.640782 -0.640906 -0.471424
v -0.659590 -0.659764 -0.659938
v -0.659590 0.659764 -0.659938
v -0.621888 0.622062 -0.659928
v -0.621898 0.622062 -0.622226
v -0.621898 -0.622062 -0.622226
v 0.622226 0.622062 -0.621898
v 0.622226 -0.622062 -0.621898
v -0.641030 -0.640906 0.471084
v -0.659894 -0.659764 0.489938
v -0.641030 0.640906 0.471084
v -0.659938 0.659764 0.659590
v 0.659634 0.659764 0.490286
v -0.659894 0.659764 0.489938
v -0.622236 0.622062 0.659600
v -0.622236 -0.622062 0.659600
v 0.621898 -0.622062 0.622226
v 0.621898 0.622062 0.622226
v -0.622226 0.622062 0.621898
v -0.622226 -0.622062 0.621898
vn 0.4852 0.4851 -0.7275
vn 0.4690 0.6634 0.5830
vn 0.7044 -0.5586 0.4379
vn 0.3018 -0.3015 -0.9044
vn -0.3013 0.3015 -0.9046
vn -0.7046 0.5586 0.4375
vn -0.5343 -0.2673 -0.8019
vn -0.2670 0.5345 -0.8018
vn 0.5348 0.2673 -0.8016
vn -0.4849 -0.4851 -0.7277
vn -0.4693 -0.6634 0.5828
vn 0.4690 -0.6634 0.5831
vn -0.5747 -0.6442 0.5047
vn 0.7046 -0.5586 -0.4376
vn -0.6441 -0.5745 -0.5050
vn 0.4693 -0.6634 -0.5828
vn -0.7044 -0.5586 -0.4379
vn 0.4849 -0.4851 0.7277
vn -0.3018 -0.3015 0.9044
vn -0.5348 0.2673 0.8016
vn 0.3013 0.3015 0.9046
vn -0.2675 -0.5345 0.8017
vn 0.6103 0.6101 -0.5053
vn 0.7044 0.5586 0.4379
vn -0.6444 0.5745 0.5047
vn 0.2675 -0.5345 -0.8017
vn 0.8166 -0.4083 -0.4080
vn 0.3335 0.6667 -0.6666
vn -0.3331 -0.6667 -0.6668
vn -0.8164 0.4083 -0.4085
vn -0.4781 0.6763 -0.5604
vn -0.6100 0.6101 -0.5056
vn -0.4853 0.4851 0.7275
vn 0.2670 0.5345 0.8019
vn 0.5343 -0.2672 0.8019
vn -0.3335 0.6667 0.6666
vn -0.8166 -0.4083 0.4080
vn 0.3331 -0.6667 0.6668
vn 0.8164 0.4083 0.4085
vt 0.649900 0.020460
vt 0.352610 0.660720
vt 0.979360 0.346150
vt 0.336560 0.060640
vt 0.336910 0.060710
vt 0.336910 0.020460
vt 0.669050 0.346150
vt 0.336560 0.020400
vt 0.649900 0.060710
vt 0.352610 0.700970
vt 0.970500 0.355010
vt 0.677920 0.355010
vt 0.677920 0.647590
vt 0.023570 0.060640
vt 0.979730 0.700750
vt 0.332090 0.065110
vt 0.341380 0.065180
vt 0.336560 0.293150
vt 0.336910 0.293220
vt 0.336560 0.333390
vt 0.335300 0.334980
vt 0.336910 0.333460
vt 0.326430 0.343850
vt 0.023570 0.333390
vt 0.024980 0.334980
vt 0.979730 0.973510
vt 0.326430 0.636430
vt 0.649900 0.333460
vt 0.352610 0.973720
vt 0.335300 0.645290
vt 0.332090 0.288680
vt 0.341380 0.288750
vt 0.645430 0.288750
vt 0.357090 0.929010
vt 0.671210 0.705220
vt 0.661140 0.705440
vt 0.645430 0.065180
vt 0.357090 0.705440
vt 0.665610 0.700970
vt 0.666740 0.700750
vt 0.028040 0.065110
vt 0.975260 0.705220
vt 0.023570 0.020400
vt 0.979730 0.660510
vt 0.669050 0.656460
vt 0.665610 0.660720
vt 0.666740 0.660510
vt 0.979360 0.656460
vt 0.970500 0.647590
vt 0.964870 0.641970
vt 0.683540 0.641970
vt 0.964870 0.360640
vt 0.683540 0.360640
vt 0.028040 0.288680
vt 0.975260 0.928790
vt 0.023570 0.293150
vt 0.979730 0.933260
vt 0.671210 0.928790
vt 0.661140 0.929010
vt 0.665610 0.973720
vt 0.024980 0.645290
vt 0.666740 0.973510
vt 0.649900 0.293220
vt 0.352610 0.933480
vt 0.665610 0.933480
vt 0.666740 0.933260
vt 0.033850 0.636430
vt 0.033850 0.343850
vt 0.320800 0.349470
vt 0.320800 0.630800
vt 0.039480 0.630800
vt 0.039480 0.349470
s 1
usemtl crate_crate01_D_tga
f 1/1/1 4/9/2 2/5/3
f 3/6/4 1/1/1 2/5/3
f 1/2/1 23/46/5 20/39/6
f 4/10/2 1/2/1 20/39/6
f 1/3/1 5/11/7 23/48/5
f 1/3/1 6/12/8 5/11/7
f 6/12/8 1/3/1 3/7/4
f 3/7/4 7/13/9 6/12/8
f 3/7/4 22/45/10 7/13/9
f 2/4/3 8/14/11 22/43/10
f 22/43/10 3/8/4 2/4/3
f 9/16/12 8/14/11 2/4/3
f 9/16/12 21/41/13 8/14/11
f 16/31/14 29/54/15 21/41/13
f 21/41/13 9/16/12 16/31/14
f 10/18/16 29/54/15 16/31/14
f 10/18/16 30/56/17 29/54/15
f 11/20/18 13/24/19 30/56/17
f 30/56/17 10/18/16 11/20/18
f 11/21/18 12/23/20 13/25/19
f 11/21/18 15/30/21 14/27/22
f 14/27/22 12/23/20 11/21/18
f 11/22/18 10/19/16 33/63/23
f 33/63/23 15/28/21 11/22/18
f 33/63/23 10/19/16 16/32/14
f 33/63/23 16/32/14 17/33/23
f 16/32/14 9/17/12 19/37/24
f 19/37/24 17/33/23 16/32/14
f 19/37/24 9/17/12 2/5/3
f 4/9/2 19/37/24 2/5/3
f 4/10/2 20/39/6 18/36/25
f 18/36/25 19/38/24 4/10/2
f 20/40/6 8/15/11 21/42/13
f 21/42/13 18/35/25 20/40/6
f 20/40/6 23/47/5 22/44/10
f 22/44/10 8/15/11 20/40/6
f 24/49/26 22/45/10 23/48/5
f 7/13/9 22/45/10 24/49/26
f 25/50/27 7/13/9 24/49/26
f 25/50/27 26/51/28 7/13/9
f 27/52/29 28/53/30 26/51/28
f 26/51/28 25/50/27 27/52/29
f 5/11/7 28/53/30 27/52/29
f 5/11/7 6/12/8 28/53/30
f 28/53/30 6/12/8 26/51/28
f 26/51/28 6/12/8 7/13/9
f 27/52/29 24/49/26 5/11/7
f 25/50/27 24/49/26 27/52/29
f 5/11/7 24/49/26 23/48/5
f 29/55/15 31/58/31 18/35/25
f 18/35/25 21/42/13 29/55/15
f 29/55/15 30/57/17 31/58/31
f 34/66/32 31/58/31 30/57/17
f 33/64/23 17/34/23 31/59/31
f 31/59/31 34/65/32 33/64/23
f 19/38/24 18/36/25 31/59/31
f 31/59/31 17/34/23 19/38/24
f 32/60/33 15/29/21 33/64/23
f 33/64/23 34/65/32 32/60/33
f 13/25/19 12/23/20 36/68/34
f 32/61/33 13/25/19 36/68/34
f 32/61/33 36/68/34 35/67/35
f 32/61/33 35/67/35 15/30/21
f 12/23/20 37/69/36 36/68/34
f 38/70/37 37/69/36 12/23/20
f 39/71/38 40/72/39 37/69/36
f 37/69/36 38/70/37 39/71/38
f 35/67/35 40/72/39 39/71/38
f 35/67/35 36/68/34 40/72/39
f 36/68/34 37/69/36 40/72/39
f 35/67/35 39/71/38 14/27/22
f 14/27/22 39/71/38 38/70/37
f 38/70/37 12/23/20 14/27/22
f 15/30/21 35/67/35 14/27/22
f 32/62/33 34/66/32 30/57/17
f 30/57/17 13/26/19 32/62/33
