####
#
#	OBJ File Generated by LightWave3D
#	LightWave3D OBJ Export v2.3
#
####
o tree_02_a_lod2.obj
mtllib tree_02_a_lod2.mtl
g default
v -145 0 -0.961052
v -145 355 -0.961052
v 0.961052 0 166
v 0.961052 0 -139
v 0.961052 355 166
v 0.961052 355 -139
v 160 0 -0.961052
v 160 355 -0.961052
vt 0.127686 -0.00558334
vt 0.127686 0.992934
vt 0.870885 -0.00558334
vt 0.870885 0.992934
vn 0 0 -1
vn 1 0 -0
usemtl Material::lod_tree_02_a_LOD2
s off
f 4/1/2 6/2/2 3/3/2
f 6/2/2 5/4/2 3/3/2
f 1/1/1 2/2/1 7/3/1
f 2/2/1 8/4/1 7/3/1
