# Blender 3.5.0
# www.blender.org
mtllib tree_02_a_lod2.mtl
o tree_02_a_lod2.obj
v -145.000000 -0.000000 -0.961052
v -145.000000 355.000000 -0.961079
v 0.961052 0.000013 166.000000
v 0.961052 -0.000010 -139.000000
v 0.961052 355.000000 165.999969
v 0.961052 355.000000 -139.000031
v 160.000000 -0.000000 -0.961052
v 160.000000 355.000000 -0.961079
vn 1.0000 -0.0000 -0.0000
vn -0.0000 -0.0000 -1.0000
vt 0.127686 -0.005583
vt 0.127686 0.992934
vt 0.870885 -0.005583
vt 0.127686 -0.005583
vt 0.870885 0.992934
vt 0.127686 0.992934
vt 0.870885 -0.005583
vt 0.870885 0.992934
s 0
usemtl Material::lod_tree_02_a_LOD2
f 4/4/1 6/6/1 3/3/1
f 6/6/1 5/5/1 3/3/1
f 1/1/2 2/2/2 7/7/2
f 2/2/2 8/8/2 7/7/2
