# OBJ written from E:\3d\3D-Objekte\todo\rocks\meshes\rock13.obj
o Mesh
v -0.630844 -2.16886 0.771471
v -1.23523 -2.26652 0.949211
v -1.74054 -2.1367 1.0119
v -2.29476 -1.95657 0.805597
v -0.528815 -2.01518 1.46528
v -1.1304 -2.19356 1.55796
v -1.70333 -2.2539 1.77041
v -2.24417 -2.06405 1.60781
v -0.455067 -1.94831 2.11385
v -1.00764 -2.25721 2.20872
v -1.5831 -2.15849 2.20568
v -2.17536 -1.93254 1.9762
v -0.462068 -1.78275 2.71127
v -0.876975 -2.23678 2.7557
v -1.47126 -2.11844 2.70174
v -2.15436 -1.86483 2.45187
v 2.82039 -0.0201817 -1.33969
v 0.758582 -0.216688 -2.62023
v -1.30468 -0.382156 -3.63261
v -2.79602 -0.505381 -3.29075
v 3.19786 1.28756 0.604996
v 0.989478 0.91611 -1.10626
v -1.92063 0.331123 -2.36066
v -3.6251 -0.118508 -2.33687
v 1.46661 1.94182 2.33467
v -0.307304 1.61962 1.43441
v -2.63095 1.12231 0.280331
v -4.04553 0.286011 -0.310111
v 0.283699 1.98734 3.24803
v -1.18231 1.6515 2.69152
v -2.93 1.22797 2.22409
v -3.83425 0.485298 1.31227
v -0.0627573 -1.98756 -0.455419
v -0.795499 -1.97474 -0.662268
v -1.69914 -1.9936 -0.919886
v -2.30482 -1.78416 -0.853482
v 1.14986 -1.98403 -1.55299
v 0.000892222 -2.09855 -2.59975
v -1.42018 -1.83176 -2.7945
v -2.46298 -1.5845 -2.14731
v 2.92587 -2.02109 -2.78683
v 1.42858 -2.2084 -4.85465
v -1.0947 -1.6529 -4.67545
v -2.51219 -1.37826 -3.50158
v 3.48544 -1.568 -3.0471
v 1.44751 -1.46234 -4.3982
v -0.856538 -1.2523 -4.96461
v -2.45395 -1.13196 -4.444
v -3.0828 -1.66173 -0.208224
v -3.57061 -1.78819 0.764657
v -3.61399 -1.74714 1.57077
v -3.54715 -1.66015 2.33504
v -3.64498 -1.45469 -1.30425
v -4.25688 -1.47546 -0.425653
v -4.62311 -1.42906 0.81604
v -4.40006 -1.2358 1.99456
v -4.02292 -1.20297 -2.56397
v -4.49029 -1.0956 -1.42143
v -5.04991 -0.951186 0.0348881
v -4.6664 -0.72402 1.5114
v -4.11561 -0.93738 -3.50949
v -5.0598 -0.783401 -2.55424
v -5.23367 -0.557058 -0.656161
v -4.61018 -0.313446 1.05126
v -2.71356 -1.59682 3.38777
v -1.63412 -1.80609 3.77879
v -0.959134 -1.34515 3.81755
v -0.443186 -0.926719 3.50482
v -3.64266 -0.922763 3.69635
v -2.43236 -0.667437 4.17536
v -1.2068 -0.222417 4.19806
v -0.2769 0.0611622 4.11594
v -4.17303 -0.192662 3.60402
v -2.93077 0.359186 4.37739
v -1.40216 1.11929 4.96461
v -0.0981551 1.33883 4.77974
v -4.18765 0.40524 3.23545
v -2.7569 0.874902 3.66617
v -1.39085 1.42418 4.10777
v -0.0371578 1.99707 4.61404
v 0.39946 -0.955691 2.921
v 0.615929 -1.34723 2.24736
v 0.764714 -1.7229 1.3043
v 0.912923 -1.96299 0.234115
v 1.00069 0.00490046 3.472
v 1.75368 -0.372333 2.68447
v 2.34222 -0.953043 1.49569
v 3.16359 -1.66091 -0.0428595
v 2.06614 1.65616 4.55321
v 2.73864 0.846727 3.1571
v 3.6517 0.0292518 1.75361
v 4.41319 -0.969605 0.0595758
v 1.76947 1.98842 4.02197
v 2.85073 1.53831 3.04424
v 4.91955 0.795679 1.74392
v 5.16349 -0.383885 -0.0365927
v -0.336936 1.88796 3.87152
v -1.4783 1.49863 3.44853
v -2.69431 1.09443 3.00913
v -3.83545 0.635942 2.47736
v -0.0380037 -1.5208 2.62396
v -0.502648 -1.60752 3.19085
v -0.133564 -1.26548 3.06091
v -0.892008 -1.9528 3.22718
v -1.36597 -2.15433 3.16914
v 0.0781051 -0.671557 3.32361
v 3.9682 1.21179 1.48842
v 2.30601 1.66563 2.54285
v 1.35663 1.89921 3.33829
v 0.355489 0.143147 3.84323
v 0.871747 1.47142 4.75185
v 1.10695 2.26652 4.82829
v 0.729795 2.12689 4.08244
v -0.566775 -2.04268 0.254323
v -0.0491065 -2.05401 0.189579
v -0.101642 -2.07514 0.72226
v -0.0305533 -2.02573 1.38025
v 0.0238176 -1.74537 2.05576
v -2.77411 -1.93653 1.38037
v -2.73275 -1.83637 1.76537
v -2.77427 -1.76301 2.22327
v -2.12248 -1.82368 2.94326
v -2.72261 -1.71732 2.6949
v -3.59236 -1.5059 2.96003
v -4.20988 -1.02781 2.80793
v -4.45949 -0.567034 2.5075
v -4.42729 -0.192362 2.16111
v 5.23367 0.150831 -0.213825
v -4.27712 0.145562 1.8009
v 4.43961 -0.770321 -1.61756
v 2.50368 -0.787808 -2.44777
v 2.41719 -1.93533 -1.0741
v 3.89904 -1.69538 -1.4113
v 4.44326 -1.24663 -1.53998
v 0.794043 -1.95276 -0.366922
v -1.10208 -2.06645 0.180418
v -1.6649 -2.05344 0.164686
v -2.1808 -1.91933 0.12456
v -2.77317 -1.86464 0.654731
v -2.567 -1.80296 -0.0198163
v -4.73522 -0.1915 -0.732932
v -2.7944 -1.65802 -0.89309
v -4.3813 0.012398 0.813133
v 0.879975 -0.835551 -3.54193
v -0.800319 -0.810619 -4.29022
v -2.1555 -0.80793 -3.98749
v -3.03704 -0.851945 -3.61019
v -3.39535 -1.09442 -3.97534
v -3.68175 -0.662252 -3.0282
v -4.59508 -0.445163 -2.5245
v -3.10201 -1.48185 -1.80792
v -3.30968 -1.28981 -2.87082
vn 0.16673 -0.985612 0.0277552
vn 0.179613 -0.971515 0.154586
vn 0.147195 -0.98747 -0.0568967
vn 0.081787 -0.993552 -0.078525
vn -0.156684 -0.987487 -0.0178653
vn -0.128913 -0.984106 -0.122134
vn -0.216875 -0.968698 -0.120788
vn -0.296744 -0.950825 0.088743
vn 0.383414 -0.919123 0.0905888
vn 0.228111 -0.969935 -0.084804
vn -0.250666 -0.961704 0.110868
vn -0.328363 -0.919417 0.216447
vn 0.305653 -0.927282 0.216158
vn 0.660439 -0.715966 0.226304
vn -0.313919 -0.925305 0.212758
vn -0.306749 -0.944099 0.120757
vn 0.187036 0.91536 -0.356558
vn 0.236609 0.806274 -0.54216
vn 0.196791 0.826255 -0.527803
vn 0.0799907 0.909336 -0.408301
vn -0.126186 0.897422 -0.422742
vn -0.0473654 0.845384 -0.532054
vn -0.22689 0.803375 -0.550554
vn -0.231674 0.880321 -0.413959
vn -0.0819046 0.979156 -0.185862
vn 0.0571265 0.992203 -0.110767
vn -0.241032 0.947023 -0.212254
vn -0.390537 0.901759 -0.185235
vn -0.20321 0.979135 -0.000706841
vn -0.110233 0.989772 -0.090551
vn -0.307543 0.949793 -0.0575333
vn -0.488718 0.867324 -0.0943626
vn -0.0863922 -0.996211 0.00998305
vn 0.0459036 -0.995368 0.0844735
vn 0.0288579 -0.999518 -0.0114201
vn -0.026176 -0.999363 -0.0242553
vn -0.197101 -0.978553 -0.0598801
vn -0.252141 -0.963168 -0.093442
vn -0.273938 -0.956687 -0.0985281
vn -0.260332 -0.956373 -0.132584
vn -0.0958606 -0.99532 -0.0122059
vn 0.240433 -0.97053 0.0162376
vn -0.226476 -0.959957 -0.1649
vn -0.199243 -0.963923 -0.176509
vn 0.435685 0.461676 -0.77268
vn 0.364634 0.674568 -0.641872
vn 0.714616 0.399862 -0.573963
vn 0.826471 -0.297386 -0.478024
vn 0.0539736 0.520124 -0.852383
vn 0.0480951 0.759932 -0.648221
vn -0.138569 -0.967483 -0.2116
vn -0.156151 -0.953233 -0.258774
vn -0.312377 -0.941721 -0.124832
vn -0.171022 -0.975879 -0.135689
vn -0.169015 -0.976239 -0.135617
vn -0.157097 -0.984538 -0.0774903
vn -0.59738 -0.797443 0.0849812
vn -0.241231 -0.966392 0.0888532
vn -0.320566 -0.919081 0.22919
vn -0.745889 -0.601793 0.285473
vn -0.365809 -0.922797 -0.120951
vn -0.232687 -0.962754 -0.137702
vn -0.822612 -0.55667 0.115878
vn -0.96634 -0.0509723 0.252168
vn -0.334487 -0.938057 -0.090368
vn -0.288869 -0.948085 -0.133003
vn -0.846832 -0.504097 0.169592
vn -0.948723 0.305665 0.0805821
vn -0.878915 0.446505 0.167755
vn -0.156739 -0.407019 0.899871
vn -0.491621 -0.568891 0.659296
vn -0.316886 -0.81776 0.48047
vn -0.0208819 -0.616309 0.787228
vn 0.354173 -0.432563 0.829126
vn 0.0941912 -0.38613 0.917623
vn 0.448112 -0.432001 0.782669
vn 0.219871 -0.473605 0.852851
vn -0.468765 0.254096 0.845987
vn -0.802924 0.0012055 0.59608
vn 0.0778715 -0.261946 0.961936
vn 0.0611004 -0.23126 0.970971
vn -0.425878 0.858733 0.284965
vn -0.708046 0.685426 0.169887
vn -0.246381 0.622166 0.743105
vn -0.360215 0.821395 0.442217
vn -0.237658 0.713788 0.658806
vn -0.098399 0.0263747 0.994797
vn 0.36728 -0.704236 0.607583
vn 0.323229 -0.651756 0.686103
vn 0.32541 -0.673269 0.663941
vn 0.338753 -0.773134 0.5362
vn 0.321261 -0.757409 0.568439
vn 0.270829 -0.866229 0.41988
vn 0.24569 -0.878881 0.408906
vn 0.162994 -0.962726 0.215853
vn 0.561354 -0.499835 0.65958
vn 0.537887 -0.514608 0.667725
vn 0.382716 -0.646614 0.659863
vn 0.43208 -0.788482 0.437724
vn 0.752284 0.161706 0.638687
vn 0.553656 0.504938 0.662195
vn 0.527936 -0.187514 0.828325
vn 0.372014 -0.606511 0.702673
vn 0.653638 -0.316614 0.687395
vn 0.749164 -0.642148 0.162481
vn -0.337817 0.933981 0.116441
vn -0.256 0.963167 -0.0823039
vn -0.341714 0.935754 0.0871613
vn -0.524268 0.848647 -0.0702924
vn 0.170152 -0.980961 0.0936115
vn 0.0794792 -0.991544 -0.102587
vn 0.10367 -0.99402 -0.0343064
vn 0.0289093 -0.991797 -0.124514
vn -0.147169 -0.985883 -0.0798484
vn -0.246707 -0.963975 -0.0994385
vn -0.168291 -0.976551 -0.134261
vn -0.222633 -0.967446 -0.120344
vn 0.20586 -0.930186 0.303935
vn -0.156931 -0.987567 0.00918286
vn 0.290975 -0.868852 0.400536
vn -0.178043 -0.973418 0.144079
vn 0.4524 -0.730436 0.511661
vn -0.174325 -0.973962 0.144944
vn 0.506359 -0.541579 0.671039
vn 0.660085 -0.524157 0.538096
vn 0.440268 -0.703175 0.55831
vn -0.150995 -0.880499 0.449356
vn -0.284932 -0.93795 0.197648
vn -0.188348 -0.965674 0.178883
vn 0.52719 0.650425 -0.546826
vn 0.631273 0.543882 -0.552889
vn 0.308543 0.801804 -0.511772
vn 0.247949 0.82767 -0.503471
vn 0.0225235 0.847113 -0.530935
vn -0.204475 0.816562 -0.539829
vn -0.209155 0.838709 -0.502814
vn -0.203271 0.857964 -0.471782
vn 0.31645 0.917061 -0.242607
vn -0.32117 0.892137 -0.317712
vn 0.223675 0.972917 -0.0583293
vn -0.510366 0.855987 -0.0825411
vn 0.063322 0.97634 -0.206764
vn -0.664981 0.746735 0.013665
vn 0.079325 -0.996542 0.0247369
vn -0.223065 -0.968062 -0.114448
vn 0.126732 -0.975577 0.179413
vn -0.191813 -0.973068 -0.127853
vn 0.396378 -0.909057 0.128455
vn -0.204378 -0.967755 -0.147239
vn 0.754228 -0.644207 -0.127036
vn 0.497776 -0.847987 -0.182036
vn -0.210519 -0.965314 -0.154436
vn 0.811916 0.366062 -0.454743
vn -0.157663 0.847177 -0.507379
vn -0.156706 0.880878 -0.446652
vn -0.34244 -0.892755 0.292786
vn -0.703239 -0.620878 0.346362
vn -0.963953 -0.111428 0.241616
vn -0.924771 0.376223 0.057045
vn -0.155052 0.911387 -0.381225
vn -0.410654 0.875791 -0.25368
vn -0.771007 0.629133 0.0986884
vn -0.761085 0.645638 -0.0624649
vn 0.37432 -0.545551 0.749839
vn 0.254632 -0.593149 0.763765
vn 0.0532253 -0.445718 0.89359
vn -0.122616 0.457449 0.880742
vn 0.036017 -0.136673 0.989961
vn 0.384813 0.905207 0.180332
vn -0.105272 0.906074 0.409815
vn -0.0513879 0.994581 0.0903716
vn 0.0938514 0.995254 0.0257123
vn -0.0790869 0.969657 -0.231324
vn 0.287736 0.954448 -0.0789772
vn 0.435926 0.879537 -0.190743
vn 0.619744 0.773569 0.132321
vn 0.827757 0.326705 -0.456161
vn 0.935544 -0.353114 -0.00826772
vn 0.893865 -0.351509 -0.278292
vt 0.468553 0.458667
vt 0.458957 0.459496
vt 0.458757 0.451917
vt 0.467106 0.451441
vt 0.456803 0.444383
vt 0.466687 0.444243
vt 0.469123 0.436881
vt 0.458289 0.436987
vt 0.449736 0.459893
vt 0.449499 0.452127
vt 0.449975 0.445084
vt 0.45161 0.437177
vt 0.441981 0.452824
vt 0.441334 0.460587
vt 0.442684 0.446235
vt 0.444488 0.437855
vt 0.371076 0.303023
vt 0.390354 0.271283
vt 0.421203 0.266319
vt 0.40616 0.288447
vt 0.443662 0.281668
vt 0.447842 0.263587
vt 0.456593 0.273727
vt 0.459914 0.286444
vt 0.40354 0.325918
vt 0.381326 0.329036
vt 0.434483 0.319895
vt 0.455196 0.314846
vt 0.404521 0.343195
vt 0.385496 0.342035
vt 0.426237 0.34672
vt 0.446781 0.338153
vt 0.509475 0.297474
vt 0.52822 0.309539
vt 0.519393 0.32598
vt 0.507513 0.324274
vt 0.494202 0.319062
vt 0.493158 0.292707
vt 0.485103 0.317424
vt 0.481641 0.298246
vt 0.512333 0.268064
vt 0.537493 0.288518
vt 0.493271 0.267463
vt 0.479759 0.277803
vt 0.517399 0.264107
vt 0.541795 0.280295
vt 0.495322 0.264445
vt 0.484074 0.263919
vt 0.399705 0.463191
vt 0.410975 0.462622
vt 0.404917 0.477852
vt 0.390963 0.479098
vt 0.384261 0.463037
vt 0.378722 0.478051
vt 0.366939 0.47506
vt 0.368406 0.461722
vt 0.407483 0.452059
vt 0.419838 0.448003
vt 0.390614 0.451328
vt 0.370955 0.449096
vt 0.41888 0.440497
vt 0.428737 0.439283
vt 0.397106 0.443183
vt 0.374227 0.439559
vt 0.507202 0.395461
vt 0.522527 0.392236
vt 0.521439 0.406479
vt 0.508383 0.413363
vt 0.49751 0.411804
vt 0.492885 0.395931
vt 0.487556 0.411494
vt 0.48259 0.395642
vt 0.503898 0.379971
vt 0.522877 0.379057
vt 0.484319 0.376821
vt 0.4739 0.376623
vt 0.50552 0.36647
vt 0.522412 0.367837
vt 0.488237 0.365469
vt 0.470568 0.367857
vt 0.418342 0.403497
vt 0.430937 0.405324
vt 0.422961 0.421646
vt 0.410565 0.423186
vt 0.400068 0.401396
vt 0.393769 0.421189
vt 0.376548 0.39294
vt 0.376687 0.416082
vt 0.448807 0.378618
vt 0.429481 0.38308
vt 0.408762 0.382705
vt 0.382609 0.377345
vt 0.432361 0.373349
vt 0.447208 0.372569
vt 0.412455 0.366849
vt 0.386103 0.365716
vt 0.401101 0.353431
vt 0.385402 0.351323
vt 0.418815 0.35679
vt 0.437987 0.354309
vt 0.509053 0.35679
vt 0.525842 0.356926
vt 0.493446 0.357164
vt 0.478849 0.359265
vt 0.468351 0.46368
vt 0.475008 0.458807
vt 0.474956 0.463647
vt 0.476224 0.451666
vt 0.476566 0.443884
vt 0.477182 0.436971
vt 0.471108 0.432141
vt 0.479 0.432701
vt 0.459155 0.463978
vt 0.460832 0.431528
vt 0.449235 0.46493
vt 0.453599 0.431547
vt 0.441129 0.465682
vt 0.446495 0.431741
vt 0.435174 0.466672
vt 0.435149 0.461074
vt 0.435841 0.454122
vt 0.437066 0.448052
vt 0.438497 0.439318
vt 0.440663 0.433319
vt 0.356948 0.281416
vt 0.377164 0.258323
vt 0.404706 0.25402
vt 0.43035 0.253213
vt 0.450254 0.252985
vt 0.455978 0.26269
vt 0.461539 0.268851
vt 0.464478 0.277523
vt 0.357754 0.313134
vt 0.47136 0.283144
vt 0.372674 0.327863
vt 0.466241 0.30827
vt 0.375255 0.337665
vt 0.458635 0.331588
vt 0.529977 0.32531
vt 0.524053 0.334676
vt 0.517348 0.336684
vt 0.506264 0.33638
vt 0.494082 0.335175
vt 0.484035 0.332355
vt 0.479007 0.328124
vt 0.479391 0.314597
vt 0.544707 0.311954
vt 0.474947 0.300878
vt 0.559643 0.298517
vt 0.47136 0.283169
vt 0.566892 0.286891
vt 0.47541 0.264322
vt 0.548345 0.265448
vt 0.569317 0.279397
vt 0.523963 0.252985
vt 0.499785 0.254449
vt 0.486209 0.254317
vt 0.47684 0.254948
vt 0.413097 0.473874
vt 0.406112 0.484313
vt 0.397213 0.48799
vt 0.384974 0.489535
vt 0.375583 0.486607
vt 0.367281 0.482683
vt 0.358048 0.473762
vt 0.360332 0.482083
vt 0.418142 0.462113
vt 0.356948 0.462423
vt 0.42547 0.450474
vt 0.357347 0.450162
vt 0.435149 0.438931
vt 0.359337 0.440076
vt 0.423319 0.431539
vt 0.43148 0.431528
vt 0.416716 0.434667
vt 0.395353 0.435677
vt 0.375704 0.433155
vt 0.362688 0.432999
vt 0.532775 0.401512
vt 0.530761 0.411053
vt 0.522899 0.414959
vt 0.511332 0.422035
vt 0.500921 0.42311
vt 0.491561 0.421608
vt 0.484531 0.419264
vt 0.480532 0.410434
vt 0.537373 0.389789
vt 0.476061 0.397405
vt 0.539876 0.376913
vt 0.464937 0.376899
vt 0.540143 0.365539
vt 0.458083 0.368016
vt 0.430539 0.420032
vt 0.425611 0.429001
vt 0.417595 0.431497
vt 0.405697 0.431528
vt 0.391515 0.430278
vt 0.380059 0.427266
vt 0.372015 0.424676
vt 0.366881 0.415264
vt 0.438171 0.407921
vt 0.358347 0.398259
vt 0.452959 0.387293
vt 0.356948 0.379978
vt 0.458083 0.377262
vt 0.358391 0.368401
vt 0.441067 0.362432
vt 0.4517 0.365307
vt 0.431982 0.362759
vt 0.415804 0.35679
vt 0.387672 0.357524
vt 0.359977 0.360001
vt 0.372769 0.348106
vt 0.451498 0.346155
vt 0.539972 0.356869
vt 0.466971 0.359506
mtllib rock.mtl
usemtl rock
f 1/1/1 5/2/2 6/3/3
f 1/1/1 6/3/3 2/4/4
f 7/5/5 3/6/6 2/4/4
f 7/5/5 2/4/4 6/3/3
f 4/7/7 3/6/6 7/5/5
f 4/7/7 7/5/5 8/8/8
f 6/3/3 5/2/2 9/9/9
f 6/3/3 9/9/9 10/10/10
f 6/3/3 10/10/10 11/11/11
f 6/3/3 11/11/11 7/5/5
f 11/11/11 12/12/12 8/8/8
f 11/11/11 8/8/8 7/5/5
f 14/13/13 10/10/10 9/9/9
f 14/13/13 9/9/9 13/14/14
f 14/13/13 15/15/15 11/11/11
f 14/13/13 11/11/11 10/10/10
f 16/16/16 12/12/12 11/11/11
f 16/16/16 11/11/11 15/15/15
f 21/17/17 17/18/18 18/19/19
f 21/17/17 18/19/19 22/20/20
f 23/21/21 22/20/20 18/19/19
f 23/21/21 18/19/19 19/22/22
f 23/21/21 19/22/22 20/23/23
f 23/21/21 20/23/23 24/24/24
f 22/20/20 26/25/25 25/26/26
f 22/20/20 25/26/26 21/17/17
f 22/20/20 23/21/21 27/27/27
f 22/20/20 27/27/27 26/25/25
f 23/21/21 24/24/24 28/28/28
f 23/21/21 28/28/28 27/27/27
f 26/25/25 30/29/29 29/30/30
f 26/25/25 29/30/30 25/26/26
f 27/27/27 31/31/31 30/29/29
f 27/27/27 30/29/29 26/25/25
f 27/27/27 28/28/28 32/32/32
f 27/27/27 32/32/32 31/31/31
f 38/33/33 37/34/34 33/35/35
f 38/33/33 33/35/35 34/36/36
f 38/33/33 34/36/36 35/37/37
f 38/33/33 35/37/37 39/38/38
f 39/38/38 35/37/37 36/39/39
f 39/38/38 36/39/39 40/40/40
f 42/41/41 41/42/42 37/34/34
f 42/41/41 37/34/34 38/33/33
f 42/41/41 38/33/33 39/38/38
f 42/41/41 39/38/38 43/43/43
f 43/43/43 39/38/38 40/40/40
f 43/43/43 40/40/40 44/44/44
f 42/41/45 46/45/46 45/46/47
f 42/41/45 45/46/47 41/42/48
f 42/41/45 43/43/49 47/47/50
f 42/41/45 47/47/50 46/45/46
f 48/48/51 47/47/52 43/43/43
f 48/48/51 43/43/43 44/44/44
f 54/49/53 53/50/54 49/51/55
f 54/49/53 49/51/55 50/52/56
f 55/53/57 54/49/53 50/52/56
f 55/53/57 50/52/56 51/54/58
f 55/53/57 51/54/58 52/55/59
f 55/53/57 52/55/59 56/56/60
f 53/50/54 54/49/53 58/57/61
f 53/50/54 58/57/61 57/58/62
f 59/59/63 58/57/61 54/49/53
f 59/59/63 54/49/53 55/53/57
f 59/59/63 55/53/57 56/56/60
f 59/59/63 56/56/60 60/60/64
f 62/61/65 61/62/66 57/58/62
f 62/61/65 57/58/62 58/57/61
f 58/57/61 59/59/63 63/63/67
f 58/57/61 63/63/67 62/61/65
f 63/63/68 59/59/63 60/60/64
f 63/63/68 60/60/64 64/64/69
f 70/65/70 69/66/71 65/67/72
f 70/65/70 65/67/72 66/68/73
f 70/65/70 66/68/73 67/69/74
f 70/65/70 67/69/74 71/70/75
f 71/70/75 67/69/74 68/71/76
f 71/70/75 68/71/76 72/72/77
f 74/73/78 73/74/79 69/66/71
f 74/73/78 69/66/71 70/65/70
f 75/75/80 74/73/78 70/65/70
f 75/75/80 70/65/70 71/70/75
f 75/75/80 71/70/75 72/72/77
f 75/75/80 72/72/77 76/76/81
f 78/77/82 77/78/83 73/74/79
f 78/77/82 73/74/79 74/73/78
f 75/75/84 79/79/85 78/77/82
f 75/75/84 78/77/82 74/73/78
f 76/76/81 80/80/86 79/79/85
f 76/76/81 79/79/85 75/75/87
f 86/81/88 85/82/89 81/83/90
f 86/81/88 81/83/90 82/84/91
f 87/85/92 86/81/88 82/84/91
f 87/85/92 82/84/91 83/86/93
f 88/87/94 87/85/92 83/86/93
f 88/87/94 83/86/93 84/88/95
f 89/89/96 85/82/89 86/81/88
f 89/89/96 86/81/88 90/90/97
f 91/91/98 90/90/97 86/81/88
f 91/91/98 86/81/88 87/85/92
f 91/91/98 87/85/92 88/87/94
f 91/91/98 88/87/94 92/92/99
f 90/90/97 94/93/100 93/94/101
f 90/90/97 93/94/101 89/89/102
f 95/95/103 94/93/104 90/90/97
f 95/95/103 90/90/97 91/91/98
f 91/91/98 92/92/99 96/96/105
f 91/91/98 96/96/105 95/95/103
f 30/29/29 98/97/106 97/98/107
f 30/29/29 97/98/107 29/30/30
f 30/29/29 31/31/31 99/99/108
f 30/29/29 99/99/108 98/97/106
f 100/100/109 99/99/108 31/31/31
f 100/100/109 31/31/31 32/32/32
f 77/78/83 78/77/82 99/101/108
f 77/78/83 99/101/108 100/102/109
f 78/77/82 79/79/85 98/103/106
f 78/77/82 98/103/106 99/101/108
f 80/80/86 97/104/107 98/103/106
f 80/80/86 98/103/106 79/79/85
f 116/105/110 1/1/1 114/106/111
f 116/105/110 114/106/111 115/107/112
f 2/4/4 136/108/113 114/106/111
f 2/4/4 114/106/111 1/1/1
f 137/109/114 136/108/113 2/4/4
f 137/109/114 2/4/4 3/6/6
f 3/6/6 4/7/7 138/110/115
f 3/6/6 138/110/115 137/109/114
f 139/111/116 140/112/117 138/110/115
f 139/111/116 138/110/115 4/7/7
f 1/1/1 116/105/110 117/113/118
f 1/1/1 117/113/118 5/2/2
f 8/8/8 119/114/119 139/111/116
f 8/8/8 139/111/116 4/7/7
f 117/113/118 118/115/120 9/9/9
f 117/113/118 9/9/9 5/2/2
f 120/116/121 119/114/119 8/8/8
f 120/116/121 8/8/8 12/12/12
f 9/9/9 118/115/120 101/117/122
f 9/9/9 101/117/122 13/14/14
f 121/118/123 120/116/121 12/12/12
f 121/118/123 12/12/12 16/16/16
f 103/119/124 102/120/125 13/14/14
f 103/119/124 13/14/14 101/117/122
f 13/14/14 102/120/125 104/121/126
f 13/14/14 104/121/126 14/13/13
f 14/13/13 104/121/126 105/122/127
f 14/13/13 105/122/127 15/15/15
f 122/123/128 16/16/16 15/15/15
f 122/123/128 15/15/15 105/122/127
f 16/16/16 122/123/128 123/124/129
f 16/16/16 123/124/129 121/118/123
f 128/125/130 130/126/131 131/127/132
f 128/125/130 131/127/132 17/18/18
f 18/19/19 17/18/18 131/127/132
f 18/19/19 131/127/132 144/128/133
f 18/19/19 144/128/133 145/129/134
f 18/19/19 145/129/134 19/22/22
f 20/23/23 19/22/22 145/129/134
f 20/23/23 145/129/134 146/130/135
f 20/23/23 146/130/135 147/131/136
f 20/23/23 147/131/136 149/132/137
f 128/125/130 17/18/18 21/17/17
f 128/125/130 21/17/17 107/133/138
f 24/24/24 20/23/23 149/132/137
f 24/24/24 149/132/137 150/134/139
f 21/17/17 25/26/26 108/135/140
f 21/17/17 108/135/140 107/133/138
f 24/24/24 150/134/139 141/136/141
f 24/24/24 141/136/141 28/28/28
f 29/30/30 109/137/142 108/135/140
f 29/30/30 108/135/140 25/26/26
f 28/28/28 141/136/141 143/138/143
f 28/28/28 143/138/143 32/32/32
f 33/35/35 135/139/144 115/140/112
f 33/35/35 115/140/112 114/141/111
f 34/36/36 33/35/35 114/141/111
f 34/36/36 114/141/111 136/142/113
f 35/37/37 34/36/36 136/142/113
f 35/37/37 136/142/113 137/143/114
f 35/37/37 137/143/114 138/144/115
f 35/37/37 138/144/115 36/39/39
f 36/39/39 138/144/115 140/145/117
f 36/39/39 140/145/117 142/146/145
f 37/34/34 132/147/146 135/139/144
f 37/34/34 135/139/144 33/35/35
f 40/40/40 36/39/39 142/146/145
f 40/40/40 142/146/145 151/148/147
f 41/42/42 133/149/148 132/147/146
f 41/42/42 132/147/146 37/34/34
f 44/44/44 40/40/40 151/148/147
f 44/44/44 151/148/147 152/150/149
f 45/46/47 134/151/150 133/149/148
f 45/46/47 133/149/148 41/42/151
f 148/152/152 48/48/51 44/44/44
f 148/152/152 44/44/44 152/150/149
f 45/46/47 131/153/132 130/154/131
f 45/46/47 130/154/131 134/151/153
f 45/46/47 46/45/46 144/155/133
f 45/46/47 144/155/133 131/153/132
f 46/45/46 47/47/50 145/156/134
f 46/45/46 145/156/134 144/155/133
f 47/47/50 48/48/154 146/157/135
f 47/47/50 146/157/135 145/156/134
f 48/48/154 148/152/155 147/158/136
f 48/48/154 147/158/136 146/157/135
f 49/51/55 142/159/145 140/160/117
f 49/51/55 140/160/117 139/161/116
f 50/52/56 49/51/55 139/161/116
f 50/52/56 139/161/116 119/162/119
f 51/54/58 50/52/56 119/162/119
f 51/54/58 119/162/119 120/163/121
f 51/54/58 120/163/121 121/164/123
f 51/54/58 121/164/123 52/55/59
f 124/165/156 52/55/59 121/164/123
f 124/165/156 121/164/123 123/166/129
f 53/50/54 151/167/147 142/159/145
f 53/50/54 142/159/145 49/51/55
f 56/56/60 52/55/59 124/165/156
f 56/56/60 124/165/156 125/168/157
f 57/58/62 152/169/149 151/167/147
f 57/58/62 151/167/147 53/50/54
f 60/60/64 56/56/60 125/168/157
f 60/60/64 125/168/157 126/170/158
f 148/171/152 152/169/149 57/58/62
f 148/171/152 57/58/62 61/62/66
f 64/64/69 60/60/64 126/170/158
f 64/64/69 126/170/158 127/172/159
f 149/173/137 147/174/136 148/171/155
f 149/173/137 148/171/155 61/62/160
f 61/62/160 62/61/161 150/175/139
f 61/62/160 150/175/139 149/173/137
f 63/63/162 141/176/141 150/175/139
f 63/63/162 150/175/139 62/61/161
f 63/63/162 64/64/69 143/177/143
f 63/63/162 143/177/143 141/176/141
f 127/172/159 129/178/163 143/177/143
f 127/172/159 143/177/143 64/64/69
f 65/67/72 124/179/156 123/180/129
f 65/67/72 123/180/129 122/181/128
f 66/68/73 65/67/72 122/181/128
f 66/68/73 122/181/128 105/182/127
f 67/69/74 66/68/73 105/182/127
f 67/69/74 105/182/127 104/183/126
f 67/69/74 104/183/126 102/184/125
f 67/69/74 102/184/125 68/71/76
f 68/71/76 102/184/125 103/185/124
f 68/71/76 103/185/124 106/186/164
f 69/66/71 125/187/157 124/179/156
f 69/66/71 124/179/156 65/67/72
f 72/72/77 68/71/76 106/186/164
f 72/72/77 106/186/164 110/188/165
f 73/74/79 126/189/158 125/187/157
f 73/74/79 125/187/157 69/66/71
f 111/190/166 76/76/81 72/72/77
f 111/190/166 72/72/77 110/188/165
f 77/78/83 127/191/159 126/189/158
f 77/78/83 126/189/158 73/74/79
f 112/192/167 80/80/86 76/76/81
f 112/192/167 76/76/81 111/190/168
f 81/83/90 106/193/164 103/194/124
f 81/83/90 103/194/124 101/195/122
f 82/84/91 81/83/90 101/195/122
f 82/84/91 101/195/122 118/196/120
f 83/86/93 82/84/91 118/196/120
f 83/86/93 118/196/120 117/197/118
f 84/88/95 83/86/93 117/197/118
f 84/88/95 117/197/118 116/198/110
f 84/88/95 116/198/110 115/199/112
f 84/88/95 115/199/112 135/200/144
f 85/82/89 110/201/165 106/193/164
f 85/82/89 106/193/164 81/83/90
f 88/87/94 84/88/95 135/200/144
f 88/87/94 135/200/144 132/202/146
f 89/89/96 111/203/166 110/201/165
f 89/89/96 110/201/165 85/82/89
f 133/204/148 92/92/99 88/87/94
f 133/204/148 88/87/94 132/202/146
f 89/89/101 93/94/169 112/205/170
f 89/89/101 112/205/170 111/203/167
f 96/96/105 92/92/99 133/204/148
f 96/96/105 133/204/148 134/206/150
f 112/205/171 93/94/172 109/207/142
f 112/205/171 109/207/142 113/208/173
f 93/94/172 94/93/174 108/209/140
f 93/94/172 108/209/140 109/207/142
f 95/95/175 107/210/138 108/209/140
f 95/95/175 108/209/140 94/93/176
f 95/95/175 96/96/177 128/211/130
f 95/95/175 128/211/130 107/210/138
f 96/96/178 134/206/179 130/212/131
f 96/96/178 130/212/131 128/211/130
f 113/213/173 109/137/142 29/30/30
f 113/213/173 29/30/30 97/98/107
f 32/32/32 143/138/143 129/214/163
f 32/32/32 129/214/163 100/100/109
f 77/78/83 100/102/109 129/215/163
f 77/78/83 129/215/163 127/191/159
f 80/80/86 112/192/171 113/216/173
f 80/80/86 113/216/173 97/104/107
