# OBJ written from E:\3d\3D-Objekte\todo\rocks\meshes\rock7.obj
o Mesh
v 1.25025 -0.813822 0.290815
v 0.955312 -0.848299 -0.21764
v 0.643584 -0.836775 -0.762001
v 0.308271 -0.78513 -1.19825
v 0.749951 -0.895536 0.593472
v 0.460341 -0.973225 0.078649
v 0.0861757 -0.993782 -0.542827
v -0.234582 -0.848153 -1.02811
v 0.197106 -0.900932 0.926355
v -0.162376 -0.947173 0.408453
v -0.513686 -0.93491 -0.18267
v -0.760052 -0.832262 -0.697798
v -0.325644 -0.827039 1.11902
v -0.689183 -0.889249 0.686813
v -1.00619 -0.9093 0.147141
v -1.20501 -0.78302 -0.368531
v 1.32096 0.783145 0.310799
v 1.14476 0.861238 -0.257724
v 0.781712 0.849654 -0.811904
v 0.378079 0.741255 -1.20258
v 0.883156 0.837169 0.714042
v 0.675031 0.980151 0.135393
v 0.268649 0.913544 -0.496066
v -0.103899 0.81455 -0.978341
v 0.302825 0.826975 1.04929
v 0.00358081 0.993782 0.510632
v -0.375635 0.962014 -0.145936
v -0.675393 0.839689 -0.682851
v -0.268467 0.743201 1.2058
v -0.589095 0.817275 0.749013
v -0.916369 0.789832 0.170612
v -1.12478 0.730734 -0.347023
v 1.71264 -0.475753 -0.00607634
v 1.56499 -0.515406 -0.506563
v 1.24391 -0.501914 -1.06277
v 0.862647 -0.495715 -1.52731
v 1.82759 -0.180443 -0.0287538
v 1.8256 -0.193158 -0.664965
v 1.40467 -0.196101 -1.271
v 0.901302 -0.182457 -1.66945
v 1.94308 0.151825 -0.00564146
v 1.87379 0.195423 -0.646767
v 1.55567 0.192811 -1.33129
v 1.02035 0.160798 -1.75679
v 1.88752 0.469976 0.0454097
v 1.69176 0.510985 -0.516532
v 1.38473 0.530632 -1.10189
v 0.949325 0.458685 -1.51441
v 0.0515697 -0.472345 -1.69989
v -0.499726 -0.517891 -1.56687
v -1.10089 -0.569353 -1.33059
v -1.50581 -0.500359 -0.894189
v 0.0322521 -0.168999 -1.828
v -0.534784 -0.206468 -1.63975
v -1.18872 -0.239329 -1.40158
v -1.69785 -0.207977 -0.977092
v 0.0843742 0.148433 -1.79737
v -0.522073 0.160074 -1.66523
v -1.09773 0.133761 -1.29138
v -1.5166 0.134443 -0.879893
v 0.0831373 0.455769 -1.70939
v -0.476568 0.48269 -1.52389
v -0.998532 0.45184 -1.19776
v -1.45674 0.436613 -0.840306
v -1.77295 -0.560263 -0.0580468
v -1.62962 -0.608667 0.522092
v -1.25848 -0.590403 1.08342
v -0.827271 -0.545625 1.51762
v -1.94308 -0.245783 -0.0731168
v -1.83071 -0.259912 0.59792
v -1.43148 -0.27759 1.25791
v -0.883903 -0.231931 1.60827
v -1.86278 0.100302 -0.0919805
v -1.77761 0.141662 0.53029
v -1.41017 0.130839 1.19618
v -0.902543 0.117226 1.66204
v -1.64534 0.389933 -0.0870357
v -1.50097 0.43398 0.467466
v -1.21076 0.464295 1.04953
v -0.76497 0.406562 1.43237
v 0.0182264 -0.511065 1.67071
v 0.565165 -0.550614 1.43971
v 1.15749 -0.574038 1.16492
v 1.4674 -0.459782 0.757174
v -0.0292389 -0.201262 1.90174
v 0.642429 -0.246649 1.77171
v 1.27248 -0.237209 1.39654
v 1.73479 -0.182003 0.9491
v 0.0200984 0.139307 1.86214
v 0.660632 0.139299 1.75844
v 1.31102 0.152895 1.40655
v 1.62689 0.1598 0.855462
v 0.100711 0.424518 1.65862
v 0.6322 0.442763 1.45174
v 1.22574 0.458336 1.20101
v 1.62359 0.453848 0.779532
v -0.393767 -0.651614 1.47596
v -0.437027 -0.451121 1.66146
v -0.47918 -0.191369 1.80011
v -0.728171 -0.743696 1.25129
v -1.0647 -0.796434 0.862737
v -1.36984 -0.809939 0.402674
v -1.50213 -0.734625 -0.0856261
v -1.49004 -0.621493 -0.444903
v -1.76504 -0.476809 -0.518488
v -1.89199 -0.213472 -0.552097
v -0.339402 0.539012 1.48533
v -0.436355 0.0942378 1.8065
v -0.355815 0.326216 1.6156
v -0.641816 0.609105 1.2261
v -0.97076 0.666714 0.876099
v -1.20493 0.61851 0.376277
v -1.35219 0.593431 -0.0765224
v -1.43314 0.522126 -0.429201
v -1.81858 0.076779 -0.532664
v -1.55289 0.322129 -0.461198
v 0.447119 -0.755951 1.22338
v 0.00132918 -0.727904 1.42811
v -0.902714 -0.719584 -1.04486
v -1.24652 -0.682078 -0.72677
v 0.563421 0.680209 1.30814
v 0.0800321 0.627755 1.45331
v -0.778316 0.646244 -0.966296
v -1.19732 0.614393 -0.709507
v 1.28722 -0.669877 0.65234
v 0.912054 -0.748406 0.948461
v 0.0224197 -0.684526 -1.49248
v -0.457414 -0.724825 -1.31299
v 1.40869 0.656705 0.680953
v 1.04191 0.667786 1.0354
v 0.0881107 0.664705 -1.52239
v -0.368675 0.702009 -1.31159
v 1.51834 -0.595321 0.362199
v 1.63211 -0.385283 0.392725
v 1.84733 -0.146211 0.452499
v 1.4453 -0.677935 -0.00771093
v 1.28221 -0.711408 -0.44426
v 0.998479 -0.679987 -0.879913
v 0.73436 -0.678509 -1.30117
v 0.413106 -0.61198 -1.55831
v 0.476733 -0.413817 -1.75721
v 0.488371 -0.145732 -1.79804
v 1.6665 0.595408 0.402272
v 1.84168 0.132474 0.449636
v 1.84729 0.391166 0.44933
v 1.57639 0.642655 0.0280204
v 1.44423 0.716814 -0.46302
v 1.16062 0.726143 -0.937584
v 0.811914 0.665684 -1.30577
v 0.481851 0.587783 -1.55094
v 0.558781 0.126315 -1.90174
v 0.553185 0.390184 -1.73737
vn 0.171966 -0.970162 0.170919
vn 0.101509 -0.994692 0.0168451
vn 0.252011 -0.963542 -0.0898726
vn 0.311756 -0.947406 0.0723181
vn 0.0357308 -0.988152 -0.14926
vn 0.201779 -0.953487 -0.223936
vn -0.0616864 -0.959508 -0.274846
vn 0.107072 -0.933695 -0.341687
vn -0.0379405 -0.996744 0.0711543
vn 0.0335274 -0.977348 0.208964
vn -0.110899 -0.992362 -0.0540358
vn -0.191094 -0.964297 -0.183341
vn -0.0641633 -0.962095 0.265061
vn -0.108389 -0.985057 0.133842
vn -0.184121 -0.982777 -0.0157737
vn -0.270034 -0.948868 -0.163495
vn 0.146135 0.988824 0.0295143
vn 0.263895 0.931468 0.250453
vn 0.356531 0.927708 0.110654
vn 0.282943 0.957024 -0.0636319
vn 0.109296 0.967986 -0.225957
vn 0.0156056 0.987742 -0.155312
vn 0.0420727 0.955062 -0.293405
vn -0.0326471 0.9692 -0.244101
vn -0.0618115 0.985004 0.161081
vn 0.0508854 0.934495 0.35232
vn -0.155304 0.986726 -0.0474578
vn -0.209514 0.96125 -0.179169
vn -0.240651 0.942542 0.231735
vn -0.138458 0.911274 0.387826
vn -0.340985 0.937333 0.0716681
vn -0.404573 0.912465 -0.0610663
vn 0.844869 -0.478789 -0.238658
vn 0.931741 -0.361363 0.0357196
vn 0.735627 -0.666585 0.120488
vn 0.605358 -0.771196 -0.196973
vn 0.512712 -0.731187 -0.44999
vn 0.668178 -0.46707 -0.579123
vn 0.470288 -0.377501 -0.797698
vn 0.397281 -0.657055 -0.640661
vn 0.963766 0.0769087 -0.255423
vn 0.999478 -0.0323002 -0.000585233
vn 0.77469 0.152784 -0.613606
vn 0.45159 0.180921 -0.87369
vn 0.724395 0.656603 -0.210057
vn 0.81509 0.575537 0.06622
vn 0.522867 0.732734 -0.435559
vn 0.299836 0.722075 -0.623463
vn -0.349849 -0.0606331 -0.934842
vn -0.199845 -0.146738 -0.968778
vn -0.115898 -0.551099 -0.826352
vn -0.210015 -0.597219 -0.774095
vn -0.545864 0.030928 -0.837303
vn -0.391341 -0.671748 -0.628973
vn -0.564615 -0.704996 -0.429174
vn -0.732361 -0.0078356 -0.680872
vn -0.37131 0.289671 -0.882167
vn -0.203794 0.191269 -0.960148
vn -0.548184 0.377638 -0.746247
vn -0.619178 0.508679 -0.598218
vn -0.31185 0.627984 -0.713012
vn -0.132887 0.535655 -0.833915
vn -0.455194 0.656376 -0.601639
vn -0.555798 0.742001 -0.374863
vn -0.919347 -0.204273 0.336264
vn -0.985897 -0.165834 0.0224762
vn -0.712015 -0.701817 -0.0221029
vn -0.683312 -0.684737 0.253416
vn -0.582593 -0.643464 0.496527
vn -0.767275 -0.149849 0.623565
vn -0.352084 -0.608195 0.711432
vn -0.518326 -0.166985 0.838722
vn -0.859161 0.41468 0.299807
vn -0.900752 0.434308 0.00483264
vn -0.717485 0.377375 0.585495
vn -0.49107 0.336364 0.80356
vn -0.61589 0.766829 0.180703
vn -0.656266 0.751345 -0.0692518
vn -0.524127 0.732374 0.434648
vn -0.397631 0.648317 0.649288
vn 0.314979 -0.379692 0.86984
vn 0.0113761 -0.328978 0.944269
vn 0.0191537 -0.721404 0.69225
vn 0.223976 -0.754227 0.617233
vn 0.559046 -0.410331 0.720484
vn 0.410372 -0.798175 0.441034
vn 0.82477 -0.363683 0.433
vn 0.622062 -0.727347 0.289836
vn 0.313399 0.340169 0.886604
vn 0.00430327 0.393451 0.919335
vn 0.57934 0.263949 0.771165
vn 0.817291 0.249119 0.519591
vn 0.258278 0.650687 0.714072
vn 0.0075511 0.653569 0.756829
vn 0.435218 0.669452 0.602012
vn 0.674971 0.580844 0.45501
vn 0.605567 -0.736003 0.302635
vn 0.513174 -0.820554 0.251681
vn 0.478969 -0.8765 0.0483367
vn 0.395266 -0.903372 -0.166386
vn 0.317828 -0.9127 -0.256833
vn 0.214497 -0.892772 -0.396168
vn 0.0108706 -0.846169 -0.532804
vn 0.0961454 -0.812542 -0.574919
vn 0.297316 -0.908307 0.294247
vn -0.0870153 -0.90936 -0.406809
vn 0.14366 -0.889086 0.434612
vn -0.226846 -0.936012 -0.269114
vn 0.00193552 -0.863412 0.504496
vn -0.358447 -0.907169 -0.220364
vn -0.0685077 -0.832827 0.549277
vn -0.147756 -0.895187 0.420486
vn -0.288991 -0.910049 0.297146
vn -0.401907 -0.90827 0.116261
vn -0.428807 -0.897437 -0.103594
vn -0.406757 -0.888605 -0.211967
vn 0.455787 0.87204 0.178335
vn 0.420891 0.906309 0.0381382
vn 0.440135 0.858206 0.264129
vn 0.427754 0.893237 -0.138398
vn 0.305177 0.895174 -0.324855
vn 0.183671 0.875185 -0.447567
vn 0.121057 0.812072 -0.570863
vn -0.0122185 0.850763 -0.525408
vn 0.329951 0.833907 0.442415
vn -0.150589 0.89382 -0.422386
vn 0.187178 0.79553 0.576277
vn -0.282381 0.902777 -0.324429
vn -0.0252092 0.791246 0.610978
vn -0.447801 0.880992 -0.152733
vn -0.302159 0.710067 0.636007
vn -0.319621 0.799773 0.508139
vn -0.347996 0.890846 0.292048
vn -0.445664 0.886976 0.12107
vn -0.49607 0.866729 -0.0519169
vn -0.533673 0.840909 -0.0898071
vn 0.751309 -0.592849 0.289938
vn 0.127955 -0.605406 -0.785564
vn 0.945434 -0.284752 0.158341
vn 0.113057 -0.270272 -0.956123
vn 0.969348 0.074362 0.234169
vn 0.0240355 0.196388 -0.980232
vn 0.796918 0.51498 0.31578
vn 0.0654124 0.608634 -0.79075
vn -0.631943 -0.731368 -0.256416
vn -0.935976 -0.0937393 -0.339356
vn -0.792422 0.538936 -0.285684
vn -0.640639 0.748142 -0.172815
vn -0.12634 -0.633606 0.76327
vn -0.235857 -0.247081 0.939852
vn -0.239287 0.333957 0.911709
vn -0.269618 0.615608 0.740495
vt 0.241711 0.723032
vt 0.241899 0.707934
vt 0.257592 0.707846
vt 0.256852 0.722826
vt 0.241386 0.690321
vt 0.257812 0.691561
vt 0.241144 0.674632
vt 0.255963 0.677234
vt 0.22418 0.707579
vt 0.225518 0.72353
vt 0.223999 0.690201
vt 0.225092 0.674883
vt 0.211053 0.72192
vt 0.208994 0.707294
vt 0.209316 0.691413
vt 0.210653 0.676164
vt 0.245793 0.527751
vt 0.243373 0.511348
vt 0.258465 0.514406
vt 0.261479 0.529819
vt 0.260763 0.546653
vt 0.245458 0.546553
vt 0.257975 0.561699
vt 0.243558 0.562504
vt 0.227398 0.528057
vt 0.226287 0.511168
vt 0.227095 0.546393
vt 0.226935 0.562455
vt 0.209805 0.529351
vt 0.210958 0.514475
vt 0.209436 0.54671
vt 0.211634 0.561374
vt 0.307318 0.610752
vt 0.291419 0.611029
vt 0.29222 0.596308
vt 0.305706 0.594006
vt 0.322538 0.593743
vt 0.32556 0.609287
vt 0.341771 0.608758
vt 0.338111 0.593622
vt 0.307368 0.62873
vt 0.291354 0.627644
vt 0.325472 0.627582
vt 0.341847 0.625631
vt 0.307372 0.644584
vt 0.292323 0.643107
vt 0.324253 0.644628
vt 0.339702 0.641186
vt 0.324561 0.693429
vt 0.322005 0.678591
vt 0.337209 0.678048
vt 0.339746 0.692443
vt 0.326892 0.710581
vt 0.342215 0.708455
vt 0.341015 0.723648
vt 0.326548 0.726964
vt 0.307185 0.694552
vt 0.306529 0.678793
vt 0.309137 0.711826
vt 0.309542 0.727006
vt 0.291519 0.696582
vt 0.291669 0.681485
vt 0.293581 0.712144
vt 0.295246 0.726722
vt 0.309543 0.545428
vt 0.309257 0.562166
vt 0.293639 0.559374
vt 0.292468 0.544096
vt 0.293587 0.527066
vt 0.309283 0.526682
vt 0.296102 0.511616
vt 0.311518 0.510699
vt 0.328146 0.547299
vt 0.32613 0.562903
vt 0.328173 0.528518
vt 0.328369 0.511486
vt 0.343467 0.546382
vt 0.341199 0.561254
vt 0.34494 0.52957
vt 0.343712 0.51409
vt 0.225572 0.610151
vt 0.208686 0.611315
vt 0.212658 0.595654
vt 0.228051 0.593783
vt 0.24347 0.610887
vt 0.244859 0.59398
vt 0.25894 0.613726
vt 0.258638 0.598002
vt 0.225118 0.62801
vt 0.20909 0.62772
vt 0.243119 0.629076
vt 0.258822 0.6304
vt 0.226613 0.644183
vt 0.211834 0.642342
vt 0.243421 0.64427
vt 0.258334 0.64479
vt 0.265704 0.73128
vt 0.255434 0.734222
vt 0.267722 0.720417
vt 0.269739 0.707394
vt 0.269894 0.692861
vt 0.268307 0.679317
vt 0.254115 0.665643
vt 0.26494 0.668271
vt 0.241676 0.735339
vt 0.240248 0.663737
vt 0.226797 0.73562
vt 0.226134 0.663845
vt 0.21344 0.734305
vt 0.213573 0.666017
vt 0.202613 0.731278
vt 0.199444 0.72021
vt 0.197504 0.706553
vt 0.197088 0.691921
vt 0.199929 0.678356
vt 0.20346 0.66802
vt 0.267419 0.505209
vt 0.270453 0.51539
vt 0.257013 0.502861
vt 0.273032 0.529746
vt 0.27249 0.544953
vt 0.270002 0.558644
vt 0.266901 0.569778
vt 0.256205 0.573467
vt 0.243433 0.49907
vt 0.242333 0.574641
vt 0.228088 0.499539
vt 0.227023 0.574318
vt 0.21416 0.502317
vt 0.213014 0.572513
vt 0.202482 0.505762
vt 0.199518 0.516869
vt 0.19725 0.53072
vt 0.197088 0.546675
vt 0.200295 0.559815
vt 0.202201 0.570138
vt 0.281151 0.599024
vt 0.283392 0.588123
vt 0.293708 0.584297
vt 0.306803 0.581937
vt 0.321674 0.58205
vt 0.335619 0.582745
vt 0.347154 0.584718
vt 0.350329 0.595695
vt 0.278968 0.612795
vt 0.353115 0.609095
vt 0.279386 0.627617
vt 0.353947 0.623856
vt 0.281478 0.641361
vt 0.351747 0.638417
vt 0.295275 0.654302
vt 0.28488 0.652512
vt 0.309523 0.656379
vt 0.3248 0.656332
vt 0.338844 0.653242
vt 0.350112 0.649781
vt 0.334146 0.666979
vt 0.345341 0.669138
vt 0.348913 0.679658
vt 0.351793 0.693307
vt 0.353216 0.707703
vt 0.352693 0.721017
vt 0.351178 0.731363
vt 0.341528 0.735476
vt 0.320475 0.667042
vt 0.327895 0.738529
vt 0.30643 0.666237
vt 0.313032 0.738672
vt 0.29279 0.668965
vt 0.298882 0.737194
vt 0.280626 0.683825
vt 0.282353 0.672938
vt 0.279279 0.697285
vt 0.281023 0.711937
vt 0.284207 0.725243
vt 0.288501 0.735216
vt 0.29575 0.571852
vt 0.28547 0.568786
vt 0.282643 0.557859
vt 0.280329 0.543537
vt 0.281062 0.528214
vt 0.284149 0.514085
vt 0.287964 0.502833
vt 0.299297 0.500413
vt 0.309895 0.574565
vt 0.313576 0.499136
vt 0.32541 0.574315
vt 0.328893 0.49907
vt 0.339967 0.571701
vt 0.342234 0.5017
vt 0.353665 0.559442
vt 0.350282 0.569296
vt 0.355483 0.546007
vt 0.357298 0.530144
vt 0.355303 0.516402
vt 0.352973 0.50534
vt 0.200436 0.596614
vt 0.203578 0.585718
vt 0.214724 0.583429
vt 0.228228 0.581937
vt 0.243436 0.582475
vt 0.256826 0.586424
vt 0.267129 0.589251
vt 0.26964 0.600186
vt 0.197088 0.610322
vt 0.271671 0.614567
vt 0.197277 0.625441
vt 0.270852 0.629666
vt 0.199401 0.638638
vt 0.269021 0.642941
vt 0.212378 0.653655
vt 0.200796 0.649907
vt 0.226245 0.65644
vt 0.24146 0.656078
vt 0.255385 0.656178
vt 0.265741 0.65392
mtllib rock.mtl
usemtl rock
f 5/1/1 6/2/2 2/3/3
f 5/1/1 2/3/3 1/4/4
f 7/5/5 3/6/6 2/3/3
f 7/5/5 2/3/3 6/2/2
f 7/5/5 8/7/7 4/8/8
f 7/5/5 4/8/8 3/6/6
f 10/9/9 6/2/2 5/1/1
f 10/9/9 5/1/1 9/10/10
f 6/2/2 10/9/9 11/11/11
f 6/2/2 11/11/11 7/5/5
f 7/5/5 11/11/11 12/12/12
f 7/5/5 12/12/12 8/7/7
f 10/9/9 9/10/10 13/13/13
f 10/9/9 13/13/13 14/14/14
f 10/9/9 14/14/14 15/15/15
f 10/9/9 15/15/15 11/11/11
f 11/11/11 15/15/15 16/16/16
f 11/11/11 16/16/16 12/12/12
f 22/17/17 21/18/18 17/19/19
f 22/17/17 17/19/19 18/20/20
f 22/17/17 18/20/20 19/21/21
f 22/17/17 19/21/21 23/22/22
f 23/22/22 19/21/21 20/23/23
f 23/22/22 20/23/23 24/24/24
f 26/25/25 25/26/26 21/18/18
f 26/25/25 21/18/18 22/17/17
f 26/25/25 22/17/17 23/22/22
f 26/25/25 23/22/22 27/27/27
f 27/27/27 23/22/22 24/24/24
f 27/27/27 24/24/24 28/28/28
f 26/25/25 30/29/29 29/30/30
f 26/25/25 29/30/30 25/26/26
f 26/25/25 27/27/27 31/31/31
f 26/25/25 31/31/31 30/29/29
f 27/27/27 28/28/28 32/32/32
f 27/27/27 32/32/32 31/31/31
f 38/33/33 37/34/34 33/35/35
f 38/33/33 33/35/35 34/36/36
f 38/33/33 34/36/36 35/37/37
f 38/33/33 35/37/37 39/38/38
f 40/39/39 39/38/38 35/37/37
f 40/39/39 35/37/37 36/40/40
f 42/41/41 41/42/42 37/34/34
f 42/41/41 37/34/34 38/33/33
f 43/43/43 42/41/41 38/33/33
f 43/43/43 38/33/33 39/38/38
f 43/43/43 39/38/38 40/39/39
f 43/43/43 40/39/39 44/44/44
f 41/42/42 42/41/41 46/45/45
f 41/42/42 46/45/45 45/46/46
f 43/43/43 47/47/47 46/45/45
f 43/43/43 46/45/45 42/41/41
f 43/43/43 44/44/44 48/48/48
f 43/43/43 48/48/48 47/47/47
f 54/49/49 53/50/50 49/51/51
f 54/49/49 49/51/51 50/52/52
f 55/53/53 54/49/49 50/52/52
f 55/53/53 50/52/52 51/54/54
f 55/53/53 51/54/54 52/55/55
f 55/53/53 52/55/55 56/56/56
f 58/57/57 57/58/58 53/50/50
f 58/57/57 53/50/50 54/49/49
f 59/59/59 58/57/57 54/49/49
f 59/59/59 54/49/49 55/53/53
f 55/53/53 56/56/56 60/60/60
f 55/53/53 60/60/60 59/59/59
f 58/57/57 62/61/61 61/62/62
f 58/57/57 61/62/62 57/58/58
f 58/57/57 59/59/59 63/63/63
f 58/57/57 63/63/63 62/61/61
f 63/63/63 59/59/59 60/60/60
f 63/63/63 60/60/60 64/64/64
f 70/65/65 69/66/66 65/67/67
f 70/65/65 65/67/67 66/68/68
f 70/65/65 66/68/68 67/69/69
f 70/65/65 67/69/69 71/70/70
f 68/71/71 72/72/72 71/70/70
f 68/71/71 71/70/70 67/69/69
f 70/65/65 74/73/73 73/74/74
f 70/65/65 73/74/74 69/66/66
f 71/70/70 75/75/75 74/73/73
f 71/70/70 74/73/73 70/65/65
f 75/75/75 71/70/70 72/72/72
f 75/75/75 72/72/72 76/76/76
f 74/73/73 78/77/77 77/78/78
f 74/73/73 77/78/78 73/74/74
f 75/75/75 79/79/79 78/77/77
f 75/75/75 78/77/77 74/73/73
f 75/75/75 76/76/76 80/80/80
f 75/75/75 80/80/80 79/79/79
f 86/81/81 85/82/82 81/83/83
f 86/81/81 81/83/83 82/84/84
f 87/85/85 86/81/81 82/84/84
f 87/85/85 82/84/84 83/86/86
f 88/87/87 87/85/85 83/86/86
f 88/87/87 83/86/86 84/88/88
f 86/81/81 90/89/89 89/90/90
f 86/81/81 89/90/90 85/82/82
f 91/91/91 90/89/89 86/81/81
f 91/91/91 86/81/81 87/85/85
f 87/85/85 88/87/87 92/92/92
f 87/85/85 92/92/92 91/91/91
f 90/89/89 94/93/93 93/94/94
f 90/89/89 93/94/94 89/90/90
f 91/91/91 95/95/95 94/93/93
f 91/91/91 94/93/93 90/89/89
f 95/95/95 91/91/91 92/92/92
f 95/95/95 92/92/92 96/96/96
f 133/97/97 125/98/98 1/4/4
f 133/97/97 1/4/4 136/99/99
f 2/3/3 137/100/100 136/99/99
f 2/3/3 136/99/99 1/4/4
f 2/3/3 3/6/6 138/101/101
f 2/3/3 138/101/101 137/100/100
f 4/8/8 139/102/102 138/101/101
f 4/8/8 138/101/101 3/6/6
f 4/8/8 127/103/103 140/104/104
f 4/8/8 140/104/104 139/102/102
f 5/1/1 1/4/4 125/98/98
f 5/1/1 125/98/98 126/105/105
f 4/8/8 8/7/7 128/106/106
f 4/8/8 128/106/106 127/103/103
f 5/1/1 126/105/105 117/107/107
f 5/1/1 117/107/107 9/10/10
f 12/12/12 119/108/108 128/106/106
f 12/12/12 128/106/106 8/7/7
f 13/13/13 9/10/10 117/107/107
f 13/13/13 117/107/107 118/109/109
f 12/12/12 16/16/16 120/110/110
f 12/12/12 120/110/110 119/108/108
f 13/13/13 118/109/109 97/111/111
f 13/13/13 97/111/111 100/112/112
f 14/14/14 13/13/13 100/112/112
f 14/14/14 100/112/112 101/113/113
f 15/15/15 14/14/14 101/113/113
f 15/15/15 101/113/113 102/114/114
f 15/15/15 102/114/114 103/115/115
f 15/15/15 103/115/115 16/16/16
f 16/16/16 103/115/115 104/116/116
f 16/16/16 104/116/116 120/110/110
f 143/117/117 146/118/118 17/19/19
f 143/117/117 17/19/19 129/119/119
f 18/20/20 17/19/19 146/118/118
f 18/20/20 146/118/118 147/120/120
f 19/21/21 18/20/20 147/120/120
f 19/21/21 147/120/120 148/121/121
f 20/23/23 19/21/21 148/121/121
f 20/23/23 148/121/121 149/122/122
f 20/23/23 149/122/122 150/123/123
f 20/23/23 150/123/123 131/124/124
f 21/18/18 130/125/125 129/119/119
f 21/18/18 129/119/119 17/19/19
f 24/24/24 20/23/23 131/124/124
f 24/24/24 131/124/124 132/126/126
f 21/18/18 25/26/26 121/127/127
f 21/18/18 121/127/127 130/125/125
f 24/24/24 132/126/126 123/128/128
f 24/24/24 123/128/128 28/28/28
f 29/30/30 122/129/129 121/127/127
f 29/30/30 121/127/127 25/26/26
f 32/32/32 28/28/28 123/128/128
f 32/32/32 123/128/128 124/130/130
f 107/131/131 122/129/129 29/30/30
f 107/131/131 29/30/30 110/132/132
f 30/29/29 111/133/133 110/132/132
f 30/29/29 110/132/132 29/30/30
f 30/29/29 31/31/31 112/134/134
f 30/29/29 112/134/134 111/133/133
f 31/31/31 32/32/32 113/135/135
f 31/31/31 113/135/135 112/134/134
f 114/136/136 113/135/135 32/32/32
f 114/136/136 32/32/32 124/130/130
f 33/35/35 134/137/137 133/138/97
f 33/35/35 133/138/97 136/139/99
f 34/36/36 33/35/35 136/139/99
f 34/36/36 136/139/99 137/140/100
f 35/37/37 34/36/36 137/140/100
f 35/37/37 137/140/100 138/141/101
f 35/37/37 138/141/101 139/142/102
f 35/37/37 139/142/102 36/40/40
f 36/40/40 139/142/102 140/143/104
f 36/40/40 140/143/104 141/144/138
f 33/35/35 37/34/34 135/145/139
f 33/35/35 135/145/139 134/137/137
f 36/40/40 141/144/138 142/146/140
f 36/40/40 142/146/140 40/39/39
f 37/34/34 41/42/42 144/147/141
f 37/34/34 144/147/141 135/145/139
f 44/44/44 40/39/39 142/146/140
f 44/44/44 142/146/140 151/148/142
f 41/42/42 45/46/46 145/149/143
f 41/42/42 145/149/143 144/147/141
f 44/44/44 151/148/142 152/150/144
f 44/44/44 152/150/144 48/48/48
f 45/46/46 146/151/118 143/152/117
f 45/46/46 143/152/117 145/149/143
f 45/46/46 46/45/45 147/153/120
f 45/46/46 147/153/120 146/151/118
f 47/47/47 148/154/121 147/153/120
f 47/47/47 147/153/120 46/45/45
f 47/47/47 48/48/48 149/155/122
f 47/47/47 149/155/122 148/154/121
f 48/48/48 152/150/144 150/156/123
f 48/48/48 150/156/123 149/155/122
f 49/51/51 141/157/138 140/158/104
f 49/51/51 140/158/104 127/159/103
f 50/52/52 49/51/51 127/159/103
f 50/52/52 127/159/103 128/160/106
f 51/54/54 50/52/52 128/160/106
f 51/54/54 128/160/106 119/161/108
f 51/54/54 119/161/108 120/162/110
f 51/54/54 120/162/110 52/55/55
f 52/55/55 120/162/110 104/163/116
f 52/55/55 104/163/116 105/164/145
f 49/51/51 53/50/50 142/165/140
f 49/51/51 142/165/140 141/157/138
f 52/55/55 105/164/145 106/166/146
f 52/55/55 106/166/146 56/56/56
f 57/58/58 151/167/142 142/165/140
f 57/58/58 142/165/140 53/50/50
f 60/60/60 56/56/56 106/166/146
f 60/60/60 106/166/146 115/168/147
f 57/58/58 61/62/62 152/169/144
f 57/58/58 152/169/144 151/167/142
f 115/168/147 116/170/148 64/64/64
f 115/168/147 64/64/64 60/60/60
f 61/62/62 131/171/124 150/172/123
f 61/62/62 150/172/123 152/169/144
f 62/61/61 132/173/126 131/171/124
f 62/61/61 131/171/124 61/62/62
f 63/63/63 123/174/128 132/173/126
f 63/63/63 132/173/126 62/61/61
f 63/63/63 64/64/64 124/175/130
f 63/63/63 124/175/130 123/174/128
f 64/64/64 116/170/148 114/176/136
f 64/64/64 114/176/136 124/175/130
f 105/177/145 104/178/116 103/179/115
f 105/177/145 103/179/115 65/67/67
f 66/68/68 65/67/67 103/179/115
f 66/68/68 103/179/115 102/180/114
f 67/69/69 66/68/68 102/180/114
f 67/69/69 102/180/114 101/181/113
f 67/69/69 101/181/113 100/182/112
f 67/69/69 100/182/112 68/71/71
f 68/71/71 100/182/112 97/183/111
f 68/71/71 97/183/111 98/184/149
f 69/66/66 106/185/146 105/177/145
f 69/66/66 105/177/145 65/67/67
f 68/71/71 98/184/149 99/186/150
f 68/71/71 99/186/150 72/72/72
f 69/66/66 73/74/74 115/187/147
f 69/66/66 115/187/147 106/185/146
f 72/72/72 99/186/150 108/188/151
f 72/72/72 108/188/151 76/76/76
f 73/74/74 77/78/78 116/189/148
f 73/74/74 116/189/148 115/187/147
f 76/76/76 108/188/151 109/190/152
f 76/76/76 109/190/152 80/80/80
f 77/78/78 113/191/135 114/192/136
f 77/78/78 114/192/136 116/189/148
f 78/77/77 112/193/134 113/191/135
f 78/77/77 113/191/135 77/78/78
f 78/77/77 79/79/79 111/194/133
f 78/77/77 111/194/133 112/193/134
f 79/79/79 80/80/80 110/195/132
f 79/79/79 110/195/132 111/194/133
f 107/196/131 110/195/132 80/80/80
f 107/196/131 80/80/80 109/190/152
f 81/83/83 98/197/149 97/198/111
f 81/83/83 97/198/111 118/199/109
f 82/84/84 81/83/83 118/199/109
f 82/84/84 118/199/109 117/200/107
f 83/86/86 82/84/84 117/200/107
f 83/86/86 117/200/107 126/201/105
f 83/86/86 126/201/105 125/202/98
f 83/86/86 125/202/98 84/88/88
f 133/203/97 134/204/137 84/88/88
f 133/203/97 84/88/88 125/202/98
f 81/83/83 85/82/82 99/205/150
f 81/83/83 99/205/150 98/197/149
f 88/87/87 84/88/88 134/204/137
f 88/87/87 134/204/137 135/206/139
f 89/90/90 108/207/151 99/205/150
f 89/90/90 99/205/150 85/82/82
f 88/87/87 135/206/139 144/208/141
f 88/87/87 144/208/141 92/92/92
f 89/90/90 93/94/94 109/209/152
f 89/90/90 109/209/152 108/207/151
f 92/92/92 144/208/141 145/210/143
f 92/92/92 145/210/143 96/96/96
f 93/94/94 122/211/129 107/212/131
f 93/94/94 107/212/131 109/209/152
f 94/93/93 121/213/127 122/211/129
f 94/93/93 122/211/129 93/94/94
f 95/95/95 130/214/125 121/213/127
f 95/95/95 121/213/127 94/93/93
f 95/95/95 96/96/96 129/215/119
f 95/95/95 129/215/119 130/214/125
f 96/96/96 145/210/143 143/216/117
f 96/96/96 143/216/117 129/215/119
