# OBJ written from E:\3d\3D-Objekte\todo\rocks\meshes\rock14.obj

o Mesh
v -3.04663 -1.23823 4.10751
v -1.40507 -1.21283 3.9549
v 0.261328 -1.19507 3.8032
v 1.76603 -1.13716 3.61972
v -2.71699 -1.03154 1.13609
v -1.53019 -1.35336 1.42815
v 0.339823 -1.42791 1.48607
v 2.2688 -1.48263 1.58518
v -3.4332 -1.34644 -1.04625
v -1.82564 -1.48521 -1.57554
v 0.315789 -1.77921 -1.89672
v 2.77276 -1.81753 -2.03663
v -3.00198 -1.1017 -3.23333
v -2.06555 -1.5526 -4.57712
v -0.123603 -1.54463 -4.6606
v 1.76898 -1.5063 -4.53307
v -0.706895 1.62334 0.750043
v -0.184614 1.73768 0.651164
v 0.210884 1.78375 0.427299
v 0.51421 1.7308 0.592028
v -0.598466 1.7118 0.153549
v -0.125663 1.81753 0.116372
v 0.117779 1.66853 0.228536
v 0.496697 1.57598 0.262638
v -0.821521 1.72442 -0.442101
v -0.421432 1.63522 -0.380805
v 0.0174488 1.66949 -0.305748
v 0.388232 1.33897 -0.326769
v -0.941827 1.71043 -1.1493
v -0.505209 1.59037 -1.04942
v -0.0415417 1.75101 -0.965402
v 0.35525 1.36109 -1.00313
v -2.51154 -0.574392 5.31375
v -1.08199 -0.493952 5.4171
v 0.351559 -0.402759 5.16866
v 1.38726 -0.365483 4.40202
v -2.22037 0.136437 4.96801
v -0.921616 0.108528 5.71717
v 0.676339 0.198543 5.57997
v 1.69596 0.120956 4.68144
v -1.69217 0.834247 3.77446
v -0.609048 0.832937 3.9677
v 0.543127 0.84965 4.22753
v 1.49148 0.705815 3.83539
v -1.10311 1.0144 2.28054
v -0.434462 1.03379 2.24609
v 0.249745 1.16824 2.31338
v 0.951659 1.22277 2.39085
v 3.93529 -0.680008 3.77677
v 4.48144 -0.904731 1.3305
v 4.12793 -0.960325 -1.80538
v 3.07241 -0.754999 -3.72072
v 3.52033 -0.0353337 3.3425
v 3.44402 -0.24797 1.12614
v 2.94548 -0.278899 -1.2113
v 1.77172 -0.155069 -2.41858
v 2.54351 0.59104 2.53249
v 2.6001 0.471425 0.983554
v 1.99553 0.379146 -0.661649
v 1.41837 0.331077 -1.82458
v 1.58808 1.07424 1.55578
v 1.42007 0.95786 0.599456
v 1.20175 0.827506 -0.316994
v 1.05174 0.814902 -1.24908
v 0.925255 -0.530811 -4.77357
v -0.247279 -0.596115 -5.27797
v -1.628 -0.656018 -5.54173
v -2.38066 -0.378552 -4.0031
v 0.989205 -0.0393387 -5.03382
v -0.229192 -0.0565 -5.2488
v -1.39353 0.052211 -4.56932
v -2.57087 0.147323 -4.6382
v 0.719237 0.511461 -3.86364
v -0.253615 0.468768 -3.68513
v -1.29303 0.687919 -4.17639
v -2.1464 0.797079 -3.89163
v 0.381667 0.939424 -2.47622
v -0.208363 1.11637 -2.856
v -0.93617 1.04715 -2.55304
v -1.54271 1.06739 -2.47589
v -4.03241 -0.511722 -2.92199
v -4.30782 -0.626527 -0.934989
v -3.97908 -0.547332 1.20164
v -3.17648 -0.334998 2.58893
v -3.71377 0.128383 -2.82924
v -3.7927 0.10633 -0.979343
v -3.67953 0.138267 0.934744
v -3.47454 0.199012 2.77974
v -3.23924 0.885819 -2.69456
v -3.46101 0.915215 -1.13004
v -2.90384 0.774588 0.606467
v -2.58671 0.803228 1.9336
v -2.12985 1.19391 -1.67518
v -2.09406 1.15696 -0.651941
v -2.02274 1.34553 0.349256
v -1.87014 1.35405 1.30431
v -1.672 -1.191 -5.49261
v -0.300001 -1.39695 -5.71717
v -2.59521 -0.877633 -4.46861
v -3.19511 -0.676413 -3.59454
v -3.35511 -0.343291 -3.88252
v -2.98676 0.194569 -3.56353
v -2.73613 0.760777 -3.40411
v 0.834988 -0.953739 -4.9659
v 1.83293 -0.857522 -4.56498
v 1.74917 -0.461517 -4.27265
v 1.36506 -0.0568429 -3.36696
v 3.12758 -1.32486 -3.91363
v -3.95961 -0.965906 -2.65785
v -2.24864 1.2974 -2.7626
v -1.12132 1.23957 -1.75355
v -1.55616 1.35876 -1.7994
v -0.666846 1.19583 -1.69178
v -0.15831 1.43233 -1.80236
v 0.733168 1.19762 -0.897266
v 0.235102 1.23531 -1.66839
v 0.637782 1.08824 -1.59004
v 1.1612 0.367022 -2.82583
v 0.838934 0.715776 -2.08426
v 3.65892 -1.38644 -1.63793
v -4.48144 -1.18894 -0.78063
v -1.33154 1.56254 0.168104
v -1.42578 1.39629 -0.460301
v -1.48171 1.3147 -1.07936
v 0.949814 1.37823 0.876464
v 0.836449 1.15479 0.409705
v 0.811129 1.20914 -0.248612
v -4.19508 -1.09848 1.48083
v -1.18063 1.59669 0.771612
v -1.21568 1.3574 1.45949
v -0.768089 1.32358 1.50228
v -0.274522 1.43492 1.47964
v -1.66963 1.09542 2.09057
v 0.170142 1.51101 1.37452
v 0.593762 1.65154 1.22579
v 0.972782 1.37905 1.44787
v 1.51725 1.03069 2.38685
v 4.15037 -1.43026 1.29269
v -3.0569 -0.745659 2.58627
v -2.66939 0.270074 3.52352
v -2.29324 0.79081 2.97172
v 3.27301 -1.12704 3.40398
v 2.30306 0.644245 3.55516
v -2.78069 -0.617826 3.6889
v -2.7492 -0.225367 3.64246
v 1.40337 -0.866238 4.87845
v 2.24628 -0.721249 3.99685
v 2.56658 -0.383383 4.27162
v 2.57883 0.0769968 4.09033
v -2.78846 -1.22742 5.05191
v -1.19702 -0.964135 5.35228
v 0.214756 -0.953794 5.46144
vn 0.0696514 -0.995961 -0.0566644
vn 0.0105716 -0.999905 0.00882637
vn -0.0556426 -0.997806 0.0358851
vn 0.0404653 -0.998872 0.0248312
vn -0.0513663 -0.994823 0.0876849
vn 0.00115272 -0.993738 0.111725
vn 0.0136722 -0.993025 0.117108
vn 0.0290437 -0.986429 0.1616
vn -0.0993759 -0.993593 0.053837
vn -0.0646286 -0.997819 0.0134334
vn -0.0707291 -0.996827 0.036501
vn 0.0435527 -0.998993 0.0108126
vn -0.509191 -0.818671 -0.265522
vn -0.297469 -0.941512 -0.15833
vn -0.0310068 -0.996079 -0.0828563
vn 0.177916 -0.916911 -0.357238
vn -0.143219 0.962554 0.230168
vn -0.194061 0.976918 0.0892859
vn -0.202719 0.978591 -0.0355732
vn -0.201433 0.979209 0.0239669
vn -0.0715772 0.995173 -0.0671335
vn 0.159104 0.935388 -0.31581
vn 0.427941 0.889186 -0.161912
vn 0.51894 0.797571 -0.307542
vn -0.0847618 0.9964 -0.00166579
vn -0.1579 0.986569 -0.0418238
vn 0.256322 0.959525 -0.116668
vn 0.488873 0.86843 -0.082658
vn -0.0912148 0.963852 -0.250338
vn -0.174097 0.975728 -0.132837
vn 0.170155 0.965955 -0.194878
vn 0.517421 0.844339 -0.139164
vn 0.0172879 -0.212685 0.976968
vn 0.0307386 -0.452159 0.891408
vn -0.0403914 -0.436826 0.898639
vn -0.0821593 -0.381304 0.920792
vn 0.307974 -0.00513947 0.951381
vn 0.295291 -0.579935 0.759262
vn 0.361417 0.154119 0.919579
vn 0.350308 -0.179098 0.919352
vn -0.100712 0.92546 0.365214
vn -0.0688561 0.964278 0.255789
vn -0.226679 0.954074 0.195858
vn -0.558759 0.77824 0.286586
vn 0.188777 0.904561 0.382273
vn 0.132579 0.953952 0.26907
vn 0.303397 0.716304 0.628378
vn 0.282504 0.905576 0.316422
vn -0.0729594 0.957499 0.279058
vn -0.0416867 0.965574 0.256768
vn -0.0453557 0.964142 0.261483
vn 0.144699 0.954762 0.259792
vn 0.501387 0.865105 -0.014333
vn 0.529371 0.846123 -0.0619889
vn 0.482314 0.845646 0.228597
vn 0.477774 0.80224 0.357969
vn 0.660736 0.737377 -0.140368
vn 0.439117 0.88599 -0.148993
vn 0.594037 0.704202 -0.38887
vn 0.429139 0.881911 -0.195122
vn 0.486556 0.865206 -0.121169
vn 0.44141 0.896085 0.0467904
vn 0.440886 0.870243 -0.219765
vn 0.518368 0.826121 -0.22095
vn 0.392509 0.904915 -0.164519
vn 0.38466 0.922693 -0.0259755
vn 0.477033 0.856527 -0.19698
vn 0.577863 0.795489 -0.182407
vn -0.117125 0.664913 -0.737681
vn 0.454993 0.752082 -0.476817
vn 0.372438 0.535625 -0.757889
vn 0.0546564 0.48204 -0.874443
vn -0.110953 0.738052 -0.665559
vn -0.219957 0.730723 -0.646268
vn -0.206826 0.760353 -0.6157
vn -0.155891 0.810631 -0.564425
vn -0.0343533 0.894475 -0.445797
vn 0.326055 0.913298 -0.244081
vn 0.0207037 0.850365 -0.525786
vn -0.173083 0.919559 -0.352781
vn 0.117692 0.948132 -0.295287
vn 0.377807 0.895167 -0.23651
vn 0.0449833 0.969668 -0.240249
vn 0.0815681 0.971137 -0.224142
vn -0.897909 0.440171 0.00302579
vn -0.800233 0.596766 0.0591399
vn -0.790799 0.547731 -0.273181
vn -0.837155 0.513451 -0.188518
vn -0.823141 0.491094 0.28507
vn -0.691523 0.695653 0.194585
vn -0.897544 0.0563489 0.437309
vn -0.773374 0.536409 0.337874
vn -0.510383 0.855602 0.0863357
vn -0.516614 0.817662 -0.254045
vn -0.465287 0.87492 0.134248
vn -0.482014 0.864056 0.145155
vn -0.268333 0.963326 0.000640456
vn -0.209636 0.977475 -0.0244049
vn -0.349131 0.936368 0.0363725
vn -0.361735 0.918215 0.161337
vn -0.802151 0.220807 0.554796
vn -0.953385 0.202753 0.223491
vn -0.887169 0.278562 0.367878
vn -0.833009 0.506804 0.221915
vn 0.0289618 -0.822733 0.56769
vn 0.0276181 -0.909558 0.414659
vn 0.0397234 -0.988639 0.144963
vn 0.0469783 -0.981959 0.183167
vn 0.278178 -0.887785 0.36668
vn 0.0689318 -0.878092 0.4735
vn -0.572303 -0.810303 0.126009
vn 0.0514189 -0.998323 0.0266107
vn 0.431701 -0.893594 0.122983
vn -0.0560568 -0.998341 -0.0131253
vn 0.301492 -0.953421 -0.0095417
vn -0.465106 -0.803323 -0.371952
vn 0.375052 -0.688248 -0.621008
vn -0.861885 -0.102475 -0.496642
vn -0.698007 -0.619081 -0.359894
vn -0.580443 -0.668566 -0.464871
vn -0.741719 0.146653 -0.654482
vn -0.621707 -0.0607754 -0.780889
vn 0.0139088 -0.989956 -0.140687
vn 0.288864 -0.686455 -0.667336
vn 0.682188 -0.199729 -0.703369
vn 0.364626 -0.0107569 -0.931092
vn 0.382031 0.297273 -0.875032
vn -0.155585 0.964202 0.214729
vn -0.0348508 0.933629 0.356542
vn -0.043211 0.922533 0.383492
vn -0.115169 0.927754 0.354976
vn -0.162012 0.935108 0.315158
vn 0.161668 0.957018 0.24079
vn 0.438051 0.8915 0.115493
vn 0.541312 0.830137 -0.133619
vn -0.260684 0.96374 -0.0570025
vn 0.456182 0.867441 -0.198605
vn -0.343734 0.936675 -0.0669875
vn 0.417708 0.906286 -0.064544
vn -0.417923 0.904464 0.0853523
vn 0.503198 0.852885 -0.139209
vn 0.000585429 0.963387 -0.268114
vn -0.156081 0.986618 -0.0471544
vn -0.127911 0.936808 -0.325621
vn 0.117833 0.937787 -0.326604
vn 0.506769 0.822986 -0.256669
vn 0.521319 0.826284 -0.213266
vn -0.810456 0.199559 0.55076
vn -0.961661 -0.00708297 0.274149
vn -0.785598 -0.212921 0.580948
vn 0.0727675 -0.69034 0.719816
vn -0.664298 0.011805 0.747374
vn 0.00135235 0.0639972 0.997949
vn 0.210539 0.561064 0.80055
vn 0.190478 0.679881 0.708152
vn 0.293974 0.325005 0.898861
vn 0.165744 0.583669 0.794896
vn 0.0900646 0.68801 0.720091
vn 0.196827 0.590164 0.782921
vn -0.785314 0.511471 0.348827
vn 0.208298 0.313064 0.926608
vn 0.311267 0.72444 0.615061
vn 0.437469 0.448618 0.779335
vn -0.390723 0.90115 0.187788
vn 0.322784 0.905351 0.275953
vn -0.188727 0.953262 0.235953
vn 0.315288 0.934884 0.163051
vn 0.506211 -0.693449 0.512718
vn 0.121397 -0.212679 0.969552
vn 0.752403 -0.652982 0.0866312
vn 0.611999 -0.273551 0.742042
vn 0.928837 -0.333668 -0.16102
vn 0.578292 -0.812058 -0.0783659
vn 0.669194 0.151093 -0.727565
vn 0.88097 0.445812 -0.158566
vn 0.419309 0.744671 -0.519274
vn 0.788224 0.453147 0.416365
vn 0.566442 0.807746 -0.163371
vn 0.630276 0.761509 -0.151184
vn 0.581162 0.795637 -0.170918
vn 0.351435 0.336176 -0.873773
vn 0.13523 0.469587 -0.872468
vn -0.616887 0.430418 -0.658932
vn -0.0634485 0.695159 -0.716051
vn -0.3876 0.724626 -0.56981
vn -0.104432 -0.781159 -0.615536
vn -0.272344 -0.751356 -0.601077
vn -0.65125 0.639093 -0.409187
vn -0.401802 0.856912 -0.322887
vn -0.0161436 0.988407 -0.150966
vn -0.86306 -0.270879 -0.426324
vn -0.902191 0.250087 -0.351436
vn -0.818564 -0.40999 -0.402319
vn -0.955922 0.293567 -0.00558011
vn -0.836782 0.439725 0.326247
vn -0.927105 -0.0906498 0.363675
vt 0.703331 0.339758
vt 0.678055 0.311743
vt 0.682212 0.304311
vt 0.706971 0.317211
vt 0.687363 0.289402
vt 0.712564 0.297437
vt 0.69321 0.27239
vt 0.714116 0.28157
vt 0.646602 0.306523
vt 0.652073 0.323874
vt 0.647569 0.284128
vt 0.65315 0.26032
vt 0.627027 0.313305
vt 0.610398 0.298767
vt 0.615544 0.276353
vt 0.622579 0.258534
vt 0.616815 0.406248
vt 0.615027 0.412248
vt 0.607572 0.413766
vt 0.608111 0.408046
vt 0.611839 0.41834
vt 0.60935 0.418086
vt 0.614048 0.423149
vt 0.610314 0.423107
vt 0.603 0.41263
vt 0.602141 0.407732
vt 0.6034 0.418338
vt 0.60373 0.423309
vt 0.596029 0.412836
vt 0.595131 0.407823
vt 0.596662 0.418724
vt 0.596489 0.423835
vt 0.560332 0.423819
vt 0.561173 0.427176
vt 0.546543 0.439308
vt 0.547987 0.433388
vt 0.575557 0.425569
vt 0.571297 0.431686
vt 0.587317 0.431646
vt 0.586583 0.436203
vt 0.564245 0.458369
vt 0.550146 0.458292
vt 0.578072 0.451465
vt 0.590045 0.449839
vt 0.571173 0.478296
vt 0.561091 0.477187
vt 0.581448 0.475852
vt 0.590041 0.471561
vt 0.623918 0.355735
vt 0.628189 0.367179
vt 0.604144 0.358315
vt 0.600117 0.350564
vt 0.656261 0.354391
vt 0.653958 0.367787
vt 0.679946 0.349188
vt 0.668703 0.372563
vt 0.630833 0.377835
vt 0.612861 0.372958
vt 0.649943 0.380293
vt 0.663071 0.380723
vt 0.634995 0.391773
vt 0.622894 0.388218
vt 0.6465 0.390609
vt 0.657444 0.388123
vt 0.72875 0.364028
vt 0.724662 0.355939
vt 0.72525 0.352639
vt 0.730552 0.362226
vt 0.727694 0.37675
vt 0.74103 0.369711
vt 0.735375 0.388759
vt 0.733501 0.384299
vt 0.7138 0.370514
vt 0.713319 0.359672
vt 0.722442 0.378175
vt 0.724978 0.387566
vt 0.705587 0.373468
vt 0.699993 0.366485
vt 0.706223 0.38404
vt 0.709496 0.391571
vt 0.664723 0.412961
vt 0.664795 0.420453
vt 0.64607 0.418999
vt 0.645156 0.413189
vt 0.685522 0.413904
vt 0.683653 0.419661
vt 0.699631 0.411833
vt 0.701346 0.41549
vt 0.662986 0.427378
vt 0.646804 0.426967
vt 0.680545 0.430317
vt 0.694511 0.428799
vt 0.666676 0.441485
vt 0.655318 0.439971
vt 0.677766 0.441584
vt 0.68863 0.440078
vt 0.734355 0.319171
vt 0.701938 0.342381
vt 0.688917 0.34178
vt 0.722405 0.31371
vt 0.733444 0.300454
vt 0.729873 0.281768
vt 0.709607 0.266955
vt 0.71591 0.274841
vt 0.678372 0.323809
vt 0.692103 0.252554
vt 0.655175 0.3351
vt 0.660502 0.253324
vt 0.63422 0.324194
vt 0.634003 0.255343
vt 0.611475 0.307529
vt 0.622988 0.315868
vt 0.595865 0.291826
vt 0.589191 0.272347
vt 0.615249 0.257509
vt 0.625752 0.255245
vt 0.617144 0.402098
vt 0.624508 0.401678
vt 0.624748 0.405666
vt 0.62444 0.411736
vt 0.623286 0.417898
vt 0.621403 0.423478
vt 0.623512 0.427176
vt 0.617167 0.427549
vt 0.609735 0.401713
vt 0.611769 0.426735
vt 0.602414 0.402331
vt 0.604317 0.426907
vt 0.595746 0.402989
vt 0.597471 0.427129
vt 0.589674 0.407489
vt 0.589191 0.403863
vt 0.590285 0.412674
vt 0.5894 0.419152
vt 0.590585 0.423916
vt 0.591405 0.427373
vt 0.545082 0.424014
vt 0.531713 0.45216
vt 0.529071 0.450802
vt 0.560978 0.425588
vt 0.572591 0.422588
vt 0.584449 0.425932
vt 0.596302 0.430142
vt 0.596799 0.431398
vt 0.536804 0.455521
vt 0.597658 0.43655
vt 0.543181 0.466572
vt 0.598772 0.448976
vt 0.554665 0.479162
vt 0.595714 0.468641
vt 0.56531 0.487988
vt 0.559862 0.488155
vt 0.574031 0.488446
vt 0.583943 0.488167
vt 0.592762 0.487856
vt 0.596251 0.482919
vt 0.590306 0.353318
vt 0.589191 0.347083
vt 0.600919 0.344111
vt 0.623804 0.351761
vt 0.653989 0.349772
vt 0.682196 0.345613
vt 0.687106 0.357566
vt 0.685243 0.360073
vt 0.593103 0.359647
vt 0.679427 0.371581
vt 0.600098 0.368154
vt 0.674433 0.379813
vt 0.612229 0.383172
vt 0.667006 0.387409
vt 0.628889 0.398117
vt 0.621133 0.394849
vt 0.636606 0.398217
vt 0.646552 0.395428
vt 0.6545 0.393169
vt 0.662316 0.391794
vt 0.724524 0.344111
vt 0.727394 0.352558
vt 0.721014 0.345509
vt 0.746705 0.35828
vt 0.741616 0.370326
vt 0.740321 0.385919
vt 0.739419 0.396088
vt 0.73861 0.394833
vt 0.710388 0.348698
vt 0.734278 0.395663
vt 0.703088 0.354092
vt 0.725948 0.395757
vt 0.69509 0.361821
vt 0.715665 0.395652
vt 0.692307 0.37062
vt 0.690566 0.365873
vt 0.695509 0.377428
vt 0.697439 0.386927
vt 0.701324 0.393345
vt 0.704266 0.39731
vt 0.636364 0.40915
vt 0.647696 0.410548
vt 0.634088 0.413429
vt 0.666259 0.409766
vt 0.687697 0.409682
vt 0.699838 0.41014
vt 0.711393 0.410065
vt 0.711133 0.412179
vt 0.636885 0.421403
vt 0.710615 0.415635
vt 0.638248 0.428441
vt 0.705962 0.425051
vt 0.64383 0.436837
vt 0.697875 0.437225
vt 0.660205 0.44714
vt 0.652267 0.445181
vt 0.667673 0.448332
vt 0.675584 0.449189
vt 0.68374 0.449159
vt 0.691824 0.445333
mtllib rock.mtl
usemtl rock
quads
f 1/1/1 5/2/2 6/3/3 2/4/4
f 6/3/3 7/5/5 3/6/6 2/4/4
f 7/5/5 8/7/7 4/8/8 3/6/6
f 10/9/9 6/3/3 5/2/2 9/10/10
f 11/11/11 7/5/5 6/3/3 10/9/9
f 12/12/12 8/7/7 7/5/5 11/11/11
f 10/9/9 9/10/10 13/13/13 14/14/14
f 10/9/9 14/14/14 15/15/15 11/11/11
f 11/11/11 15/15/15 16/16/16 12/12/12
f 17/17/17 18/18/18 22/19/19 21/20/20
f 19/21/21 23/22/22 22/19/19 18/18/18
f 20/23/23 24/24/24 23/22/22 19/21/21
f 21/20/20 22/19/19 26/25/25 25/26/26
f 27/27/27 26/25/25 22/19/19 23/22/22
f 28/28/28 27/27/27 23/22/22 24/24/24
f 30/29/29 29/30/30 25/26/26 26/25/25
f 30/29/29 26/25/25 27/27/27 31/31/31
f 32/32/32 31/31/31 27/27/27 28/28/28
f 34/33/33 38/34/34 37/35/35 33/36/36
f 38/34/34 34/33/33 35/37/37 39/38/38
f 39/38/38 35/37/37 36/39/39 40/40/40
f 38/34/41 42/41/42 41/42/43 37/35/44
f 38/34/41 39/38/45 43/43/46 42/41/42
f 39/38/45 40/40/47 44/44/48 43/43/46
f 42/41/42 46/45/49 45/46/50 41/42/43
f 43/43/46 47/47/51 46/45/49 42/41/42
f 43/43/46 44/44/48 48/48/52 47/47/51
f 50/49/53 54/50/54 53/51/55 49/52/56
f 51/53/57 55/54/58 54/50/54 50/49/53
f 52/55/59 56/56/60 55/54/58 51/53/57
f 53/51/55 54/50/54 58/57/61 57/58/62
f 55/54/58 59/59/63 58/57/61 54/50/54
f 55/54/58 56/56/60 60/60/64 59/59/63
f 58/57/61 62/61/65 61/62/66 57/58/62
f 58/57/61 59/59/63 63/63/67 62/61/65
f 59/59/63 60/60/64 64/64/68 63/63/67
f 70/65/69 69/66/70 65/67/71 66/68/72
f 71/69/73 70/65/69 66/68/72 67/70/74
f 71/69/73 67/70/74 68/71/75 72/72/76
f 70/65/69 74/73/77 73/74/78 69/66/70
f 71/69/73 75/75/79 74/73/77 70/65/69
f 72/72/76 76/76/80 75/75/79 71/69/73
f 73/74/78 74/73/77 78/77/81 77/78/82
f 75/75/79 79/79/83 78/77/81 74/73/77
f 75/75/79 76/76/80 80/80/84 79/79/83
f 82/81/85 86/82/86 85/83/87 81/84/88
f 82/81/85 83/85/89 87/86/90 86/82/86
f 83/85/89 84/87/91 88/88/92 87/86/90
f 86/82/86 90/89/93 89/90/94 85/83/87
f 91/91/95 90/89/93 86/82/86 87/86/90
f 88/88/92 92/92/96 91/91/95 87/86/90
f 90/89/93 94/93/97 93/94/98 89/90/94
f 90/89/93 91/91/95 95/95/99 94/93/97
f 91/91/95 92/92/96 96/96/100 95/95/99
f 150/97/101 144/98/102 139/99/103 1/1/104
f 150/97/105 1/1/1 2/4/4 151/100/106
f 3/6/6 152/101/107 151/100/106 2/4/4
f 3/6/6 4/8/8 146/102/108 152/101/107
f 4/8/8 142/103/109 147/104/110 146/102/108
f 5/2/2 1/1/1 139/99/111 128/105/112
f 8/7/7 138/106/113 142/103/109 4/8/8
f 5/2/2 128/105/112 121/107/114 9/10/10
f 8/7/7 12/12/12 120/108/115 138/106/113
f 9/10/10 121/107/114 109/109/116 13/13/13
f 108/110/117 120/108/115 12/12/12 16/16/16
f 99/111/118 13/13/13 109/109/119 100/112/120
f 14/14/14 13/13/13 99/111/121 97/113/122
f 15/15/15 14/14/14 97/113/122 98/114/123
f 15/15/15 98/114/123 104/115/124 16/16/16
f 108/110/125 16/16/16 104/115/126 105/116/127
f 17/17/17 129/117/128 130/118/129 131/119/130
f 18/18/18 17/17/17 131/119/130 132/120/131
f 134/121/132 19/21/21 18/18/18 132/120/131
f 134/121/132 135/122/133 20/23/23 19/21/21
f 20/23/23 135/122/133 136/123/134 125/124/135
f 21/20/20 122/125/136 129/117/128 17/17/17
f 125/124/135 126/126/137 24/24/24 20/23/23
f 122/125/136 21/20/20 25/26/26 123/127/138
f 127/128/139 28/28/28 24/24/24 126/126/137
f 25/26/26 29/30/30 124/129/140 123/127/138
f 28/28/28 127/128/139 115/130/141 32/32/32
f 124/129/140 29/30/30 111/131/142 112/132/143
f 113/133/144 111/131/142 29/30/30 30/29/29
f 114/134/145 113/133/144 30/29/29 31/31/31
f 31/31/31 32/32/32 116/135/146 114/134/145
f 117/136/147 116/135/146 32/32/32 115/130/141
f 150/137/101 33/36/148 145/138/149 144/139/102
f 150/137/150 151/140/151 34/33/33 33/36/152
f 35/37/37 34/33/33 151/140/153 152/141/154
f 146/142/155 36/39/156 35/37/37 152/141/154
f 36/39/157 146/142/155 147/143/158 148/144/159
f 33/36/148 37/35/44 140/145/160 145/138/149
f 148/144/161 149/146/162 40/40/163 36/39/156
f 37/35/44 41/42/43 141/147/164 140/145/160
f 40/40/47 149/146/162 143/148/165 44/44/48
f 41/42/43 45/46/50 133/149/166 141/147/164
f 44/44/48 143/148/165 137/150/167 48/48/52
f 45/46/50 131/151/130 130/152/129 133/149/166
f 46/45/49 132/153/131 131/151/130 45/46/50
f 47/47/51 134/154/132 132/153/131 46/45/49
f 48/48/52 135/155/133 134/154/132 47/47/51
f 48/48/52 137/150/167 136/156/134 135/155/133
f 49/52/168 148/157/169 147/158/110 142/159/109
f 50/49/170 49/52/171 142/159/109 138/160/113
f 51/53/172 50/49/170 138/160/113 120/161/173
f 108/162/174 52/55/59 51/53/175 120/161/172
f 52/55/59 108/162/174 105/163/127 106/164/176
f 49/52/177 53/51/55 149/165/162 148/157/159
f 52/55/59 106/164/176 107/166/178 56/56/60
f 53/51/55 57/58/62 143/167/165 149/165/162
f 56/56/60 107/166/178 118/168/179 60/60/64
f 57/58/62 61/62/66 137/169/167 143/167/165
f 118/168/179 119/170/180 64/64/68 60/60/64
f 61/62/66 125/171/135 136/172/134 137/169/167
f 62/61/65 126/173/137 125/171/135 61/62/66
f 62/61/65 63/63/67 127/174/139 126/173/137
f 63/63/67 64/64/68 115/175/141 127/174/139
f 64/64/68 119/170/180 117/176/147 115/175/141
f 105/177/127 104/178/181 65/67/71 106/179/176
f 66/68/72 65/67/71 104/178/181 98/180/182
f 98/180/182 97/181/122 67/70/74 66/68/72
f 68/71/75 67/70/74 97/181/122 99/182/121
f 68/71/75 99/182/183 100/183/184 101/184/185
f 107/185/178 106/179/176 65/67/71 69/66/70
f 68/71/186 101/184/187 102/186/186 72/72/186
f 69/66/70 73/74/78 118/187/179 107/185/178
f 72/72/76 102/186/188 103/188/189 76/76/80
f 73/74/78 77/78/82 119/189/180 118/187/179
f 76/76/80 103/188/189 110/190/190 80/80/84
f 77/78/82 116/191/146 117/192/147 119/189/180
f 78/77/81 114/193/145 116/191/146 77/78/82
f 78/77/81 79/79/83 113/194/144 114/193/145
f 79/79/83 80/80/84 111/195/142 113/194/144
f 110/190/190 112/196/143 111/195/142 80/80/84
f 100/197/120 109/198/119 81/84/191 101/199/187
f 82/81/85 81/84/192 109/198/193 121/200/194
f 121/200/194 128/201/195 83/85/89 82/81/85
f 128/201/195 139/202/103 84/87/91 83/85/89
f 139/202/196 144/203/102 145/204/149 84/87/91
f 101/199/185 81/84/88 85/83/87 102/205/188
f 84/87/91 145/204/149 140/206/160 88/88/92
f 85/83/87 89/90/94 103/207/189 102/205/188
f 88/88/92 140/206/160 141/208/164 92/92/96
f 89/90/94 93/94/98 110/209/190 103/207/189
f 92/92/96 141/208/164 133/210/166 96/96/100
f 110/209/190 93/94/98 124/211/140 112/212/143
f 94/93/97 123/213/138 124/211/140 93/94/98
f 95/95/99 122/214/136 123/213/138 94/93/97
f 96/96/100 129/215/128 122/214/136 95/95/99
f 96/96/100 133/210/166 130/216/129 129/215/128
