# OBJ written from E:\3d\3D-Objekte\todo\rocks\meshes\rock2.obj

o Mesh
v -0.374656 -0.763073 0.478113
v -0.0619459 -0.795937 0.5319
v 0.279468 -0.913374 0.586125
v 0.71469 -0.979027 0.651371
v -0.499044 -0.969414 0.222639
v -0.10935 -1.05087 0.213154
v 0.362908 -1.23249 0.249782
v 0.896013 -1.28945 0.258838
v -0.619494 -1.19349 -0.209352
v -0.176371 -1.46021 -0.321136
v 0.406436 -1.38943 -0.304282
v 0.786798 -1.09849 -0.209687
v -0.703182 -1.35794 -0.794868
v -0.153001 -1.39717 -0.829522
v 0.304134 -1.05865 -0.646672
v 0.607735 -0.830779 -0.506074
v -0.454819 0.887791 0.556146
v -0.135684 1.03598 0.659432
v 0.260243 1.20029 0.763981
v 0.759629 1.27751 0.781402
v -0.612249 1.09664 0.27288
v -0.239413 1.31707 0.343085
v 0.298137 1.46021 0.356798
v 0.760153 1.25831 0.310966
v -0.615282 1.07942 -0.155378
v -0.232852 1.25054 -0.16959
v 0.246412 1.22329 -0.144163
v 0.632246 1.06064 -0.145213
v -0.504002 0.940372 -0.502262
v -0.189675 1.08528 -0.581645
v 0.248723 1.02398 -0.53424
v 0.553552 0.877132 -0.451633
v -0.438936 -0.469097 0.866895
v -0.107293 -0.468777 0.926003
v 0.261655 -0.454362 0.952945
v 0.683114 -0.504974 1.03654
v -0.525928 -0.186551 1.04292
v -0.150397 -0.143909 1.15891
v 0.309993 -0.118113 1.29543
v 0.759932 -0.137029 1.17405
v -0.529263 0.210075 1.0353
v -0.143852 0.280223 1.11987
v 0.295552 0.357739 1.26507
v 0.739219 0.322107 1.16138
v -0.461552 0.517377 0.907379
v -0.125684 0.582876 0.932735
v 0.241882 0.664319 1.01512
v 0.669549 0.721251 1.09639
v 1.07615 -0.536215 0.591393
v 1.103 -0.534815 0.196175
v 1.02467 -0.499567 -0.195727
v 0.989032 -0.498957 -0.554619
v 0.968931 -0.102888 0.554382
v 1.16057 -0.156732 0.24621
v 1.06564 -0.146078 -0.192487
v 1.07672 -0.155005 -0.594214
v 0.921337 0.264302 0.570403
v 1.05621 0.266714 0.259479
v 1.21923 0.309487 -0.18595
v 0.984697 0.233527 -0.520594
v 0.918957 0.617825 0.612849
v 1.09109 0.704431 0.286225
v 0.927752 0.58904 -0.10001
v 0.835329 0.529554 -0.413695
v 0.649319 -0.533879 -0.87057
v 0.330052 -0.726048 -1.11981
v -0.15054 -0.804009 -1.29543
v -0.581008 -0.671221 -1.13156
v 0.758796 -0.222986 -1.09692
v 0.307459 -0.275307 -1.06303
v -0.155519 -0.262522 -1.13806
v -0.597307 -0.204541 -1.09053
v 0.715831 0.21918 -1.06032
v 0.272285 0.16675 -0.987972
v -0.174742 0.205125 -1.06194
v -0.582477 0.229675 -1.01697
v 0.594116 0.581437 -0.893555
v 0.228717 0.586097 -0.965061
v -0.180364 0.57076 -0.893585
v -0.521211 0.532855 -0.822014
v -1.05507 -0.682328 -0.649243
v -1.21923 -0.772787 -0.221455
v -1.04726 -0.672875 0.265072
v -0.796878 -0.494436 0.555911
v -0.991279 -0.206985 -0.601525
v -1.17416 -0.239904 -0.207273
v -1.05676 -0.202145 0.255358
v -1.00995 -0.161084 0.676794
v -0.890693 0.198936 -0.513284
v -1.08695 0.213052 -0.183479
v -1.02554 0.230531 0.244305
v -1.00603 0.264841 0.672938
v -0.793439 0.504605 -0.425351
v -0.922002 0.56042 -0.141623
v -1.04604 0.66166 0.260392
v -0.931212 0.623794 0.623823
v -0.610507 -1.19011 -1.16722
v -0.846089 -0.93773 -0.920921
v -0.10406 -1.11858 -1.11048
v 0.27986 -0.923465 -0.878804
v -0.838964 -0.55465 -0.926154
v -0.806627 -0.164493 -0.856632
v 0.52706 -0.709689 -0.714105
v 0.870489 -0.437074 -0.768757
v 1.01166 -0.133359 -0.909658
v -0.705354 0.146705 -0.737791
v 0.89991 0.203887 -0.798164
v 0.804947 0.480591 -0.703285
v -0.444832 0.771783 -0.728869
v -0.13853 0.814989 -0.753942
v 0.209678 0.8516 -0.809302
v 0.477588 0.749534 -0.666764
v -0.910741 -1.02463 -0.167697
v -1.00008 -1.08412 -0.61865
v 0.938054 -0.805465 -0.17318
v 0.86083 -0.717932 -0.452544
v 0.717766 -0.62605 -0.616046
v -0.627756 0.665713 -0.587295
v -0.642715 0.4126 -0.620461
v 0.70761 0.71276 -0.354568
v 0.692374 0.661481 -0.590713
v -0.832438 0.869511 -0.109179
v -0.721994 0.764974 -0.387946
v 0.785419 0.802823 -0.0874023
v -0.806506 -0.886562 0.224387
v 0.968327 -0.768565 0.507463
v 1.01624 -0.861817 0.179111
v -0.54298 -0.58215 0.644846
v -0.624857 -0.71227 0.465372
v -0.770229 0.847936 0.551026
v -0.874764 0.899613 0.246636
v 0.947387 0.981015 0.60172
v 0.911553 0.946907 0.24377
v -0.343195 -0.653337 0.696435
v -0.0596066 -0.656305 0.737366
v -0.659573 -0.402901 0.761973
v -0.780591 -0.126197 0.884066
v 0.234186 -0.661144 0.761221
v 0.55674 -0.722103 0.808921
v 0.84708 -0.686748 0.766392
v 0.924881 -0.434413 0.862131
v 0.880614 -0.0807081 0.811604
v -0.633034 0.694074 0.737703
v -0.887382 0.242337 0.992177
v -0.791894 0.545359 0.897894
v 0.848947 0.240112 0.830043
v 0.817664 0.553775 0.847685
v -0.38426 0.73573 0.75295
v -0.108062 0.817949 0.833595
v 0.200771 0.897221 0.87519
v 0.557153 0.958684 0.920624
v 0.824591 0.869049 0.85152
vn -0.168914 -0.82014 0.546662
vn -0.249626 -0.788766 0.561725
vn -0.177031 -0.808896 0.560667
vn -0.213445 -0.768112 0.603693
vn -0.10849 -0.887193 0.448462
vn -0.247626 -0.730367 0.636589
vn 0.266527 -0.784469 0.559974
vn 0.334335 -0.497235 0.800611
vn -0.0299587 -0.960861 0.275408
vn -0.286583 -0.85534 0.431582
vn 0.194585 -0.978607 -0.0668265
vn 0.570201 -0.760207 -0.311376
vn 0.532365 -0.768349 0.355284
vn -0.445799 -0.892361 -0.0703909
vn 0.172836 -0.962319 -0.209929
vn 0.526065 -0.722176 -0.449131
vn 0.598416 -0.536582 -0.594961
vn 0.632424 -0.640802 -0.435216
vn -0.372124 0.89316 0.252563
vn -0.432979 0.879819 0.196083
vn -0.309531 0.747546 0.587679
vn -0.398475 0.591199 0.701214
vn -0.0859816 0.995974 -0.0253633
vn -0.243712 0.730042 0.63847
vn 0.33979 0.823485 0.45433
vn 0.558618 0.786569 -0.263163
vn -0.251668 0.933564 -0.25519
vn -0.532117 0.808168 -0.25242
vn 0.128993 0.927476 -0.350926
vn 0.61178 0.650895 -0.449512
vn -0.147463 0.814324 -0.561365
vn -0.555143 0.611318 -0.564009
vn 0.274409 0.839327 -0.469287
vn 0.62442 0.607893 -0.490475
vn -0.232941 -0.306576 0.922903
vn -0.285185 -0.280827 0.916409
vn -0.330226 -0.662256 0.672583
vn -0.124153 -0.67174 0.730309
vn 0.00880065 -0.261093 0.965274
vn -0.049743 -0.614001 0.787737
vn 0.548818 -0.0212266 0.835672
vn 0.198097 -0.338772 0.919778
vn -0.293592 0.314824 0.902602
vn -0.178409 0.263707 0.94796
vn -0.151636 0.211823 0.965473
vn 0.606141 0.140271 0.78289
vn -0.265305 0.483365 0.834249
vn -0.117942 0.474769 0.872172
vn -0.271166 0.418446 0.866817
vn 0.225747 0.366734 0.902521
vn 0.954214 -0.0520911 0.294555
vn 0.992474 -0.0964381 -0.0754699
vn 0.989503 0.00680009 0.144351
vn 0.935623 0.206738 0.286128
vn 0.974074 -0.189706 -0.123256
vn 0.974583 -0.220674 0.0386216
vn 0.902662 -0.380002 -0.20199
vn 0.989889 -0.113912 -0.084526
vn 0.924322 -0.0746696 0.374236
vn 0.936225 0.0497269 0.347865
vn 0.997878 -0.0578033 0.0299656
vn 0.933378 0.263768 -0.243375
vn 0.996416 0.0562152 0.0631996
vn 0.961677 -0.067172 0.265831
vn 0.868896 0.403964 -0.286064
vn 0.773623 0.547966 -0.318184
vn 0.0718101 0.159818 -0.984531
vn 0.285194 -0.0805099 -0.955083
vn 0.499506 -0.543957 -0.674244
vn 0.365829 -0.196923 -0.90961
vn 0.185555 0.0479131 -0.981465
vn 0.0766082 0.220452 -0.972385
vn -0.33447 0.128171 -0.93365
vn -0.394397 0.164957 -0.904013
vn 0.0209264 0.0878525 -0.995914
vn 0.297851 0.200207 -0.933382
vn 0.0434176 0.205656 -0.977661
vn -0.503757 0.304745 -0.808307
vn 0.00196886 0.288514 -0.957474
vn 0.392989 0.522082 -0.756961
vn -0.0784707 0.383726 -0.920107
vn -0.58602 0.47733 -0.65478
vn -0.92226 -0.386483 -0.00821978
vn -0.988967 0.13917 -0.0507521
vn -0.867447 0.19102 -0.459399
vn -0.85707 -0.177572 -0.483631
vn -0.662359 -0.478884 0.576151
vn -0.929982 -0.0626895 0.362221
vn -0.459674 -0.581931 0.670863
vn -0.740174 -0.287701 0.607758
vn -0.970833 0.198009 -0.135188
vn -0.789402 0.334062 -0.515021
vn -0.992549 0.0361985 0.116348
vn -0.946772 0.0725187 0.31363
vn -0.921298 0.252281 -0.295913
vn -0.77511 0.353416 -0.523738
vn -0.978085 0.204488 0.0391615
vn -0.84087 0.442012 0.312352
vn -0.242168 -0.805864 0.540312
vn -0.38748 -0.749923 0.536167
vn -0.324202 -0.712857 0.621875
vn -0.170005 -0.772174 0.612246
vn -0.204243 -0.677981 0.706135
vn 0.0883957 -0.477249 0.874311
vn 0.81932 -0.257941 0.512036
vn 0.510984 -0.338082 0.790314
vn -0.370682 -0.728851 0.575648
vn 0.967335 -0.253411 0.00684044
vn -0.52361 -0.825003 0.212609
vn 0.740537 -0.642315 0.197578
vn 0.897567 -0.284569 -0.336739
vn -0.769833 -0.579352 -0.267784
vn 0.731775 -0.375843 -0.568548
vn 0.685686 -0.540307 -0.487753
vn -0.471994 -0.362564 -0.803597
vn -0.811633 -0.16034 -0.561733
vn 0.294767 -0.539494 -0.788707
vn 0.60235 -0.585296 -0.542774
vn 0.576971 -0.680508 -0.451678
vn 0.47113 -0.73557 -0.4868
vn -0.360623 0.835221 0.41516
vn -0.15146 0.748892 0.645152
vn -0.180306 0.579949 0.794449
vn -0.325282 0.441257 0.836351
vn -0.248114 0.429826 0.868152
vn 0.272447 0.632771 0.724827
vn 0.793831 0.449209 0.40993
vn 0.920859 0.305067 0.242803
vn -0.669935 0.741484 0.0372803
vn 0.910796 0.32433 -0.255462
vn -0.787463 0.518751 -0.332866
vn 0.793469 0.450242 -0.409497
vn -0.758248 0.422697 -0.496374
vn 0.790288 0.488454 -0.369942
vn -0.579975 0.485883 -0.65387
vn -0.794217 0.398061 -0.459094
vn -0.164211 0.590377 -0.790247
vn 0.173462 0.666439 -0.7251
vn 0.531683 0.632615 -0.563127
vn 0.727545 0.604475 -0.324482
vn -0.497596 -0.62087 0.605738
vn 0.649296 -0.109714 0.752581
vn -0.49373 -0.294778 0.81813
vn 0.866206 0.15659 0.474518
vn -0.498711 0.187517 0.846242
vn 0.955284 0.0865387 0.282743
vn -0.375967 0.584605 0.718948
vn 0.944325 0.164807 0.284761
vn 0.463423 0.461252 0.756628
vn 0.665107 0.524213 0.531821
vn 0.660184 -0.619194 -0.425153
vn 0.861384 -0.13548 -0.489554
vn 0.823595 0.357491 -0.44033
vn 0.754744 0.592886 -0.280798
vn -0.749911 0.0376116 -0.660469
vn -0.745302 0.167932 -0.645232
vn -0.783252 0.307473 -0.540349
vn -0.818802 0.366777 -0.441631
vt 0.228915 0.784897
vt 0.213642 0.783998
vt 0.217767 0.771654
vt 0.230747 0.769863
vt 0.229501 0.80341
vt 0.212587 0.79863
vt 0.229435 0.821009
vt 0.212651 0.816554
vt 0.253395 0.787777
vt 0.249313 0.769282
vt 0.249354 0.807025
vt 0.245633 0.823683
vt 0.271816 0.771706
vt 0.270347 0.790387
vt 0.265854 0.811047
vt 0.26179 0.825505
vt 0.321385 0.784974
vt 0.30619 0.787149
vt 0.308051 0.772356
vt 0.321492 0.769069
vt 0.339817 0.783936
vt 0.33751 0.767701
vt 0.354346 0.76987
vt 0.356725 0.784879
vt 0.321944 0.803329
vt 0.306726 0.803593
vt 0.339636 0.80291
vt 0.355463 0.803314
vt 0.323803 0.81898
vt 0.310419 0.818056
vt 0.340787 0.818562
vt 0.354412 0.816719
vt 0.300173 0.952052
vt 0.286257 0.951587
vt 0.287189 0.938461
vt 0.299873 0.936749
vt 0.316735 0.952459
vt 0.314118 0.93568
vt 0.332529 0.950349
vt 0.330488 0.936846
vt 0.300964 0.968379
vt 0.286469 0.966913
vt 0.317445 0.968858
vt 0.333235 0.966606
vt 0.301731 0.981927
vt 0.289033 0.980054
vt 0.316205 0.982622
vt 0.332059 0.980789
vt 0.213056 0.980717
vt 0.213716 0.966292
vt 0.227495 0.968113
vt 0.229343 0.981341
vt 0.215113 0.951301
vt 0.22843 0.951701
vt 0.215894 0.937976
vt 0.229176 0.93699
vt 0.243353 0.969268
vt 0.243038 0.982182
vt 0.244793 0.95303
vt 0.244439 0.938837
vt 0.258886 0.969906
vt 0.256267 0.983191
vt 0.258358 0.954305
vt 0.257706 0.9415
vt 0.245071 0.871624
vt 0.243974 0.855586
vt 0.258027 0.856908
vt 0.261257 0.872203
vt 0.263966 0.889655
vt 0.243981 0.889071
vt 0.259145 0.905343
vt 0.241755 0.905585
vt 0.228239 0.87278
vt 0.228226 0.856374
vt 0.226814 0.889295
vt 0.2262 0.904197
vt 0.212689 0.87357
vt 0.213619 0.859525
vt 0.212073 0.889617
vt 0.213136 0.903446
vt 0.299501 0.888251
vt 0.318041 0.888568
vt 0.318949 0.904413
vt 0.300897 0.903654
vt 0.302192 0.870665
vt 0.319205 0.870994
vt 0.305488 0.856276
vt 0.320725 0.855946
vt 0.334283 0.888783
vt 0.33469 0.903279
vt 0.335166 0.872764
vt 0.336316 0.856666
vt 0.348192 0.88918
vt 0.346994 0.901613
vt 0.350602 0.873188
vt 0.349893 0.859004
vt 0.208317 0.77106
vt 0.210866 0.762448
vt 0.219854 0.76166
vt 0.204342 0.782819
vt 0.201206 0.795894
vt 0.201409 0.811432
vt 0.212659 0.830652
vt 0.202728 0.823793
vt 0.232365 0.757522
vt 0.228193 0.83591
vt 0.248704 0.756344
vt 0.24581 0.836615
vt 0.267391 0.756237
vt 0.258444 0.835628
vt 0.286869 0.775781
vt 0.282078 0.759347
vt 0.283882 0.795905
vt 0.275938 0.812633
vt 0.27156 0.825225
vt 0.267599 0.832988
vt 0.296395 0.775199
vt 0.298966 0.764556
vt 0.308469 0.76235
vt 0.319879 0.758663
vt 0.333527 0.756237
vt 0.350262 0.757231
vt 0.362413 0.759565
vt 0.367228 0.771409
vt 0.294162 0.788154
vt 0.369172 0.788143
vt 0.295441 0.803454
vt 0.367044 0.804371
vt 0.298875 0.81647
vt 0.363876 0.815544
vt 0.311458 0.829015
vt 0.301702 0.825742
vt 0.324799 0.830507
vt 0.340157 0.830678
vt 0.352936 0.826441
vt 0.362288 0.824484
vt 0.277833 0.940321
vt 0.280312 0.93122
vt 0.288381 0.928381
vt 0.300056 0.926573
vt 0.312688 0.925297
vt 0.326824 0.925145
vt 0.338333 0.926434
vt 0.341569 0.936618
vt 0.275388 0.953115
vt 0.346171 0.950296
vt 0.273192 0.968406
vt 0.346108 0.964152
vt 0.276615 0.980669
vt 0.34324 0.976996
vt 0.291687 0.99035
vt 0.282228 0.989158
vt 0.303127 0.99144
vt 0.315777 0.992779
vt 0.33045 0.991614
vt 0.340677 0.9884
vt 0.215891 0.992311
vt 0.205441 0.989544
vt 0.203601 0.978303
vt 0.201206 0.965238
vt 0.203243 0.951432
vt 0.206107 0.940272
vt 0.217134 0.92883
vt 0.206792 0.931383
vt 0.229904 0.991547
vt 0.230152 0.925145
vt 0.242239 0.992254
vt 0.243958 0.9281
vt 0.254038 0.992787
vt 0.255648 0.930638
vt 0.269546 0.982032
vt 0.265736 0.992446
vt 0.26938 0.968995
vt 0.267963 0.954237
vt 0.266286 0.943018
vt 0.264232 0.934044
vt 0.25579 0.847187
vt 0.266385 0.850014
vt 0.268196 0.858087
vt 0.272597 0.870116
vt 0.276342 0.887248
vt 0.27878 0.905362
vt 0.26903 0.917852
vt 0.254271 0.917426
vt 0.241798 0.843908
vt 0.238911 0.916997
vt 0.226563 0.844832
vt 0.225457 0.915654
vt 0.214188 0.848002
vt 0.214041 0.91374
vt 0.202453 0.86045
vt 0.205146 0.850924
vt 0.201206 0.87365
vt 0.201409 0.888469
vt 0.203402 0.901011
vt 0.204934 0.910787
vt 0.286073 0.901687
vt 0.304902 0.916861
vt 0.290307 0.914852
vt 0.286286 0.884721
vt 0.290312 0.868554
vt 0.29416 0.856145
vt 0.29814 0.84832
vt 0.307471 0.846492
vt 0.320263 0.916068
vt 0.320495 0.844755
vt 0.333499 0.914423
vt 0.336025 0.843908
vt 0.34456 0.911511
vt 0.348465 0.847166
vt 0.357272 0.900777
vt 0.354149 0.909696
vt 0.360389 0.888387
vt 0.361199 0.873743
vt 0.36052 0.860495
vt 0.358239 0.850112
mtllib rock.mtl
usemtl rock
quads
f 6/1/1 2/2/2 1/3/3 5/4/4
f 7/5/5 3/6/6 2/2/2 6/1/1
f 8/7/7 4/8/8 3/6/6 7/5/5
f 10/9/9 6/1/1 5/4/4 9/10/10
f 11/11/11 7/5/5 6/1/1 10/9/9
f 7/5/5 11/11/11 12/12/12 8/7/13
f 13/13/14 14/14/15 10/9/9 9/10/10
f 10/9/9 14/14/15 15/15/16 11/11/11
f 11/11/11 15/15/16 16/16/17 12/12/18
f 22/17/19 21/18/20 17/19/21 18/20/22
f 23/21/23 22/17/19 18/20/22 19/22/24
f 20/23/25 24/24/26 23/21/23 19/22/24
f 26/25/27 25/26/28 21/18/20 22/17/19
f 22/17/19 23/21/23 27/27/29 26/25/27
f 23/21/23 24/24/26 28/28/30 27/27/29
f 26/25/27 30/29/31 29/30/32 25/26/28
f 26/25/27 27/27/29 31/31/33 30/29/31
f 27/27/29 28/28/30 32/32/34 31/31/33
f 38/33/35 37/34/36 33/35/37 34/36/38
f 39/37/39 38/33/35 34/36/38 35/38/40
f 40/39/41 39/37/39 35/38/40 36/40/42
f 42/41/43 41/42/44 37/34/36 38/33/35
f 39/37/39 43/43/45 42/41/43 38/33/35
f 39/37/39 40/39/41 44/44/46 43/43/45
f 42/41/43 46/45/47 45/46/48 41/42/44
f 43/43/45 47/47/49 46/45/47 42/41/43
f 48/48/50 47/47/49 43/43/45 44/44/46
f 49/49/51 50/50/52 54/51/53 53/52/54
f 54/51/53 50/50/52 51/53/55 55/54/56
f 55/54/56 51/53/55 52/55/57 56/56/58
f 58/57/59 57/58/60 53/52/54 54/51/53
f 59/59/61 58/57/59 54/51/53 55/54/56
f 55/54/56 56/56/58 60/60/62 59/59/61
f 62/61/63 61/62/64 57/58/60 58/57/59
f 58/57/59 59/59/61 63/63/65 62/61/63
f 60/60/62 64/64/66 63/63/65 59/59/61
f 70/65/67 69/66/68 65/67/69 66/68/70
f 67/69/71 71/70/72 70/65/67 66/68/70
f 71/70/72 67/69/71 68/71/73 72/72/74
f 69/66/68 70/65/67 74/73/75 73/74/76
f 71/70/72 75/75/77 74/73/75 70/65/67
f 71/70/72 72/72/74 76/76/78 75/75/77
f 74/73/75 78/77/79 77/78/80 73/74/76
f 74/73/75 75/75/77 79/79/81 78/77/79
f 75/75/77 76/76/78 80/80/82 79/79/81
f 82/81/83 86/82/84 85/83/85 81/84/86
f 82/81/83 83/85/87 87/86/88 86/82/84
f 84/87/89 88/88/90 87/86/88 83/85/87
f 86/82/84 90/89/91 89/90/92 85/83/85
f 86/82/84 87/86/88 91/91/93 90/89/91
f 91/91/93 87/86/88 88/88/90 92/92/94
f 90/89/91 94/93/95 93/94/96 89/90/92
f 91/91/93 95/95/97 94/93/95 90/89/91
f 91/91/93 92/92/94 96/96/98 95/95/97
f 1/3/3 134/97/99 128/98/100 129/99/101
f 1/3/3 2/2/2 135/100/102 134/97/99
f 2/2/2 3/6/6 138/101/103 135/100/102
f 3/6/6 4/8/8 139/102/104 138/101/103
f 4/8/8 126/103/105 140/104/106 139/102/104
f 5/4/4 1/3/3 129/99/101 125/105/107
f 8/7/13 127/106/108 126/103/105 4/8/8
f 5/4/4 125/105/107 113/107/109 9/10/10
f 8/7/110 12/12/18 115/108/111 127/106/108
f 13/13/14 9/10/10 113/107/109 114/109/112
f 12/12/113 16/16/17 116/110/114 115/108/111
f 97/111/115 13/13/14 114/109/112 98/112/116
f 13/13/14 97/111/115 99/113/117 14/14/15
f 14/14/15 99/113/117 100/114/118 15/15/16
f 15/15/16 100/114/118 103/115/119 16/16/17
f 16/16/17 103/115/119 117/116/120 116/110/114
f 17/19/21 130/117/121 143/118/122 148/119/123
f 18/20/22 17/19/21 148/119/123 149/120/124
f 19/22/24 18/20/22 149/120/124 150/121/125
f 19/22/24 150/121/125 151/122/126 20/23/25
f 152/123/127 132/124/128 20/23/25 151/122/126
f 130/117/121 17/19/21 21/18/20 131/125/129
f 24/24/26 20/23/25 132/124/128 133/126/130
f 21/18/20 25/26/28 122/127/131 131/125/129
f 28/28/30 24/24/26 133/126/130 124/128/132
f 25/26/28 29/30/32 123/129/133 122/127/131
f 28/28/30 124/128/132 120/130/134 32/32/34
f 29/30/32 109/131/135 118/132/136 123/129/133
f 30/29/31 110/133/137 109/131/135 29/30/32
f 31/31/33 111/134/138 110/133/137 30/29/31
f 31/31/33 32/32/34 112/135/139 111/134/138
f 32/32/34 120/130/134 121/136/140 112/135/139
f 33/35/37 136/137/141 128/138/100 134/139/99
f 34/36/38 33/35/37 134/139/99 135/140/102
f 35/38/40 34/36/38 135/140/102 138/141/103
f 36/40/42 35/38/40 138/141/103 139/142/104
f 140/143/106 141/144/142 36/40/42 139/142/104
f 37/34/36 137/145/143 136/137/141 33/35/37
f 141/144/142 142/146/144 40/39/41 36/40/42
f 41/42/44 144/147/145 137/145/143 37/34/36
f 40/39/41 142/146/144 146/148/146 44/44/46
f 41/42/44 45/46/48 145/149/147 144/147/145
f 44/44/46 146/148/146 147/150/148 48/48/149
f 45/46/48 148/151/123 143/152/122 145/149/147
f 46/45/47 149/153/124 148/151/123 45/46/48
f 47/47/49 150/154/125 149/153/124 46/45/47
f 48/48/149 151/155/126 150/154/125 47/47/49
f 48/48/150 147/150/148 152/156/127 151/155/126
f 141/157/142 140/158/106 126/159/105 49/49/51
f 50/50/52 49/49/51 126/159/105 127/160/108
f 50/50/52 127/160/108 115/161/111 51/53/55
f 51/53/55 115/161/111 116/162/114 52/55/57
f 104/163/151 52/55/57 116/162/114 117/164/120
f 49/49/51 53/52/54 142/165/144 141/157/142
f 56/56/58 52/55/57 104/163/151 105/166/152
f 57/58/60 146/167/146 142/165/144 53/52/54
f 56/56/58 105/166/152 107/168/153 60/60/62
f 57/58/60 61/62/64 147/169/148 146/167/146
f 64/64/66 60/60/62 107/168/153 108/170/154
f 132/171/128 152/172/127 147/169/148 61/62/64
f 132/171/128 61/62/64 62/61/63 133/173/130
f 62/61/63 63/63/65 124/174/132 133/173/130
f 63/63/65 64/64/66 120/175/134 124/174/132
f 64/64/66 108/170/154 121/176/140 120/175/134
f 104/177/151 117/178/120 103/179/119 65/67/69
f 66/68/70 65/67/69 103/179/119 100/180/118
f 67/69/71 66/68/70 100/180/118 99/181/117
f 97/182/115 68/71/73 67/69/71 99/181/117
f 97/182/115 98/183/116 101/184/155 68/71/73
f 69/66/68 105/185/152 104/177/151 65/67/69
f 68/71/73 101/184/155 102/186/156 72/72/74
f 69/66/68 73/74/76 107/187/153 105/185/152
f 72/72/74 102/186/156 106/188/157 76/76/78
f 73/74/76 77/78/80 108/189/154 107/187/153
f 76/76/78 106/188/157 119/190/158 80/80/82
f 77/78/80 112/191/139 121/192/140 108/189/154
f 78/77/79 111/193/138 112/191/139 77/78/80
f 78/77/79 79/79/81 110/194/137 111/193/138
f 79/79/81 80/80/82 109/195/135 110/194/137
f 80/80/82 119/190/158 118/196/136 109/195/135
f 114/197/112 81/84/86 101/198/155 98/199/116
f 82/81/83 81/84/86 114/197/112 113/200/109
f 82/81/83 113/200/109 125/201/107 83/85/87
f 83/85/87 125/201/107 129/202/101 84/87/89
f 84/87/89 129/202/101 128/203/100 136/204/141
f 81/84/86 85/83/85 102/205/156 101/198/155
f 88/88/90 84/87/89 136/204/141 137/206/143
f 85/83/85 89/90/92 106/207/157 102/205/156
f 88/88/90 137/206/143 144/208/145 92/92/94
f 89/90/92 93/94/96 119/209/158 106/207/157
f 92/92/94 144/208/145 145/210/147 96/96/98
f 123/211/133 118/212/136 119/209/158 93/94/96
f 94/93/95 122/213/131 123/211/133 93/94/96
f 94/93/95 95/95/97 131/214/129 122/213/131
f 95/95/97 96/96/98 130/215/121 131/214/129
f 145/210/147 143/216/122 130/215/121 96/96/98
