# OBJ written from E:\3d\3D-Objekte\todo\rocks\meshes\rock9.obj
o Mesh
v -0.858884 -0.612176 0.904813
v -0.533011 -0.624767 1.06954
v -0.178252 -0.672562 1.22951
v 0.220399 -0.64439 1.29743
v -0.691865 -0.631624 0.184747
v -0.332229 -0.660373 0.308129
v 0.085084 -0.746424 0.45659
v 0.538163 -0.780274 0.650678
v -0.562516 -0.731224 -0.584588
v -0.124228 -0.772346 -0.575879
v 0.364968 -0.851116 -0.482708
v 0.688136 -0.700315 -0.262983
v -0.280278 -0.630437 -1.25694
v 0.0944529 -0.753427 -1.36519
v 0.493011 -0.717162 -1.2077
v 0.748704 -0.600718 -0.918008
v -0.989295 0.624763 1.05127
v -0.69654 0.727181 1.3414
v -0.289144 0.771317 1.57505
v 0.160106 0.652952 1.3913
v -0.950067 0.738567 0.358419
v -0.567531 0.851116 0.575295
v -0.0542746 0.712841 0.62013
v 0.309829 0.60292 0.579605
v -0.758262 0.777094 -0.615522
v -0.279527 0.813171 -0.470072
v 0.15731 0.662769 -0.247122
v 0.503263 0.581135 -0.17099
v -0.385333 0.618693 -1.29247
v -0.013566 0.633322 -1.14748
v 0.401977 0.641021 -1.07443
v 0.707025 0.564148 -0.870677
v -1.08536 -0.381271 1.64789
v -0.731189 -0.347527 1.73265
v -0.386563 -0.334693 1.87611
v -0.0308008 -0.335204 1.89965
v -1.10603 -0.150352 1.70673
v -0.84957 -0.134058 2.0773
v -0.454106 -0.107575 2.24215
v -0.018733 -0.115149 2.29561
v -1.13537 0.0873384 1.74348
v -0.909348 0.149568 2.23119
v -0.490817 0.175867 2.42328
v -0.0404215 0.155057 2.21373
v -1.20506 0.345449 1.86635
v -0.99364 0.475559 2.37612
v -0.500693 0.467908 2.37512
v -0.0654688 0.381037 2.07815
v 0.524871 -0.33023 1.23937
v 0.766967 -0.379792 0.556127
v 0.921004 -0.363288 -0.173232
v 1.02157 -0.343182 -0.789562
v 0.591289 -0.132693 1.43791
v 0.838269 -0.141354 0.683923
v 1.06848 -0.145817 -0.161028
v 1.21728 -0.146982 -0.944029
v 0.592919 0.136865 1.60288
v 0.939536 0.157246 0.855446
v 1.24851 0.166964 -0.10591
v 1.41588 0.135138 -1.02271
v 0.471215 0.378642 1.45637
v 0.710305 0.380323 0.761059
v 0.948733 0.390871 -0.0222698
v 1.20133 0.398004 -0.844988
v 0.850619 -0.358545 -1.45731
v 0.657702 -0.442104 -1.81557
v 0.320579 -0.473185 -2.15719
v -0.0873652 -0.417172 -2.01003
v 1.08922 -0.173974 -1.83366
v 0.683757 -0.214454 -1.91911
v 0.269652 -0.192031 -2.01732
v -0.133639 -0.175409 -2.14825
v 1.08097 0.0980685 -1.87643
v 0.718669 0.075052 -2.1112
v 0.274644 0.0981544 -2.33218
v -0.16812 0.0930571 -2.1326
v 1.18598 0.418622 -2.07106
v 0.815259 0.436266 -2.42328
v 0.254544 0.41175 -2.32459
v -0.223552 0.376051 -2.14418
v -0.699162 -0.414501 -1.35181
v -0.989123 -0.47022 -0.668905
v -1.1356 -0.42863 0.149327
v -1.25019 -0.379854 0.858269
v -0.70752 -0.160691 -1.31377
v -1.12116 -0.197991 -0.732667
v -1.20796 -0.168445 0.150777
v -1.41588 -0.147628 0.9596
v -0.757752 0.0865882 -1.34396
v -1.2249 0.115858 -0.803633
v -1.39969 0.125262 0.180095
v -1.38621 0.117707 0.947025
v -0.789941 0.350595 -1.39875
v -1.05593 0.361914 -0.634738
v -1.15697 0.329045 0.175684
v -1.34033 0.34676 0.911231
v -0.365899 -0.493412 -1.53316
v -0.422849 -0.357688 -1.7264
v -0.419909 -0.151291 -1.69043
v -0.0764303 -0.559869 -1.68519
v 0.250773 -0.631511 -1.78563
v 0.532538 -0.582652 -1.52827
v 0.717473 -0.486322 -1.25918
v 1.0484 -0.324472 -1.25756
v 1.20625 -0.131547 -1.43637
v -0.511979 0.49076 -1.76741
v -0.428422 0.0495715 -1.67435
v -0.503531 0.264136 -1.69734
v -0.187394 0.479137 -1.67157
v 0.136825 0.512748 -1.64645
v 0.600556 0.585189 -1.82892
v 0.843551 0.533512 -1.53516
v 1.04415 0.478083 -1.25282
v 1.19105 0.0909884 -1.41922
v 1.25668 0.354073 -1.4936
v -0.85509 -0.630416 -0.534831
v -0.596465 -0.569506 -1.14874
v 0.767076 -0.511608 -0.128318
v 0.880509 -0.486031 -0.6765
v 0.879357 -0.447682 -1.06602
v -0.92121 0.543769 -0.509508
v -0.771398 0.605078 -1.33883
v 0.756286 0.524765 -0.0195862
v 0.908687 0.5138 -0.656059
v -1.04626 -0.539493 0.741552
v -0.967061 -0.584433 0.146496
v 0.520448 -0.519904 1.14053
v 0.68044 -0.560734 0.513193
v -1.1937 0.5126 0.833785
v -1.05737 0.504066 0.178843
v 0.387799 0.518434 1.21779
v 0.559915 0.514877 0.617651
v -1.24003 -0.538286 1.33572
v -1.3073 -0.340906 1.41286
v -1.27065 -0.129814 1.37397
v -0.912024 -0.525423 1.3391
v -0.599626 -0.490506 1.42793
v -0.311181 -0.488567 1.54158
v -0.00720882 -0.492947 1.60406
v 0.277444 -0.469318 1.59827
v 0.299729 -0.320322 1.87128
v 0.358163 -0.109571 2.03285
v -1.32796 0.50071 1.43529
v -1.26062 0.0762222 1.362
v -1.36201 0.29702 1.477
v -1.09899 0.535002 1.64779
v -0.840487 0.63449 1.97465
v -0.462146 0.666104 2.08736
v -0.0754499 0.553849 1.82446
v 0.179776 0.47426 1.6295
v 0.286868 0.126077 1.96267
v 0.211293 0.315669 1.7899
vn -0.140686 -0.988687 0.0520197
vn -0.172351 -0.976212 0.131548
vn -0.0865673 -0.994909 0.0515976
vn -0.166964 -0.984877 0.0462592
vn -0.146917 -0.98761 0.0551466
vn -0.147478 -0.966918 0.208133
vn 0.468879 -0.855237 0.220733
vn 0.382974 -0.78732 0.483176
vn -0.126295 -0.991918 0.0121499
vn -0.218521 -0.974986 -0.0406223
vn 0.0109137 -0.999939 -0.00190813
vn 0.528758 -0.848651 0.014378
vn -0.281358 -0.925342 -0.254126
vn -0.116988 -0.975835 -0.184551
vn 0.291271 -0.943523 -0.157882
vn 0.537899 -0.834952 -0.116273
vn 0.0327844 0.999226 0.0217582
vn -0.439202 0.896806 -0.0533011
vn -0.313103 0.949664 0.0102083
vn -0.158161 0.985175 0.0664494
vn 0.250729 0.967994 0.0110506
vn 0.181683 0.977504 0.107133
vn 0.390731 0.898555 0.19982
vn 0.255638 0.966742 0.00770487
vn 0.125007 0.991049 -0.0468568
vn -0.50142 0.819759 -0.276718
vn 0.251215 0.967316 0.0345138
vn 0.213165 0.976711 0.0244015
vn 0.0851026 0.989407 -0.117606
vn -0.212973 0.913885 -0.345624
vn 0.1917 0.98144 0.00525629
vn 0.230936 0.972786 0.0188443
vn -0.467787 -0.688254 0.55451
vn -0.777101 -0.428553 0.460929
vn -0.432708 -0.784228 0.44469
vn -0.190052 -0.886771 0.421328
vn -0.173762 -0.71626 0.675854
vn -0.0961638 -0.888555 0.448578
vn 0.133209 -0.607063 0.783409
vn 0.0143955 -0.885125 0.465131
vn -0.536489 -0.468597 0.701852
vn -0.865404 -0.338859 0.369121
vn -0.00757406 -0.35271 0.935702
vn 0.322603 -0.0380911 0.945768
vn -0.717414 -0.0169892 0.69644
vn -0.931168 0.197528 0.306446
vn -0.46235 -0.45729 0.759683
vn 0.360141 0.17011 0.917257
vn 0.394388 0.173223 0.90247
vn 0.525117 0.574164 0.628162
vn 0.294069 0.428683 0.854257
vn 0.84454 -0.451676 0.287648
vn 0.855831 -0.397978 0.330403
vn 0.89221 -0.320086 0.318602
vn 0.863153 -0.434695 0.256917
vn 0.787575 -0.595593 0.1581
vn 0.841984 -0.497976 0.207566
vn 0.707234 -0.70497 0.0532635
vn 0.797414 -0.600065 0.0636613
vn 0.91766 0.162791 0.36249
vn 0.865865 0.19462 0.460871
vn 0.966477 0.0936501 0.239065
vn 0.972633 -0.208762 0.101996
vn 0.582298 0.782792 0.219468
vn 0.520973 0.774086 0.359692
vn 0.617115 0.768862 0.167391
vn 0.759082 0.643436 0.0989168
vn 0.513078 -0.848433 -0.13005
vn 0.503673 -0.846287 -0.173527
vn 0.368099 -0.752926 -0.545532
vn 0.663815 -0.661604 -0.348755
vn 0.309306 -0.155281 -0.938199
vn 0.289748 -0.313583 -0.904274
vn 0.227958 0.46647 -0.854658
vn 0.259261 0.467417 -0.845166
vn 0.290285 0.467864 -0.834768
vn -0.17792 -0.160303 -0.9709
vn 0.398914 -0.520814 -0.754732
vn 0.236868 -0.653289 -0.719102
vn 0.740868 -0.449888 -0.498714
vn 0.00296746 -0.565177 -0.824964
vn -0.404829 -0.263718 -0.875538
vn -0.55297 -0.293688 -0.779725
vn 0.216276 -0.670767 -0.709433
vn 0.749003 -0.539906 -0.384053
vn -0.24567 -0.338117 -0.908473
vn -0.265513 0.527618 -0.806921
vn -0.691611 0.189764 -0.696896
vn -0.756846 -0.616759 -0.216315
vn -0.858088 -0.41845 -0.297632
vn -0.799666 -0.259842 -0.54131
vn -0.705445 -0.538448 -0.460891
vn -0.812027 -0.572409 -0.113844
vn -0.902663 -0.396106 -0.168224
vn -0.867541 -0.46925 -0.164853
vn -0.943552 -0.327712 -0.0481131
vn -0.918338 0.214829 -0.332421
vn -0.81416 -0.0462279 -0.578797
vn -0.977342 0.0143439 -0.211178
vn -0.983664 -0.170644 -0.0573277
vn -0.810481 0.563167 -0.161132
vn -0.89546 0.10111 -0.433507
vn -0.834351 0.524257 -0.170333
vn -0.975362 0.0980294 -0.197636
vn -0.518839 -0.85421 -0.033632
vn -0.494351 -0.863232 -0.102209
vn -0.124173 -0.96992 0.209369
vn -0.133034 -0.93683 0.3235
vn -0.107061 -0.916116 0.386355
vn 0.156616 -0.838764 0.521484
vn 0.834772 -0.296557 0.463906
vn 0.586288 -0.592846 0.552087
vn -0.462284 -0.886517 -0.0195287
vn 0.863688 -0.425874 0.269583
vn -0.497055 -0.853566 -0.156084
vn 0.750106 -0.657534 0.0706421
vn -0.408006 -0.85251 -0.326739
vn 0.593313 -0.804896 -0.0110346
vn -0.373828 -0.858256 -0.351639
vn -0.344562 -0.866635 -0.360861
vn -0.0265421 -0.936503 -0.349652
vn 0.449825 -0.863935 -0.22644
vn 0.487824 -0.854929 -0.176424
vn 0.443061 -0.889823 -0.109145
vn -0.721626 0.692264 -0.00511755
vn -0.487054 0.869481 0.0823491
vn -0.676079 0.720128 -0.155991
vn -0.301866 0.940679 0.154922
vn 0.186764 0.918635 0.348179
vn 0.514035 0.73723 0.438474
vn 0.499238 0.747814 0.437647
vn 0.450448 0.850303 0.272178
vn -0.743929 0.653648 -0.138974
vn 0.416894 0.903314 0.101108
vn -0.883693 0.405328 -0.234086
vn 0.355882 0.929483 0.0970028
vn -0.816137 0.377263 -0.437713
vn 0.31365 0.948768 0.0382402
vn -0.0306997 0.975625 -0.217289
vn -0.00291063 0.965774 -0.259369
vn -0.0414439 0.986783 -0.156655
vn 0.0821751 0.992629 -0.0890751
vn 0.264255 0.964349 -0.0141453
vn 0.333459 0.942715 0.00961989
vn -0.824785 -0.546432 0.145401
vn 0.553119 -0.694841 0.459625
vn -0.91867 -0.225091 0.324623
vn 0.713044 -0.386568 0.584922
vn -0.95325 -0.20959 0.217685
vn 0.695878 0.374757 0.612626
vn -0.997883 0.00152101 0.0650229
vn 0.502327 0.718423 0.481182
vn 0.50143 0.392213 0.771192
vn -0.674708 0.614623 0.408666
vn -0.331342 0.913697 0.235309
vn 0.34856 0.65691 0.668561
vn 0.559161 -0.824646 -0.0854279
vn 0.810242 -0.577229 -0.101559
vn 0.94725 -0.309074 -0.0847983
vn 0.902748 0.429986 -0.0125835
vn 0.0603984 -0.922325 -0.381664
vn -0.52114 -0.736568 -0.431138
vn -0.668788 -0.549362 -0.500924
vn -0.574236 -0.485082 -0.659506
vn -0.816013 -0.168485 -0.552933
vn -0.796575 -0.180908 -0.576837
vn -0.808537 -0.199171 -0.553713
vn 0.276449 0.960582 -0.0292936
vn 0.041507 0.989758 -0.136588
vn -0.233736 0.817275 -0.526716
vn -0.835327 -0.190581 -0.515662
vn -0.806393 -0.201925 -0.555839
vt 0.690433 0.62947
vt 0.692535 0.645217
vt 0.677868 0.644371
vt 0.675406 0.629661
vt 0.708181 0.627256
vt 0.708242 0.643651
vt 0.7258 0.625674
vt 0.724348 0.640911
vt 0.688948 0.610085
vt 0.672783 0.612999
vt 0.707764 0.60835
vt 0.723899 0.608508
vt 0.673897 0.596952
vt 0.689001 0.594284
vt 0.705516 0.593098
vt 0.720973 0.593983
vt 0.633701 0.531549
vt 0.631885 0.514496
vt 0.647026 0.516622
vt 0.649459 0.533048
vt 0.632075 0.552155
vt 0.651342 0.550485
vt 0.646617 0.567011
vt 0.629601 0.567291
vt 0.613652 0.531697
vt 0.61368 0.513197
vt 0.613879 0.552108
vt 0.613714 0.566952
vt 0.596697 0.534379
vt 0.596839 0.517306
vt 0.596772 0.551442
vt 0.598773 0.566548
vt 0.628853 0.688055
vt 0.629015 0.67327
vt 0.64312 0.673028
vt 0.643538 0.68787
vt 0.628389 0.705005
vt 0.643881 0.703237
vt 0.629392 0.721848
vt 0.64459 0.717727
vt 0.611737 0.688727
vt 0.614161 0.672767
vt 0.611364 0.706481
vt 0.613128 0.722313
vt 0.592621 0.689647
vt 0.597698 0.674078
vt 0.59409 0.706773
vt 0.598908 0.72181
vt 0.693464 0.691441
vt 0.677784 0.693431
vt 0.679728 0.679942
vt 0.694623 0.676376
vt 0.71011 0.676315
vt 0.710757 0.690409
vt 0.723314 0.677125
vt 0.726823 0.690443
vt 0.692865 0.710408
vt 0.677008 0.710281
vt 0.711131 0.710274
vt 0.727757 0.708069
vt 0.693273 0.726949
vt 0.678791 0.72633
vt 0.709529 0.72716
vt 0.726421 0.724483
vt 0.733325 0.514747
vt 0.735925 0.528352
vt 0.72233 0.52808
vt 0.719189 0.51182
vt 0.719816 0.545434
vt 0.736347 0.545503
vt 0.73293 0.560198
vt 0.717794 0.562408
vt 0.704717 0.528478
vt 0.703196 0.511676
vt 0.701748 0.547382
vt 0.701449 0.563336
vt 0.682459 0.527884
vt 0.683844 0.511885
vt 0.682873 0.546839
vt 0.684062 0.563248
vt 0.592182 0.625506
vt 0.608883 0.627793
vt 0.608198 0.644322
vt 0.593018 0.640869
vt 0.595125 0.608731
vt 0.611039 0.60984
vt 0.599375 0.594165
vt 0.614816 0.594477
vt 0.627076 0.630015
vt 0.623951 0.645919
vt 0.629678 0.611923
vt 0.631251 0.596245
vt 0.642769 0.630656
vt 0.640466 0.646509
vt 0.644378 0.613583
vt 0.645441 0.5988
vt 0.66764 0.655907
vt 0.667836 0.643596
vt 0.680314 0.654325
vt 0.694145 0.65633
vt 0.708178 0.656674
vt 0.722259 0.653345
vt 0.737467 0.638463
vt 0.733476 0.64975
vt 0.663978 0.631048
vt 0.738309 0.623057
vt 0.660875 0.616081
vt 0.736483 0.6065
vt 0.662166 0.601048
vt 0.732111 0.594539
vt 0.664688 0.590015
vt 0.675642 0.586027
vt 0.689226 0.582851
vt 0.705196 0.582822
vt 0.718917 0.583489
vt 0.728 0.58623
vt 0.657738 0.505984
vt 0.660451 0.517455
vt 0.645335 0.503885
vt 0.663734 0.533067
vt 0.6637 0.549721
vt 0.6589 0.565749
vt 0.654395 0.575904
vt 0.643404 0.578027
vt 0.632 0.498904
vt 0.62945 0.578923
vt 0.615494 0.499812
vt 0.61503 0.579063
vt 0.59912 0.502305
vt 0.601354 0.577491
vt 0.584458 0.52037
vt 0.586454 0.506393
vt 0.584137 0.533971
vt 0.580636 0.551492
vt 0.584807 0.564528
vt 0.588534 0.576264
vt 0.640518 0.661715
vt 0.652696 0.662383
vt 0.65446 0.674989
vt 0.65472 0.688818
vt 0.655472 0.702284
vt 0.655936 0.715812
vt 0.654844 0.727381
vt 0.644095 0.730595
vt 0.627319 0.661983
vt 0.630684 0.735124
vt 0.614109 0.661842
vt 0.615173 0.734092
vt 0.599057 0.66207
vt 0.601856 0.732267
vt 0.584869 0.67542
vt 0.586189 0.664122
vt 0.580636 0.69077
vt 0.580772 0.707085
vt 0.586781 0.721453
vt 0.590963 0.731009
vt 0.666208 0.681775
vt 0.6696 0.671153
vt 0.680889 0.668057
vt 0.694351 0.664643
vt 0.708875 0.665698
vt 0.721037 0.667192
vt 0.733523 0.677247
vt 0.730203 0.667883
vt 0.665169 0.696002
vt 0.737684 0.690179
vt 0.665952 0.711523
vt 0.740286 0.704836
vt 0.668091 0.725197
vt 0.739605 0.722131
vt 0.681711 0.73698
vt 0.671459 0.735538
vt 0.694852 0.738028
vt 0.709227 0.738099
vt 0.723351 0.736662
vt 0.735796 0.73302
vt 0.731538 0.504184
vt 0.741173 0.507375
vt 0.742889 0.516669
vt 0.746798 0.529187
vt 0.748218 0.544953
vt 0.744515 0.558869
vt 0.740959 0.570288
vt 0.730697 0.57298
vt 0.718295 0.50058
vt 0.717036 0.574582
vt 0.703906 0.499115
vt 0.703404 0.575164
vt 0.685679 0.498904
vt 0.688284 0.57464
vt 0.668758 0.51329
vt 0.673271 0.500766
vt 0.667493 0.529074
vt 0.667664 0.5483
vt 0.672963 0.561353
vt 0.675194 0.573157
vt 0.593315 0.65234
vt 0.583322 0.649144
vt 0.581607 0.637836
vt 0.580636 0.622756
vt 0.583554 0.607801
vt 0.586927 0.595132
vt 0.589782 0.583066
vt 0.60239 0.582888
vt 0.606607 0.655534
vt 0.61621 0.582822
vt 0.619736 0.657593
vt 0.630128 0.584351
vt 0.634049 0.656779
vt 0.644588 0.586582
vt 0.648404 0.657956
vt 0.656365 0.64727
vt 0.655536 0.629901
vt 0.655595 0.615173
vt 0.656835 0.601515
vt 0.657116 0.589298
mtllib rock.mtl
usemtl rock
f 6/1/1 2/2/2 1/3/3
f 6/1/1 1/3/3 5/4/4
f 7/5/5 3/6/6 2/2/2
f 7/5/5 2/2/2 6/1/1
f 7/5/5 8/7/7 4/8/8
f 7/5/5 4/8/8 3/6/6
f 10/9/9 6/1/1 5/4/4
f 10/9/9 5/4/4 9/10/10
f 11/11/11 7/5/5 6/1/1
f 11/11/11 6/1/1 10/9/9
f 7/5/5 11/11/11 12/12/12
f 7/5/5 12/12/12 8/7/7
f 10/9/9 9/10/10 13/13/13
f 10/9/9 13/13/13 14/14/14
f 10/9/9 14/14/14 15/15/15
f 10/9/9 15/15/15 11/11/11
f 11/11/11 15/15/15 16/16/16
f 11/11/11 16/16/16 12/12/12
f 22/17/17 21/18/18 17/19/19
f 22/17/17 17/19/19 18/20/20
f 23/21/21 22/17/17 18/20/20
f 23/21/21 18/20/20 19/22/22
f 19/22/22 20/23/23 24/24/24
f 19/22/22 24/24/24 23/21/21
f 26/25/25 25/26/26 21/18/18
f 26/25/25 21/18/18 22/17/17
f 22/17/17 23/21/21 27/27/27
f 22/17/17 27/27/27 26/25/25
f 27/27/27 23/21/21 24/24/24
f 27/27/27 24/24/24 28/28/28
f 25/26/26 26/25/25 30/29/29
f 25/26/26 30/29/29 29/30/30
f 27/27/27 31/31/31 30/29/29
f 27/27/27 30/29/29 26/25/25
f 27/27/27 28/28/28 32/32/32
f 27/27/27 32/32/32 31/31/31
f 38/33/33 37/34/34 33/35/35
f 38/33/33 33/35/35 34/36/36
f 39/37/37 38/33/33 34/36/36
f 39/37/37 34/36/36 35/38/38
f 40/39/39 39/37/37 35/38/38
f 40/39/39 35/38/38 36/40/40
f 42/41/41 41/42/42 37/34/34
f 42/41/41 37/34/34 38/33/33
f 42/41/41 38/33/33 39/37/37
f 42/41/41 39/37/37 43/43/43
f 39/37/37 40/39/39 44/44/44
f 39/37/37 44/44/44 43/43/43
f 42/41/41 46/45/45 45/46/46
f 42/41/41 45/46/46 41/42/42
f 46/45/47 42/41/41 43/43/43
f 46/45/47 43/43/43 47/47/48
f 43/43/43 44/44/49 48/48/50
f 43/43/43 48/48/50 47/47/51
f 54/49/52 53/50/53 49/51/54
f 54/49/52 49/51/54 50/52/55
f 54/49/52 50/52/55 51/53/56
f 54/49/52 51/53/56 55/54/57
f 55/54/57 51/53/56 52/55/58
f 55/54/57 52/55/58 56/56/59
f 58/57/60 57/58/61 53/50/53
f 58/57/60 53/50/53 54/49/52
f 59/59/62 58/57/60 54/49/52
f 59/59/62 54/49/52 55/54/57
f 59/59/62 55/54/57 56/56/59
f 59/59/62 56/56/59 60/60/63
f 58/57/60 62/61/64 61/62/65
f 58/57/60 61/62/65 57/58/61
f 59/59/62 63/63/66 62/61/64
f 59/59/62 62/61/64 58/57/60
f 60/60/63 64/64/67 63/63/66
f 60/60/63 63/63/66 59/59/62
f 65/65/68 66/66/69 70/67/70
f 65/65/68 70/67/70 69/68/71
f 71/69/72 70/67/73 66/66/74
f 71/69/72 66/66/74 67/70/75
f 71/69/72 67/70/75 68/71/76
f 71/69/72 68/71/76 72/72/77
f 70/67/78 74/73/79 73/74/80
f 70/67/78 73/74/80 69/68/71
f 75/75/81 74/73/79 70/67/78
f 75/75/81 70/67/78 71/69/72
f 71/69/72 72/72/82 76/76/83
f 71/69/72 76/76/83 75/75/81
f 78/77/84 77/78/85 73/74/80
f 78/77/84 73/74/80 74/73/79
f 78/77/84 74/73/79 75/75/81
f 78/77/84 75/75/81 79/79/86
f 79/79/87 75/75/81 76/76/83
f 79/79/87 76/76/83 80/80/88
f 82/81/89 86/82/90 85/83/91
f 82/81/89 85/83/91 81/84/92
f 86/82/90 82/81/89 83/85/93
f 86/82/90 83/85/93 87/86/94
f 87/86/94 83/85/93 84/87/95
f 87/86/94 84/87/95 88/88/96
f 86/82/90 90/89/97 89/90/98
f 86/82/90 89/90/98 85/83/91
f 90/89/97 86/82/90 87/86/94
f 90/89/97 87/86/94 91/91/99
f 87/86/94 88/88/96 92/92/100
f 87/86/94 92/92/100 91/91/99
f 94/93/101 93/94/102 89/90/98
f 94/93/101 89/90/98 90/89/97
f 91/91/99 95/95/103 94/93/101
f 91/91/99 94/93/101 90/89/97
f 96/96/104 95/95/103 91/91/99
f 96/96/104 91/91/99 92/92/100
f 133/97/105 125/98/106 1/3/3
f 133/97/105 1/3/3 136/99/107
f 1/3/3 2/2/2 137/100/108
f 1/3/3 137/100/108 136/99/107
f 2/2/2 3/6/6 138/101/109
f 2/2/2 138/101/109 137/100/108
f 4/8/8 139/102/110 138/101/109
f 4/8/8 138/101/109 3/6/6
f 4/8/8 127/103/111 140/104/112
f 4/8/8 140/104/112 139/102/110
f 5/4/4 1/3/3 125/98/106
f 5/4/4 125/98/106 126/105/113
f 8/7/7 128/106/114 127/103/111
f 8/7/7 127/103/111 4/8/8
f 9/10/10 5/4/4 126/105/113
f 9/10/10 126/105/113 116/107/115
f 8/7/7 12/12/12 118/108/116
f 8/7/7 118/108/116 128/106/114
f 9/10/10 116/107/115 117/109/117
f 9/10/10 117/109/117 13/13/13
f 16/16/16 119/110/118 118/108/116
f 16/16/16 118/108/116 12/12/12
f 13/13/13 117/109/117 97/111/119
f 13/13/13 97/111/119 100/112/120
f 14/14/14 13/13/13 100/112/120
f 14/14/14 100/112/120 101/113/121
f 14/14/14 101/113/121 102/114/122
f 14/14/14 102/114/122 15/15/15
f 15/15/15 102/114/122 103/115/123
f 15/15/15 103/115/123 16/16/16
f 120/116/124 119/110/118 16/16/16
f 120/116/124 16/16/16 103/115/123
f 143/117/125 146/118/126 17/19/19
f 143/117/125 17/19/19 129/119/127
f 18/20/20 17/19/19 146/118/126
f 18/20/20 146/118/126 147/120/128
f 18/20/20 147/120/128 148/121/129
f 18/20/20 148/121/129 19/22/22
f 19/22/22 148/121/129 149/122/130
f 19/22/22 149/122/130 20/23/23
f 149/122/130 150/123/131 131/124/132
f 149/122/130 131/124/132 20/23/23
f 129/119/127 17/19/19 21/18/18
f 129/119/127 21/18/18 130/125/133
f 24/24/24 20/23/23 131/124/132
f 24/24/24 131/124/132 132/126/134
f 21/18/18 25/26/26 121/127/135
f 21/18/18 121/127/135 130/125/133
f 28/28/28 24/24/24 132/126/134
f 28/28/28 132/126/134 123/128/136
f 25/26/26 29/30/30 122/129/137
f 25/26/26 122/129/137 121/127/135
f 28/28/28 123/128/136 124/130/138
f 28/28/28 124/130/138 32/32/32
f 122/129/137 29/30/30 109/131/139
f 122/129/137 109/131/139 106/132/140
f 30/29/29 110/133/141 109/131/139
f 30/29/29 109/131/139 29/30/30
f 31/31/31 111/134/142 110/133/141
f 31/31/31 110/133/141 30/29/29
f 31/31/31 32/32/32 112/135/143
f 31/31/31 112/135/143 111/134/142
f 112/135/143 32/32/32 124/130/138
f 112/135/143 124/130/138 113/136/144
f 33/35/35 134/137/145 133/138/105
f 33/35/35 133/138/105 136/139/107
f 33/35/35 136/139/107 137/140/108
f 33/35/35 137/140/108 34/36/36
f 35/38/38 34/36/36 137/140/108
f 35/38/38 137/140/108 138/141/109
f 35/38/38 138/141/109 139/142/110
f 35/38/38 139/142/110 36/40/40
f 36/40/40 139/142/110 140/143/112
f 36/40/40 140/143/112 141/144/146
f 33/35/35 37/34/34 135/145/147
f 33/35/35 135/145/147 134/137/145
f 36/40/40 141/144/146 142/146/148
f 36/40/40 142/146/148 40/39/39
f 41/42/42 144/147/149 135/145/147
f 41/42/42 135/145/147 37/34/34
f 40/39/39 142/146/148 151/148/150
f 40/39/39 151/148/150 44/44/49
f 41/42/42 45/46/46 145/149/151
f 41/42/42 145/149/151 144/147/149
f 151/148/150 152/150/152 48/48/50
f 151/148/150 48/48/50 44/44/153
f 45/46/46 146/151/126 143/152/125
f 45/46/46 143/152/125 145/149/151
f 46/45/154 147/153/128 146/151/126
f 46/45/154 146/151/126 45/46/46
f 46/45/155 47/47/156 148/154/129
f 46/45/155 148/154/129 147/153/128
f 47/47/51 48/48/50 149/155/130
f 47/47/51 149/155/130 148/154/129
f 48/48/50 152/150/152 150/156/131
f 48/48/50 150/156/131 149/155/130
f 49/51/54 141/157/146 140/158/112
f 49/51/54 140/158/112 127/159/111
f 49/51/54 127/159/111 128/160/114
f 49/51/54 128/160/114 50/52/55
f 51/53/56 50/52/55 128/160/114
f 51/53/56 128/160/114 118/161/116
f 51/53/56 118/161/116 119/162/118
f 51/53/56 119/162/118 52/55/58
f 104/163/157 52/55/58 119/162/118
f 104/163/157 119/162/118 120/164/124
f 141/157/146 49/51/54 53/50/53
f 141/157/146 53/50/53 142/165/148
f 56/56/59 52/55/58 104/163/157
f 56/56/59 104/163/157 105/166/158
f 53/50/53 57/58/61 151/167/150
f 53/50/53 151/167/150 142/165/148
f 56/56/59 105/166/158 114/168/159
f 56/56/59 114/168/159 60/60/63
f 57/58/61 61/62/65 152/169/152
f 57/58/61 152/169/152 151/167/150
f 115/170/160 64/64/67 60/60/63
f 115/170/160 60/60/63 114/168/159
f 61/62/65 131/171/132 150/172/131
f 61/62/65 150/172/131 152/169/152
f 62/61/64 132/173/134 131/171/132
f 62/61/64 131/171/132 61/62/65
f 62/61/64 63/63/66 123/174/136
f 62/61/64 123/174/136 132/173/134
f 64/64/67 124/175/138 123/174/136
f 64/64/67 123/174/136 63/63/66
f 64/64/67 115/170/160 113/176/144
f 64/64/67 113/176/144 124/175/138
f 104/177/157 120/178/124 103/179/123
f 104/177/157 103/179/123 65/65/68
f 66/66/69 65/65/68 103/179/123
f 66/66/69 103/179/123 102/180/122
f 67/70/161 66/66/69 102/180/122
f 67/70/161 102/180/122 101/181/121
f 67/70/161 101/181/121 100/182/120
f 67/70/161 100/182/120 68/71/162
f 68/71/162 100/182/120 97/183/119
f 68/71/162 97/183/119 98/184/163
f 69/68/71 105/185/158 104/177/157
f 69/68/71 104/177/157 65/65/68
f 72/72/164 68/71/162 98/184/163
f 72/72/164 98/184/163 99/186/165
f 73/74/80 114/187/159 105/185/158
f 73/74/80 105/185/158 69/68/71
f 72/72/82 99/186/165 107/188/166
f 72/72/82 107/188/166 76/76/83
f 77/78/85 115/189/160 114/187/159
f 77/78/85 114/187/159 73/74/80
f 76/76/83 107/188/166 108/190/167
f 76/76/83 108/190/167 80/80/88
f 77/78/168 112/191/143 113/192/144
f 77/78/168 113/192/144 115/189/160
f 77/78/168 78/77/169 111/193/142
f 77/78/168 111/193/142 112/191/143
f 79/79/170 110/194/141 111/193/142
f 79/79/170 111/193/142 78/77/169
f 79/79/170 80/80/88 109/195/139
f 79/79/170 109/195/139 110/194/141
f 108/190/167 106/196/171 109/195/172
f 108/190/167 109/195/172 80/80/88
f 81/84/92 98/197/163 97/198/119
f 81/84/92 97/198/119 117/199/117
f 82/81/89 81/84/92 117/199/117
f 82/81/89 117/199/117 116/200/115
f 83/85/93 82/81/89 116/200/115
f 83/85/93 116/200/115 126/201/113
f 84/87/95 83/85/93 126/201/113
f 84/87/95 126/201/113 125/202/106
f 133/203/105 134/204/145 84/87/95
f 133/203/105 84/87/95 125/202/106
f 81/84/92 85/83/91 99/205/165
f 81/84/92 99/205/165 98/197/163
f 84/87/95 134/204/145 135/206/147
f 84/87/95 135/206/147 88/88/96
f 85/83/91 89/90/98 107/207/166
f 85/83/91 107/207/166 99/205/165
f 92/92/100 88/88/96 135/206/147
f 92/92/100 135/206/147 144/208/149
f 89/90/98 93/94/102 108/209/167
f 89/90/98 108/209/167 107/207/166
f 145/210/151 96/96/104 92/92/100
f 145/210/151 92/92/100 144/208/149
f 106/211/171 108/209/167 93/94/102
f 106/211/171 93/94/102 122/212/137
f 122/212/137 93/94/102 94/93/101
f 122/212/137 94/93/101 121/213/135
f 94/93/101 95/95/103 130/214/133
f 94/93/101 130/214/133 121/213/135
f 95/95/103 96/96/104 129/215/127
f 95/95/103 129/215/127 130/214/133
f 143/216/125 129/215/127 96/96/104
f 143/216/125 96/96/104 145/210/151
