# OBJ written from E:\3d\3D-Objekte\todo\rocks\meshes\rock15.obj

o Mesh
v -0.921628 -1.23378 2.10577
v 0.12947 -1.31174 1.91677
v 1.25047 -1.30079 1.44414
v 2.02621 -1.22376 1.02061
v -1.38699 -1.32726 0.847144
v -0.274371 -1.42944 0.64936
v 1.06314 -1.48003 0.476406
v 1.92411 -1.31685 0.248737
v -1.90828 -1.40687 -0.740388
v -0.80785 -1.4462 -0.836219
v 0.476386 -1.48771 -0.757492
v 1.47566 -1.28614 -0.569797
v -1.87674 -1.16239 -1.80535
v -1.11134 -1.32688 -1.93828
v -0.0654883 -1.36411 -1.72368
v 0.894969 -1.19242 -1.29263
v -0.805635 0.943227 0.868671
v -0.238621 0.803003 0.874012
v 0.372146 0.564203 0.835217
v 0.978836 0.257415 0.722594
v -0.957987 1.12428 0.236188
v -0.396827 1.21517 0.246647
v 0.291164 0.900115 0.245757
v 0.95436 0.579898 0.173642
v -1.03249 1.29175 -0.470918
v -0.418096 1.48771 -0.455397
v 0.268575 1.05698 -0.439159
v 0.926513 0.916476 -0.462452
v -1.05032 1.28712 -1.12472
v -0.423616 1.25222 -1.10341
v 0.206295 1.11352 -1.04606
v 0.760291 0.933137 -0.967707
v -0.606626 -0.812896 3.07244
v 0.381693 -0.90276 2.73433
v 1.40733 -0.958252 2.2386
v 2.36358 -1.04798 1.75012
v -0.634372 -0.389696 2.8719
v 0.352936 -0.550369 2.85139
v 1.5243 -0.755039 2.47467
v 2.12913 -0.808701 1.66364
v -0.68375 0.0528578 2.41809
v 0.147862 -0.121765 2.48915
v 1.15599 -0.417265 2.29593
v 1.8086 -0.56239 1.59012
v -0.69475 0.415834 1.86946
v -0.135044 0.304891 1.90785
v 0.593742 0.032299 1.67516
v 1.26082 -0.210823 1.33759
v 2.81152 -1.01737 0.686035
v 2.8668 -1.02116 0.105458
v 2.38603 -0.940861 -0.501489
v 1.739 -0.789182 -1.06954
v 2.83397 -0.829995 0.716786
v 2.64833 -0.716331 0.10882
v 2.34366 -0.569479 -0.51856
v 1.81569 -0.38242 -1.09046
v 2.4791 -0.583539 0.756061
v 2.45051 -0.392856 0.150134
v 2.11701 -0.141239 -0.483749
v 1.67011 0.0609195 -1.02334
v 1.8249 -0.240385 0.666682
v 1.81702 -6.92122e-005 0.115465
v 1.6996 0.259752 -0.461755
v 1.43452 0.440777 -0.954603
v 0.54217 -0.738115 -1.97451
v -0.417137 -0.830813 -2.54053
v -1.43335 -0.821309 -3.07244
v -1.93203 -0.66712 -2.76697
v 0.613546 -0.27977 -1.93341
v -0.360074 -0.307497 -2.74463
v -1.30378 -0.290283 -2.99216
v -1.95811 -0.233568 -2.85499
v 0.621177 0.234605 -1.85463
v -0.150038 0.33251 -2.35236
v -1.10193 0.388433 -2.82049
v -1.78208 0.324285 -2.65403
v 0.647228 0.692764 -1.64535
v 0.0388103 0.900146 -2.05293
v -0.702407 0.78577 -1.9903
v -1.39598 0.842405 -2.14149
v -2.8668 -0.73669 -2.11165
v -2.54626 -0.739919 -0.624927
v -2.29796 -0.796803 0.896874
v -1.80519 -0.680489 2.09013
v -2.78267 -0.194701 -2.11689
v -2.70791 -0.239845 -0.758328
v -2.48979 -0.259422 0.782354
v -1.89887 -0.19716 1.95646
v -2.35373 0.347348 -1.72077
v -2.58214 0.412757 -0.7125
v -2.17963 0.337975 0.595376
v -1.79287 0.343405 1.6479
v -1.84689 0.758918 -1.25249
v -1.87203 0.855429 -0.395391
v -1.75983 0.795606 0.518286
v -1.53812 0.769801 1.30624
v -2.36692 -1.00215 -1.6292
v -1.79802 -0.981566 -2.47356
v -2.31296 -0.889759 -2.39078
v -2.44121 -0.58733 -2.59584
v -2.44491 -0.174223 -2.64865
v -1.18676 -1.08264 -2.51845
v -0.382902 -1.13586 -2.25204
v 0.482406 -1.07102 -1.84762
v 1.24875 -0.68095 -1.56023
v 1.2675 -0.28811 -1.54463
v -1.46996 1.04012 -1.58032
v -2.25214 0.301589 -2.44402
v -1.82933 0.684122 -1.91726
v -1.02782 1.20478 -1.66783
v -0.47469 1.12489 -1.60439
v -2.40501 -1.14753 -0.557087
v 1.17213 -0.987336 -1.52951
v 2.04476 -1.13027 -0.480599
v 1.51225 -1.03638 -1.00916
v -1.45548 1.04689 -0.378714
v -1.46722 1.04085 -0.995837
v 1.32722 0.567473 -0.409408
v 1.12139 0.658794 -0.837781
v 0.0755372 0.976626 -1.4768
v 0.579265 0.870739 -1.33732
v 0.947444 0.717271 -1.17907
v 1.18351 0.11703 -1.44906
v 1.08862 0.480102 -1.33629
v -1.98627 -1.11538 0.801191
v 1.3871 -0.097656 0.92254
v 2.57269 -1.17135 0.661015
v 2.46224 -1.10679 1.13793
v 2.4647 -1.17898 0.0899656
v 2.52158 -0.963852 1.14444
v 2.61711 -0.847413 1.22988
v 2.23288 -0.625509 1.18615
v 1.74252 -0.354523 1.07234
v -1.26617 1.01024 0.868222
v -1.11842 0.85418 1.41988
v -0.611476 0.642017 1.3667
v -0.134955 0.541502 1.34764
v -1.37697 1.05674 0.263785
v 0.412162 0.304188 1.25359
v 0.955325 0.0673951 1.12829
v 1.42908 0.302028 0.101782
v 1.43948 0.0498111 0.55953
v -1.60092 -1.00592 1.86359
v -0.510375 -1.15013 3.05582
v -1.24228 -0.968365 2.79106
v -1.32358 -0.633289 2.80306
v -1.32089 -0.233902 2.5483
v 0.411281 -1.17097 2.56789
v 1.28005 -1.13635 2.00672
v 2.23969 -1.20306 1.70593
v -1.30774 0.191667 2.23622
v -1.22247 0.5627 1.8062
vn -0.219556 -0.965959 0.136818
vn -0.0526594 -0.995785 0.0750982
vn -0.0170103 -0.992366 0.122147
vn -0.20535 -0.965504 0.160107
vn 0.0825005 -0.99547 0.0472586
vn 0.0563123 -0.991684 0.115726
vn 0.188376 -0.982091 0.0032731
vn 0.105367 -0.991908 0.0708273
vn -0.246264 -0.969202 0.00103415
vn -0.0457566 -0.998657 -0.0243122
vn 0.0868175 -0.990992 -0.101967
vn 0.228072 -0.951023 -0.208659
vn -0.250945 -0.953041 -0.169529
vn -0.068479 -0.972976 -0.220519
vn 0.164749 -0.927913 -0.334419
vn 0.304755 -0.866789 -0.394716
vn 0.247299 0.931754 0.265852
vn 0.296016 0.878052 0.376032
vn 0.183675 0.928782 0.321912
vn -0.0969873 0.963413 0.249858
vn 0.409057 0.811583 0.41714
vn 0.413679 0.844764 0.339477
vn 0.474714 0.777734 0.412039
vn 0.475625 0.806934 0.350199
vn -0.307084 0.942888 0.129082
vn 0.181314 0.980729 0.0727707
vn 0.404541 0.91163 0.0726472
vn 0.474657 0.872409 0.11663
vn -0.189742 0.981087 -0.0382806
vn 0.220559 0.957938 -0.183599
vn 0.329893 0.917597 -0.22178
vn 0.483487 0.84134 -0.241635
vn 0.0161312 0.2045 0.978734
vn 0.283022 -0.344188 0.895228
vn 0.274086 0.341235 0.899131
vn 0.0147188 0.583924 0.811675
vn 0.068042 -0.772545 0.631304
vn 0.156593 -0.811718 0.562665
vn 0.533868 0.696414 0.479575
vn 0.508212 0.746938 0.428724
vn 0.427374 0.710016 0.559668
vn 0.398972 0.631279 0.665063
vn 0.231179 0.79366 0.562726
vn 0.0284001 0.778161 0.627423
vn 0.414629 0.818549 0.397568
vn 0.455092 0.830349 0.321577
vn 0.260496 0.873393 0.411493
vn 0.12571 0.86813 0.480153
vn 0.4151 0.85362 0.314683
vn 0.445014 0.838626 0.314115
vn 0.886441 0.425908 -0.181178
vn 0.852269 0.496465 0.164803
vn 0.963975 0.228842 0.135587
vn 0.892152 0.345659 -0.290833
vn 0.824521 0.191699 -0.532369
vn 0.859336 -0.397776 -0.321428
vn 0.654355 -0.421977 -0.6275
vn 0.641911 -0.295508 -0.707549
vn 0.679481 0.0864844 -0.728578
vn 0.69953 0.713077 0.04668
vn 0.55501 0.797501 0.236548
vn 0.732222 0.621031 -0.279591
vn 0.678928 0.471483 -0.562815
vn 0.532707 0.817887 0.217451
vn 0.479837 0.822408 0.305616
vn 0.613588 0.789528 -0.012435
vn 0.606995 0.721142 -0.333933
vn 0.549149 0.00631757 -0.835701
vn 0.575353 0.00820744 -0.817864
vn 0.5329 -0.284034 -0.797083
vn 0.487175 -0.410595 -0.77076
vn 0.214485 -0.24654 -0.9451
vn 0.145813 0.157695 -0.976663
vn 0.0402077 -0.500203 -0.864974
vn -0.343732 -0.471897 -0.811888
vn -0.261067 0.175794 -0.949179
vn 0.41151 0.432669 -0.802158
vn 0.569553 0.231909 -0.78856
vn -0.0219211 0.657009 -0.753564
vn -0.242543 0.670801 -0.700856
vn 0.181528 0.890627 -0.416931
vn 0.582571 0.602174 -0.545891
vn -0.0780994 0.914477 -0.39703
vn -0.173006 0.86862 -0.464293
vn -0.99905 -0.00492092 -0.0433031
vn -0.937395 -0.306264 0.16581
vn -0.989052 0.0527127 0.137831
vn -0.930182 0.326627 -0.167559
vn -0.960761 0.0404604 0.274409
vn -0.82355 -0.512147 0.243866
vn -0.849283 -0.309057 0.428021
vn -0.830574 0.201797 0.519062
vn -0.829445 0.553881 0.0723701
vn -0.697158 0.699698 -0.156186
vn -0.788406 0.559866 0.254884
vn -0.646865 0.609136 0.458822
vn -0.479003 0.877686 0.0149554
vn -0.494855 0.859382 -0.128769
vn -0.549889 0.813499 0.189321
vn -0.446028 0.817949 0.363345
vn -0.290295 -0.816208 0.499532
vn -0.6247 -0.507509 0.593451
vn -0.595623 -0.74594 0.298003
vn 0.0811651 -0.95763 0.276327
vn 0.110824 -0.937853 0.328861
vn 0.170427 -0.83139 0.52891
vn 0.271548 -0.944026 0.187286
vn 0.279367 -0.950552 0.135669
vn 0.472019 -0.863474 0.177793
vn -0.52102 -0.830031 0.198962
vn 0.275271 -0.95592 -0.102186
vn -0.661368 -0.745377 0.0836948
vn 0.337622 -0.849861 -0.404657
vn -0.494523 -0.858738 -0.134227
vn 0.492521 -0.691081 -0.52899
vn -0.187636 -0.891687 -0.411931
vn -0.280898 -0.897046 -0.341181
vn -0.0933537 -0.925615 -0.366774
vn 0.308765 -0.752241 -0.582063
vn 0.431755 -0.619973 -0.655149
vn 0.566913 -0.540014 -0.622089
vn 0.169237 0.922257 0.347564
vn 0.241359 0.902709 0.356177
vn -0.0110307 0.9648 0.262752
vn 0.288555 0.871906 0.395621
vn 0.430087 0.820233 0.377152
vn 0.470655 0.792426 0.388001
vn 0.48505 0.791357 0.37213
vn 0.520431 0.771604 0.365757
vn -0.311689 0.929232 0.198437
vn 0.54749 0.764939 0.339296
vn -0.447686 0.891878 0.0642744
vn 0.615391 0.782649 0.0935598
vn -0.453538 0.889614 -0.0537648
vn 0.605547 0.754479 -0.25313
vn -0.455341 0.880233 -0.133616
vn -0.146455 0.94059 -0.306336
vn 0.088144 0.943357 -0.319857
vn 0.208531 0.949875 -0.232921
vn 0.498974 0.805826 -0.318856
vn 0.562026 0.747148 -0.354819
vn -0.133308 -0.666745 0.733267
vn -0.649158 0.0125245 0.76055
vn -0.0198077 -0.0398901 0.999008
vn 0.248709 -0.708633 0.66029
vn 0.5123 -0.787298 0.343089
vn 0.760573 -0.569386 0.311977
vn -0.500783 0.427429 0.752675
vn 0.876899 0.312037 0.365624
vn 0.690065 0.627341 0.360906
vn -0.314009 0.70794 0.63263
vn 0.428633 0.847788 0.312296
vn -0.0834934 0.857831 0.507104
vn 0.446898 0.82934 0.335376
vn 0.646078 -0.701913 0.299836
vn 0.655217 -0.688341 -0.311253
vn 0.617266 -0.204373 -0.759746
vn 0.887317 -0.281147 0.365548
vn 0.865081 -0.446821 0.228004
vn 0.577275 0.0717629 -0.81339
vn 0.594945 0.312115 -0.740692
vn 0.584248 0.620467 -0.523139
vn -0.149321 -0.658235 -0.737855
vn -0.451636 -0.505626 -0.735097
vn -0.590529 0.297392 -0.750223
vn -0.453096 0.754834 -0.474267
vn -0.455176 0.855917 -0.2454
vn -0.825117 -0.471948 -0.31056
vn -0.93788 -0.305141 -0.165135
vt 0.806499 0.272085
vt 0.805333 0.295354
vt 0.777711 0.29332
vt 0.779558 0.270131
vt 0.802972 0.323577
vt 0.782985 0.318796
vt 0.802679 0.342156
vt 0.786355 0.336833
vt 0.839299 0.270282
vt 0.837458 0.293688
vt 0.831158 0.320395
vt 0.823029 0.34082
vt 0.858899 0.275167
vt 0.859893 0.291579
vt 0.853005 0.313069
vt 0.842477 0.333892
vt 0.893317 0.367109
vt 0.895236 0.379653
vt 0.879847 0.37785
vt 0.879503 0.365859
vt 0.896293 0.393932
vt 0.881888 0.393495
vt 0.896548 0.408555
vt 0.882805 0.408872
vt 0.864424 0.366438
vt 0.865152 0.379054
vt 0.866679 0.395126
vt 0.86725 0.408963
vt 0.85116 0.367668
vt 0.851896 0.381016
vt 0.853541 0.394913
vt 0.855822 0.407325
vt 0.924929 0.363538
vt 0.943365 0.365962
vt 0.942051 0.373796
vt 0.924383 0.374287
vt 0.963607 0.373986
vt 0.963576 0.367547
vt 0.982285 0.369464
vt 0.980804 0.376958
vt 0.939595 0.386719
vt 0.923984 0.388982
vt 0.959027 0.384036
vt 0.976792 0.387148
vt 0.936909 0.403061
vt 0.925361 0.403807
vt 0.953761 0.403427
vt 0.970076 0.402035
vt 0.778061 0.440832
vt 0.766728 0.439144
vt 0.766951 0.434103
vt 0.776429 0.43319
vt 0.791025 0.440909
vt 0.789695 0.432188
vt 0.805901 0.432031
vt 0.805689 0.442068
vt 0.778779 0.449521
vt 0.76661 0.448982
vt 0.792839 0.451994
vt 0.806519 0.45356
vt 0.78221 0.464462
vt 0.769444 0.464305
vt 0.795815 0.463996
vt 0.807771 0.463963
vt 0.7964 0.378265
vt 0.772151 0.380217
vt 0.773305 0.368588
vt 0.794749 0.365844
vt 0.815468 0.367374
vt 0.81405 0.377471
vt 0.824866 0.367506
vt 0.82606 0.377581
vt 0.791629 0.394295
vt 0.773329 0.393664
vt 0.811472 0.391569
vt 0.824204 0.390915
vt 0.789098 0.40789
vt 0.773916 0.406334
vt 0.804087 0.410252
vt 0.818937 0.40742
vt 0.887628 0.268205
vt 0.91532 0.268433
vt 0.91191 0.280104
vt 0.88669 0.27985
vt 0.94029 0.280051
vt 0.943218 0.267378
vt 0.9667 0.267243
vt 0.964329 0.279514
vt 0.91311 0.294865
vt 0.894349 0.296405
vt 0.938785 0.295886
vt 0.960213 0.294269
vt 0.921796 0.312899
vt 0.904265 0.312297
vt 0.940021 0.310489
vt 0.956126 0.30809
vt 0.756819 0.272496
vt 0.768395 0.257591
vt 0.790477 0.256899
vt 0.762414 0.295433
vt 0.771075 0.315113
vt 0.770139 0.3355
vt 0.789597 0.350903
vt 0.780616 0.344523
vt 0.811523 0.259765
vt 0.801289 0.354548
vt 0.837793 0.257437
vt 0.816721 0.352284
vt 0.856946 0.263326
vt 0.833616 0.347004
vt 0.872507 0.266238
vt 0.873074 0.277895
vt 0.872995 0.290603
vt 0.865916 0.307067
vt 0.856594 0.326166
vt 0.847478 0.341388
vt 0.903724 0.358534
vt 0.905534 0.370044
vt 0.891753 0.357489
vt 0.906453 0.38116
vt 0.906475 0.394689
vt 0.905912 0.407565
vt 0.904036 0.417794
vt 0.895861 0.419566
vt 0.879187 0.357092
vt 0.884167 0.420302
vt 0.865811 0.356443
vt 0.870396 0.419341
vt 0.85296 0.357428
vt 0.859143 0.416576
vt 0.841055 0.358601
vt 0.840067 0.368579
vt 0.841314 0.380789
vt 0.843868 0.393587
vt 0.84735 0.405064
vt 0.851285 0.413388
vt 0.911932 0.359104
vt 0.927362 0.356443
vt 0.910376 0.366941
vt 0.945875 0.359962
vt 0.963598 0.360684
vt 0.981322 0.364678
vt 0.993037 0.366283
vt 0.99337 0.370804
vt 0.910267 0.379065
vt 0.993154 0.375733
vt 0.911531 0.392521
vt 0.988129 0.38701
vt 0.914363 0.405584
vt 0.981546 0.399679
vt 0.927313 0.415576
vt 0.915866 0.415839
vt 0.938265 0.415841
vt 0.95233 0.414721
vt 0.965897 0.411407
vt 0.976613 0.409015
vt 0.757047 0.43457
vt 0.756819 0.430653
vt 0.766282 0.428062
vt 0.778455 0.425299
vt 0.793136 0.424764
vt 0.807585 0.424981
vt 0.819247 0.425669
vt 0.819158 0.432572
vt 0.756826 0.440612
vt 0.819161 0.442789
vt 0.757619 0.452277
vt 0.818816 0.454286
vt 0.760749 0.46501
vt 0.817744 0.464343
vt 0.772897 0.473658
vt 0.764466 0.473784
vt 0.785034 0.47388
vt 0.798497 0.473342
vt 0.809172 0.472058
vt 0.816921 0.471229
vt 0.756819 0.369683
vt 0.757936 0.362011
vt 0.773018 0.360337
vt 0.791353 0.357329
vt 0.809075 0.356443
vt 0.822463 0.357801
vt 0.833334 0.359808
vt 0.835463 0.36815
vt 0.756853 0.38115
vt 0.836276 0.378091
vt 0.759104 0.393882
vt 0.834348 0.390806
vt 0.762084 0.404745
vt 0.829728 0.407202
vt 0.773078 0.414582
vt 0.76422 0.412118
vt 0.785288 0.418709
vt 0.79959 0.42093
vt 0.81341 0.420972
vt 0.824009 0.418867
vt 0.876516 0.267502
vt 0.881871 0.258983
vt 0.897905 0.256899
vt 0.917455 0.259544
vt 0.942441 0.257403
vt 0.96282 0.257603
vt 0.982971 0.257219
vt 0.983613 0.26579
vt 0.87497 0.280756
vt 0.980686 0.278444
vt 0.8795 0.295092
vt 0.975982 0.292335
vt 0.890231 0.309868
vt 0.96895 0.305561
vt 0.909496 0.323295
vt 0.896625 0.321985
vt 0.923005 0.323216
vt 0.936828 0.322143
vt 0.949822 0.319406
vt 0.962072 0.315067
mtllib rock.mtl
usemtl rock
quads
f 5/1/1 6/2/2 2/3/3 1/4/4
f 6/2/2 7/5/5 3/6/6 2/3/3
f 7/5/5 8/7/7 4/8/8 3/6/6
f 5/1/1 9/9/9 10/10/10 6/2/2
f 6/2/2 10/10/10 11/11/11 7/5/5
f 7/5/5 11/11/11 12/12/12 8/7/7
f 10/10/10 9/9/9 13/13/13 14/14/14
f 10/10/10 14/14/14 15/15/15 11/11/11
f 11/11/11 15/15/15 16/16/16 12/12/12
f 17/17/17 18/18/18 22/19/19 21/20/20
f 22/19/19 18/18/18 19/21/21 23/22/22
f 23/22/22 19/21/21 20/23/23 24/24/24
f 25/25/25 21/20/20 22/19/19 26/26/26
f 22/19/19 23/22/22 27/27/27 26/26/26
f 23/22/22 24/24/24 28/28/28 27/27/27
f 29/29/29 25/25/25 26/26/26 30/30/30
f 26/26/26 27/27/27 31/31/31 30/30/30
f 27/27/27 28/28/28 32/32/32 31/31/31
f 33/33/33 34/34/34 38/35/35 37/36/36
f 39/37/37 38/35/35 34/34/34 35/38/38
f 36/39/39 40/40/40 39/37/41 35/38/42
f 37/36/36 38/35/35 42/41/43 41/42/44
f 38/35/35 39/37/41 43/43/45 42/41/43
f 39/37/41 40/40/40 44/44/46 43/43/45
f 42/41/43 46/45/47 45/46/48 41/42/44
f 43/43/45 47/47/49 46/45/47 42/41/43
f 43/43/45 44/44/46 48/48/50 47/47/49
f 54/49/51 53/50/52 49/51/53 50/52/54
f 55/53/55 54/49/51 50/52/56 51/54/57
f 52/55/58 56/56/59 55/53/55 51/54/57
f 58/57/60 57/58/61 53/50/52 54/49/51
f 59/59/62 58/57/60 54/49/51 55/53/55
f 56/56/59 60/60/63 59/59/62 55/53/55
f 57/58/61 58/57/60 62/61/64 61/62/65
f 58/57/60 59/59/62 63/63/66 62/61/64
f 59/59/62 60/60/63 64/64/67 63/63/66
f 70/65/68 69/66/69 65/67/70 66/68/71
f 67/69/72 71/70/73 70/65/68 66/68/71
f 71/70/73 67/69/74 68/71/75 72/72/76
f 70/65/68 74/73/77 73/74/78 69/66/69
f 75/75/79 74/73/77 70/65/68 71/70/73
f 71/70/73 72/72/76 76/76/80 75/75/79
f 74/73/77 78/77/81 77/78/82 73/74/78
f 79/79/83 78/77/81 74/73/77 75/75/79
f 75/75/79 76/76/80 80/80/84 79/79/83
f 81/81/85 82/82/86 86/83/87 85/84/88
f 87/85/89 86/83/87 82/82/86 83/86/90
f 83/86/90 84/87/91 88/88/92 87/85/89
f 86/83/87 90/89/93 89/90/94 85/84/88
f 86/83/87 87/85/89 91/91/95 90/89/93
f 87/85/89 88/88/92 92/92/96 91/91/95
f 90/89/93 94/93/97 93/94/98 89/90/94
f 90/89/93 91/91/95 95/95/99 94/93/97
f 91/91/95 92/92/96 96/96/100 95/95/99
f 144/97/101 145/98/102 143/99/103 1/4/4
f 1/4/4 2/3/3 148/100/104 144/97/101
f 2/3/3 3/6/6 149/101/105 148/100/106
f 150/102/107 149/101/105 3/6/6 4/8/8
f 4/8/8 127/103/108 128/104/109 150/102/107
f 1/4/4 143/99/103 125/105/110 5/1/1
f 4/8/8 8/7/7 129/106/111 127/103/108
f 5/1/1 125/105/110 112/107/112 9/9/9
f 8/7/7 12/12/12 114/108/113 129/106/111
f 112/107/112 97/109/114 13/13/13 9/9/9
f 12/12/12 16/16/16 115/110/115 114/108/113
f 99/111/116 98/112/117 13/13/13 97/109/114
f 13/13/13 98/112/117 102/113/118 14/14/14
f 14/14/14 102/113/118 103/114/119 15/15/15
f 15/15/15 103/114/119 104/115/120 16/16/16
f 104/115/120 113/116/121 115/110/115 16/16/16
f 135/117/122 136/118/123 17/17/17 134/119/124
f 17/17/17 136/118/123 137/120/125 18/18/18
f 18/18/18 137/120/125 139/121/126 19/21/21
f 19/21/21 139/121/126 140/122/127 20/23/23
f 20/23/23 140/122/127 126/123/128 142/124/129
f 17/17/17 21/20/20 138/125/130 134/119/124
f 24/24/24 20/23/23 142/124/129 141/126/131
f 25/25/25 116/127/132 138/125/130 21/20/20
f 24/24/24 141/126/131 118/128/133 28/28/28
f 25/25/25 29/29/29 117/129/134 116/127/132
f 28/28/28 118/128/133 119/130/135 32/32/32
f 107/131/136 117/129/134 29/29/29 110/132/137
f 29/29/29 30/30/30 111/133/138 110/132/137
f 30/30/30 31/31/31 120/134/139 111/133/138
f 31/31/31 32/32/32 121/135/140 120/134/139
f 32/32/32 119/130/135 122/136/141 121/135/140
f 145/137/102 144/138/142 33/33/33 146/139/143
f 33/33/33 144/138/144 148/140/145 34/34/34
f 35/38/38 34/34/34 148/140/106 149/141/105
f 35/38/38 149/141/105 150/142/107 36/39/146
f 36/39/146 150/142/107 128/143/109 130/144/147
f 33/33/33 37/36/36 147/145/148 146/139/143
f 36/39/39 130/144/149 131/146/150 40/40/40
f 37/36/36 41/42/44 151/147/151 147/145/148
f 131/146/150 132/148/152 44/44/46 40/40/40
f 41/42/44 45/46/48 152/149/153 151/147/151
f 44/44/46 132/148/152 133/150/154 48/48/50
f 45/46/48 136/151/123 135/152/122 152/149/153
f 46/45/47 137/153/125 136/151/123 45/46/48
f 46/45/47 47/47/49 139/154/126 137/153/125
f 47/47/49 48/48/50 140/155/127 139/154/126
f 48/48/50 133/150/154 126/156/128 140/155/127
f 49/51/155 130/157/147 128/158/109 127/159/108
f 50/52/156 49/51/155 127/159/108 129/160/111
f 50/52/156 129/160/111 114/161/113 51/54/57
f 52/55/58 51/54/57 114/161/113 115/162/115
f 113/163/121 105/164/157 52/55/58 115/162/115
f 53/50/52 131/165/150 130/157/158 49/51/159
f 56/56/59 52/55/58 105/164/157 106/166/160
f 131/165/150 53/50/52 57/58/61 132/167/152
f 56/56/59 106/166/160 123/168/161 60/60/63
f 57/58/61 61/62/65 133/169/154 132/167/152
f 60/60/63 123/168/161 124/170/162 64/64/67
f 61/62/65 142/171/129 126/172/128 133/169/154
f 62/61/64 141/173/131 142/171/129 61/62/65
f 62/61/64 63/63/66 118/174/133 141/173/131
f 63/63/66 64/64/67 119/175/135 118/174/133
f 64/64/67 124/170/162 122/176/141 119/175/135
f 65/67/70 105/177/157 113/178/121 104/179/120
f 65/67/70 104/179/120 103/180/119 66/68/71
f 67/69/74 66/68/71 103/180/119 102/181/118
f 67/69/163 102/181/118 98/182/117 68/71/75
f 98/182/117 99/183/116 100/184/164 68/71/75
f 65/67/70 69/66/69 106/185/160 105/177/157
f 68/71/75 100/184/164 101/186/165 72/72/76
f 69/66/69 73/74/78 123/187/161 106/185/160
f 72/72/76 101/186/165 108/188/166 76/76/80
f 73/74/78 77/78/82 124/189/162 123/187/161
f 108/188/166 109/190/167 80/80/84 76/76/80
f 77/78/82 121/191/140 122/192/141 124/189/162
f 78/77/81 120/193/139 121/191/140 77/78/82
f 78/77/81 79/79/83 111/194/138 120/193/139
f 80/80/84 110/195/137 111/194/138 79/79/83
f 80/80/84 109/190/167 107/196/136 110/195/137
f 81/81/168 100/197/164 99/198/116 97/199/114
f 82/82/86 81/81/169 97/199/114 112/200/112
f 83/86/90 82/82/86 112/200/112 125/201/110
f 83/86/90 125/201/110 143/202/103 84/87/91
f 145/203/102 146/204/143 84/87/91 143/202/103
f 85/84/88 101/205/165 100/197/164 81/81/169
f 84/87/91 146/204/143 147/206/148 88/88/92
f 85/84/88 89/90/94 108/207/166 101/205/165
f 88/88/92 147/206/148 151/208/151 92/92/96
f 89/90/94 93/94/98 109/209/167 108/207/166
f 92/92/96 151/208/151 152/210/153 96/96/100
f 93/94/98 117/211/134 107/212/136 109/209/167
f 94/93/97 116/213/132 117/211/134 93/94/98
f 94/93/97 95/95/99 138/214/130 116/213/132
f 95/95/99 96/96/100 134/215/124 138/214/130
f 96/96/100 152/210/153 135/216/122 134/215/124
