# OBJ written from E:\3d\3D-Objekte\todo\rocks\meshes\rock8.obj
o Mesh
v -0.60679 -0.763253 0.415415
v -0.243377 -0.714053 0.412092
v 0.100224 -0.728879 0.44085
v 0.486838 -0.825401 0.479973
v -0.704223 -0.967579 0.127775
v -0.284282 -0.923283 0.0928369
v 0.12334 -0.833482 0.0879007
v 0.518537 -0.874906 0.0925155
v -0.919404 -1.36659 -0.34172
v -0.308219 -1.11095 -0.37279
v 0.10809 -0.871145 -0.298892
v 0.476977 -0.837256 -0.295121
v -0.684999 -0.95624 -0.692783
v -0.310803 -1.06391 -0.789682
v 0.084775 -0.804513 -0.61005
v 0.413222 -0.749418 -0.603861
v -0.624892 0.894 0.434438
v -0.346122 1.14559 0.594094
v 0.0758429 1.26581 0.651873
v 0.372796 1.02676 0.485321
v -0.787562 1.09257 0.154474
v -0.376758 1.18248 0.185065
v 0.0970774 1.36659 0.240129
v 0.316283 0.955257 0.130921
v -0.757684 1.04297 -0.232663
v -0.416162 1.2741 -0.276969
v 0.0429373 1.23878 -0.234005
v 0.36423 0.994688 -0.220868
v -0.653991 0.883582 -0.511584
v -0.340796 1.01271 -0.573305
v 0.0356989 0.990222 -0.576462
v 0.366757 0.966253 -0.557419
v -0.627641 -0.404823 0.769548
v -0.325652 -0.492927 0.952008
v 0.129254 -0.537896 1.09994
v 0.488917 -0.414484 0.905792
v -0.633861 -0.0839951 0.820108
v -0.387137 -0.115561 1.3983
v 0.222774 -0.121727 1.50721
v 0.690742 -0.105796 1.23979
v -0.645743 0.262589 0.840036
v -0.395566 0.422345 1.29563
v 0.135467 0.432968 1.31876
v 0.579696 0.392456 1.13137
v -0.620524 0.556048 0.751641
v -0.418767 0.844014 1.15759
v 0.0435286 0.927165 1.23242
v 0.485625 0.826327 1.04816
v 0.712159 -0.330047 0.391996
v 0.915372 -0.46005 0.0740695
v 1.13402 -0.605943 -0.367977
v 0.779058 -0.4108 -0.66539
v 0.772836 -0.00886476 0.450876
v 0.933946 -0.0637453 0.132225
v 1.56751 -0.212533 -0.466095
v 0.95012 -0.112112 -0.732358
v 0.922133 0.387855 0.580253
v 1.15093 0.411199 0.197719
v 1.45356 0.462981 -0.432876
v 0.922616 0.321393 -0.709884
v 0.923112 0.826383 0.592123
v 0.880105 0.783269 0.154808
v 0.772094 0.692892 -0.24711
v 0.760972 0.676844 -0.606022
v 0.41064 -0.421224 -0.889949
v 0.131824 -0.538045 -1.00932
v -0.308324 -0.692922 -1.31726
v -0.641633 -0.530693 -1.05883
v 0.392777 -0.110376 -0.89931
v 0.115041 -0.203758 -1.12693
v -0.384255 -0.273341 -1.50721
v -0.7923 -0.14827 -1.1931
v 0.402778 0.228129 -0.895118
v 0.0693712 0.211523 -0.976286
v -0.335338 0.272336 -1.14934
v -0.793 0.311671 -1.20116
v 0.357869 0.552819 -0.838199
v 0.0461855 0.587139 -0.957491
v -0.356963 0.682974 -1.06979
v -0.594037 0.490191 -0.803026
v -1.10398 -0.52691 -0.676764
v -1.16808 -0.588224 -0.287465
v -1.27246 -0.646994 0.165504
v -0.92431 -0.397895 0.41816
v -1.06328 -0.146533 -0.740062
v -1.51249 -0.211786 -0.409491
v -1.56751 -0.210612 0.20069
v -1.03854 -0.0879703 0.456801
v -1.16395 0.316205 -0.790631
v -1.22008 0.314581 -0.30464
v -1.11346 0.248743 0.112889
v -1.02857 0.27136 0.452605
v -1.06011 0.618405 -0.580886
v -1.10707 0.6121 -0.229673
v -1.12357 0.628181 0.143425
v -0.988576 0.580553 0.452248
v -0.843377 -0.405235 -0.821798
v -1.01557 -0.0971149 -0.977843
v -0.576646 -0.78723 -0.944641
v -0.258023 -0.913338 -1.08315
v 0.0996313 -0.870464 -0.993992
v 0.463382 -0.849514 -1.00502
v 0.689044 -0.686124 -0.879694
v 0.562957 -0.325281 -0.753672
v 0.568095 -0.065551 -0.758724
v -0.971911 0.234655 -0.924194
v -0.299922 0.877997 -0.851527
v 0.656161 0.239304 -0.846806
v -1.12705 -1.00204 -0.256899
v -0.853633 -0.696639 -0.521658
v -0.745065 -0.595611 -0.720593
v 0.688836 -0.673775 -0.268282
v 0.679307 -0.648933 -0.566803
v -1.04676 0.936267 -0.212915
v -0.915675 0.814503 -0.47784
v -0.787362 0.437342 -0.690826
v -0.553132 0.709283 -0.699666
v -0.764783 0.658106 -0.627506
v 0.611014 0.900874 -0.215284
v 0.559285 0.827233 -0.483361
v 0.00563908 0.772978 -0.745195
v 0.254317 0.74669 -0.685953
v 0.421105 0.668379 -0.611748
v 0.524005 0.471125 -0.714644
v -1.03523 -0.916753 0.146552
v -0.792529 -0.296598 0.601965
v -0.864457 -0.0434554 0.671652
v -0.641936 -0.745165 0.72506
v -0.697051 -0.470511 0.506303
v -0.764461 -0.586813 0.337378
v -0.266341 -0.595496 0.644495
v 0.773452 -0.669854 0.38256
v 0.579833 -0.540001 0.599442
v 0.783484 -0.740296 0.0506873
v 0.646754 -0.305257 0.681997
v -0.840804 0.780005 0.381392
v -1.0556 0.920188 0.13712
v -0.886432 0.264942 0.693543
v -0.834065 0.49456 0.641665
v -0.76423 0.696332 0.572231
v -0.560729 0.77529 0.626569
v 0.700931 1.03295 0.455656
v 0.544414 0.827408 0.0944124
v 0.034318 -0.675081 0.771744
v 0.391997 -0.733964 0.799569
v 0.861598 -0.0144666 0.872897
v -0.330113 0.997741 0.863287
v 0.0746775 1.27425 1.08987
v 0.438073 1.1636 0.93964
v 0.69028 1.02593 0.790146
v 0.918845 0.38776 0.975945
v 0.857076 0.79617 0.967002
vn 0.28566 -0.862648 0.417417
vn 0.173183 -0.945705 0.275044
vn 0.180173 -0.816705 0.548207
vn -0.097915 -0.762998 0.638942
vn 0.112509 -0.97949 0.167156
vn -0.0513044 -0.984305 0.168855
vn 0.193927 -0.980929 0.0130226
vn 0.18729 -0.961135 0.202836
vn -0.0893876 -0.993436 0.0713849
vn 0.43823 -0.89864 0.0200096
vn 0.245704 -0.969105 -0.0215648
vn 0.204545 -0.959212 -0.195127
vn -0.0287929 -0.894893 -0.445351
vn -0.461818 -0.527285 -0.713228
vn 0.259796 -0.900337 -0.34914
vn 0.300697 -0.953358 0.0262552
vn 0.219179 -0.975664 -0.00629382
vn -0.292985 0.952981 0.0773706
vn -0.326297 0.918309 0.224138
vn -0.519862 0.728366 0.446347
vn -0.442946 0.882032 0.160684
vn 0.256787 0.966415 -0.0101244
vn 0.0552789 0.998184 0.0239529
vn 0.201758 0.951103 -0.233873
vn 0.511114 0.85386 -0.0984103
vn -0.255967 0.904483 -0.341162
vn -0.373309 0.874992 -0.30827
vn 0.201823 0.864765 -0.459836
vn 0.447639 0.870623 -0.204049
vn -0.197766 0.735363 -0.648174
vn -0.375068 0.705391 -0.601454
vn 0.0822793 0.685095 -0.723792
vn 0.288051 0.686508 -0.667632
vn -0.113915 -0.853679 0.508189
vn -0.530339 -0.310439 0.788903
vn -0.726076 -0.219428 0.651663
vn -0.599404 -0.541813 0.589197
vn 0.164617 -0.223998 0.960586
vn -0.0173281 -0.709304 0.70469
vn 0.523862 -0.583388 0.620667
vn 0.738125 -0.220299 0.637683
vn -0.578397 0.1773 0.796255
vn -0.741972 0.100736 0.662819
vn 0.167075 0.270326 0.948161
vn 0.501703 0.287169 0.815983
vn -0.599837 0.360526 0.714294
vn -0.741633 0.397256 0.540526
vn 0.14652 0.285356 0.947156
vn 0.320336 0.276037 0.906194
vn 0.761009 -0.2319 0.605877
vn 0.969645 -0.20471 0.133728
vn 0.992665 0.0239744 0.118496
vn 0.797144 -0.379003 0.470019
vn 0.651035 -0.186525 0.735773
vn 0.642099 -0.657064 0.394939
vn 0.359091 -0.205932 -0.9103
vn 0.603482 -0.770521 -0.205201
vn 0.728383 -0.275312 -0.627424
vn 0.207921 -0.150074 -0.966564
vn 0.911819 -0.124943 0.391121
vn 0.990143 -0.134338 0.0396368
vn 0.61262 0.561852 0.555895
vn 0.894158 0.174105 0.412516
vn 0.193546 0.346368 -0.917915
vn 0.279529 0.494283 -0.823133
vn 0.843978 0.536294 -0.00948589
vn 0.666142 0.740836 -0.0861259
vn 0.543093 0.822433 0.169274
vn 0.484277 0.851414 -0.201419
vn 0.844398 0.400432 0.355873
vn 0.372922 0.760789 -0.531159
vn 0.202877 0.702492 -0.682163
vn 0.434623 -0.0916932 -0.895932
vn 0.48094 0.0782328 -0.873256
vn 0.389654 0.0265228 -0.920579
vn 0.360102 0.0736866 -0.929998
vn 0.202423 0.107871 -0.973339
vn -0.0340356 -0.385456 -0.922098
vn -0.748547 -0.424005 -0.509801
vn -0.59565 -0.105286 -0.796314
vn 0.345568 0.26905 -0.898996
vn 0.201989 0.155657 -0.966939
vn 0.31412 0.544806 -0.777506
vn -0.297217 0.693333 -0.656469
vn 0.343696 0.439243 -0.830023
vn 0.370665 0.456685 -0.808731
vn 0.314307 0.616505 -0.721895
vn -0.448342 0.739371 -0.502314
vn 0.0312443 0.701721 -0.711766
vn -0.867706 -0.066851 -0.492562
vn -0.636212 -0.271269 -0.722252
vn -0.341449 -0.518306 -0.784074
vn -0.782689 -0.384031 -0.489814
vn -0.831353 -0.115842 0.543537
vn -0.786496 -0.424483 0.448596
vn -0.468432 -0.423839 0.775198
vn -0.619299 -0.156486 0.769403
vn -0.917835 0.356967 -0.17365
vn -0.737015 0.360675 -0.571596
vn -0.920878 0.121567 0.370411
vn -0.822295 0.0310951 0.568211
vn -0.983049 0.183023 -0.0108135
vn -0.598324 0.514423 -0.61431
vn -0.972693 0.0790521 0.218217
vn -0.844157 0.22974 0.484373
vn -0.987731 -0.132915 0.0819762
vn -0.889521 -0.338344 0.307045
vn -0.673736 -0.4944 0.549226
vn -0.959227 -0.266795 -0.093294
vn 0.402455 -0.886 0.23029
vn 0.145751 -0.961988 0.230947
vn -0.171583 -0.891992 0.418221
vn 0.313984 -0.751745 0.579908
vn 0.900406 -0.377331 0.216541
vn 0.860069 -0.358867 0.362624
vn -0.4339 -0.507943 0.744127
vn -0.273908 -0.510416 0.815138
vn 0.655138 -0.744969 0.125759
vn -0.870585 -0.277633 -0.406203
vn -0.589672 -0.806167 0.0488014
vn -0.677347 -0.472007 0.564279
vn 0.536183 -0.843492 -0.0320825
vn -0.557344 -0.66925 -0.491399
vn -0.592939 -0.343781 -0.728175
vn 0.587424 -0.808048 -0.0446355
vn -0.658328 -0.48577 -0.575006
vn -0.715318 -0.447202 -0.536964
vn 0.015907 -0.747344 -0.664246
vn 0.504397 -0.846618 -0.169767
vn 0.187 -0.947391 0.259771
vn 0.28212 -0.93545 0.212934
vn 0.307834 -0.913385 0.266395
vn -0.591744 0.535296 0.602742
vn -0.491179 0.592735 0.638285
vn -0.692903 0.584774 0.421811
vn -0.621646 0.69656 0.358275
vn 0.0331772 0.876875 0.479572
vn 0.236431 0.96488 0.114488
vn 0.0582265 0.953542 -0.295579
vn 0.31199 0.948092 -0.0615078
vn 0.177315 0.96608 -0.187747
vn -0.779797 0.567436 0.264447
vn 0.315972 0.925554 -0.208593
vn -0.760418 0.597308 -0.254927
vn 0.518831 0.851091 -0.0803664
vn -0.45764 0.596913 -0.658985
vn 0.393252 0.74986 -0.532037
vn -0.487975 0.607298 -0.626953
vn -0.226499 0.480287 -0.847362
vn -0.233642 0.743407 -0.626704
vn 0.195569 0.632737 -0.749264
vn 0.403141 0.561335 -0.722759
vn 0.376015 0.529032 -0.760748
vn -0.75654 -0.288701 0.58677
vn 0.947563 -0.278739 0.156298
vn -0.722943 -0.125745 0.679369
vn 0.983411 -0.170161 0.0628398
vn -0.70957 0.0944589 0.698274
vn 0.921061 0.1302 0.367007
vn -0.605384 0.393166 0.692048
vn 0.646782 0.415484 0.639568
vn 0.35317 0.686115 0.636017
vn 0.477385 0.624545 0.618099
vn 0.327902 0.320824 0.888568
vn 0.658219 -0.749119 0.074626
vn 0.80599 -0.590457 -0.0417222
vn 0.74708 0.369096 -0.552846
vn 0.71735 0.240827 -0.653767
vn 0.998413 -0.0401964 -0.0394502
vn 0.340104 0.019411 -0.940188
vn 0.240258 -0.0426014 -0.969774
vn 0.145105 0.149207 -0.978101
vn 0.229628 0.471049 -0.851695
vn 0.339101 0.87605 0.342852
vn 0.130938 0.272249 -0.953276
vn 0.576588 0.117374 -0.80856
vn 0.295673 0.0861373 -0.951398
vn 0.510321 -0.343747 -0.788296
vn -0.527193 -0.572152 -0.628259
vn -0.721642 -0.338608 -0.603802
vn -0.693114 0.375475 -0.615314
vn -0.250614 0.607953 -0.753383
vn -0.121182 0.820091 -0.559254
vn -0.841495 -0.400744 0.36234
vn -0.520614 -0.520173 0.677039
vt 0.494796 0.622359
vt 0.494326 0.608364
vt 0.509361 0.608411
vt 0.511413 0.621435
vt 0.479213 0.622479
vt 0.481036 0.608357
vt 0.464449 0.622514
vt 0.466 0.607884
vt 0.516207 0.640804
vt 0.495224 0.641444
vt 0.478235 0.637827
vt 0.464519 0.637403
vt 0.50958 0.657113
vt 0.49477 0.656899
vt 0.477653 0.650375
vt 0.465419 0.650125
vt 0.410728 0.700289
vt 0.407932 0.685744
vt 0.421931 0.68652
vt 0.425572 0.700713
vt 0.413638 0.717729
vt 0.428307 0.716969
vt 0.423315 0.731735
vt 0.40991 0.733483
vt 0.394146 0.702311
vt 0.393091 0.687888
vt 0.396595 0.718401
vt 0.39631 0.733274
vt 0.38021 0.705057
vt 0.380371 0.691298
vt 0.381217 0.72024
vt 0.383939 0.7326
vt 0.439159 0.534974
vt 0.419046 0.538982
vt 0.421203 0.518168
vt 0.435849 0.521052
vt 0.41983 0.557763
vt 0.439082 0.554555
vt 0.438993 0.571307
vt 0.421163 0.573915
vt 0.400827 0.537304
vt 0.40511 0.517719
vt 0.400364 0.556568
vt 0.402983 0.574284
vt 0.385968 0.537279
vt 0.391346 0.518337
vt 0.382718 0.553604
vt 0.386501 0.571691
vt 0.484757 0.536398
vt 0.474235 0.538376
vt 0.476463 0.524845
vt 0.491301 0.520507
vt 0.512249 0.536489
vt 0.510582 0.521794
vt 0.530297 0.521389
vt 0.532072 0.536805
vt 0.48969 0.557702
vt 0.474116 0.557122
vt 0.511697 0.553335
vt 0.531203 0.55566
vt 0.476469 0.574497
vt 0.493725 0.575239
vt 0.511861 0.576595
vt 0.526112 0.571141
vt 0.510553 0.696291
vt 0.496793 0.698392
vt 0.493515 0.685761
vt 0.506431 0.685328
vt 0.500541 0.718994
vt 0.514285 0.715955
vt 0.51249 0.731943
vt 0.496502 0.735202
vt 0.479934 0.699129
vt 0.479601 0.686117
vt 0.478729 0.716896
vt 0.48102 0.732833
vt 0.465862 0.701552
vt 0.466516 0.688578
vt 0.464665 0.717907
vt 0.465358 0.732437
vt 0.404497 0.642254
vt 0.403158 0.658496
vt 0.387842 0.655441
vt 0.38334 0.641175
vt 0.402866 0.624906
vt 0.385562 0.623024
vt 0.392363 0.60497
vt 0.407386 0.605978
vt 0.423002 0.640232
vt 0.419736 0.656948
vt 0.424645 0.620884
vt 0.423017 0.607696
vt 0.437278 0.639025
vt 0.435821 0.654354
vt 0.437892 0.623367
vt 0.435952 0.609557
vt 0.509456 0.5967
vt 0.520772 0.601822
vt 0.518964 0.608156
vt 0.494933 0.598863
vt 0.482999 0.595659
vt 0.469384 0.595521
vt 0.453619 0.610355
vt 0.457525 0.5992
vt 0.523971 0.62275
vt 0.453334 0.623461
vt 0.527658 0.639554
vt 0.45457 0.63679
vt 0.523422 0.659398
vt 0.454754 0.648617
vt 0.518787 0.667142
vt 0.505789 0.668078
vt 0.491559 0.66853
vt 0.47832 0.664912
vt 0.464673 0.66609
vt 0.454594 0.660634
vt 0.419984 0.677464
vt 0.42844 0.678278
vt 0.430771 0.68608
vt 0.436365 0.698956
vt 0.444178 0.715796
vt 0.440714 0.729149
vt 0.437494 0.74002
vt 0.42579 0.743478
vt 0.406488 0.674329
vt 0.40897 0.742702
vt 0.392819 0.676524
vt 0.39611 0.743243
vt 0.381263 0.680934
vt 0.384993 0.741666
vt 0.370349 0.69353
vt 0.37218 0.684871
vt 0.369079 0.707073
vt 0.371061 0.720951
vt 0.373883 0.731738
vt 0.375551 0.739718
vt 0.448927 0.520704
vt 0.432244 0.51125
vt 0.440413 0.510701
vt 0.45077 0.535348
vt 0.45105 0.550936
vt 0.451249 0.566641
vt 0.448193 0.580135
vt 0.438709 0.583283
vt 0.420217 0.508048
vt 0.421915 0.587577
vt 0.40477 0.507158
vt 0.404671 0.588021
vt 0.392897 0.508998
vt 0.388648 0.586118
vt 0.38052 0.519227
vt 0.383482 0.511318
vt 0.374758 0.534257
vt 0.369079 0.555283
vt 0.37298 0.570815
vt 0.376554 0.582411
vt 0.465134 0.5262
vt 0.467297 0.516331
vt 0.479107 0.511555
vt 0.493508 0.50904
vt 0.510197 0.507158
vt 0.524694 0.512135
vt 0.535191 0.507763
vt 0.539269 0.523043
vt 0.458749 0.541869
vt 0.545025 0.536211
vt 0.458795 0.558914
vt 0.542334 0.554321
vt 0.461373 0.574522
vt 0.539332 0.569211
vt 0.48131 0.586489
vt 0.46802 0.58579
vt 0.498728 0.58755
vt 0.512421 0.585942
vt 0.525265 0.581913
vt 0.535855 0.579365
vt 0.523613 0.686448
vt 0.502893 0.677707
vt 0.518291 0.676558
vt 0.522795 0.699379
vt 0.524592 0.71409
vt 0.523042 0.72953
vt 0.520079 0.742336
vt 0.510859 0.744123
vt 0.492155 0.677524
vt 0.494979 0.746329
vt 0.478927 0.67662
vt 0.480185 0.744594
vt 0.467735 0.68038
vt 0.465796 0.741561
vt 0.456407 0.690647
vt 0.45844 0.682981
vt 0.454997 0.701615
vt 0.454121 0.716614
vt 0.456376 0.73099
vt 0.457273 0.7401
vt 0.387544 0.667454
vt 0.378375 0.664573
vt 0.375904 0.655113
vt 0.369079 0.637653
vt 0.373215 0.620989
vt 0.381769 0.604237
vt 0.386242 0.597316
vt 0.39569 0.596074
vt 0.403788 0.670556
vt 0.408767 0.595521
vt 0.419626 0.670579
vt 0.423469 0.596869
vt 0.43537 0.668485
vt 0.434211 0.599517
vt 0.445532 0.652754
vt 0.443074 0.663427
vt 0.449584 0.639645
vt 0.449182 0.624353
vt 0.445926 0.610186
vt 0.443181 0.601777
mtllib rock.mtl
usemtl rock
f 6/1/1 2/2/2 1/3/3
f 6/1/1 1/3/3 5/4/4
f 7/5/5 3/6/6 2/2/2
f 7/5/5 2/2/2 6/1/1
f 8/7/7 4/8/8 3/6/6
f 8/7/7 3/6/6 7/5/5
f 9/9/9 10/10/10 6/1/1
f 9/9/9 6/1/1 5/4/4
f 10/10/10 11/11/11 7/5/5
f 10/10/10 7/5/5 6/1/1
f 8/7/7 7/5/5 11/11/11
f 8/7/7 11/11/11 12/12/12
f 9/9/13 13/13/14 14/14/15
f 9/9/13 14/14/15 10/10/10
f 10/10/10 14/14/15 15/15/16
f 10/10/10 15/15/16 11/11/11
f 11/11/11 15/15/16 16/16/17
f 11/11/11 16/16/17 12/12/12
f 22/17/18 21/18/19 17/19/20
f 22/17/18 17/19/20 18/20/21
f 23/21/22 22/17/18 18/20/21
f 23/21/22 18/20/21 19/22/23
f 19/22/23 20/23/24 24/24/25
f 19/22/23 24/24/25 23/21/22
f 22/17/18 26/25/26 25/26/27
f 22/17/18 25/26/27 21/18/19
f 23/21/22 27/27/28 26/25/26
f 23/21/22 26/25/26 22/17/18
f 23/21/22 24/24/25 28/28/29
f 23/21/22 28/28/29 27/27/28
f 26/25/26 30/29/30 29/30/31
f 26/25/26 29/30/31 25/26/27
f 27/27/28 31/31/32 30/29/30
f 27/27/28 30/29/30 26/25/26
f 31/31/32 27/27/28 28/28/29
f 31/31/32 28/28/29 32/32/33
f 34/33/34 38/34/35 37/35/36
f 34/33/34 37/35/36 33/36/37
f 39/37/38 38/34/35 34/33/34
f 39/37/38 34/33/34 35/38/39
f 39/37/38 35/38/39 36/39/40
f 39/37/38 36/39/40 40/40/41
f 38/34/35 42/41/42 41/42/43
f 38/34/35 41/42/43 37/35/36
f 39/37/38 43/43/44 42/41/42
f 39/37/38 42/41/42 38/34/35
f 39/37/38 40/40/41 44/44/45
f 39/37/38 44/44/45 43/43/44
f 42/41/42 46/45/46 45/46/47
f 42/41/42 45/46/47 41/42/43
f 43/43/44 47/47/48 46/45/46
f 43/43/44 46/45/46 42/41/42
f 43/43/44 44/44/45 48/48/49
f 43/43/44 48/48/49 47/47/48
f 54/49/50 53/50/51 49/51/52
f 54/49/50 49/51/52 50/52/53
f 55/53/54 54/49/50 50/52/53
f 55/53/54 50/52/53 51/54/55
f 55/53/56 51/54/57 52/55/58
f 55/53/56 52/55/58 56/56/59
f 58/57/60 57/58/61 53/50/51
f 58/57/60 53/50/51 54/49/50
f 55/53/54 59/59/62 58/57/63
f 55/53/54 58/57/63 54/49/50
f 55/53/56 56/56/59 60/60/64
f 55/53/56 60/60/64 59/59/65
f 61/61/66 57/58/61 58/57/63
f 61/61/66 58/57/63 62/62/67
f 59/59/68 63/63/69 62/62/67
f 59/59/68 62/62/67 58/57/70
f 59/59/71 60/60/64 64/64/72
f 59/59/71 64/64/72 63/63/69
f 66/65/73 70/66/74 69/67/75
f 66/65/73 69/67/75 65/68/76
f 71/69/77 70/66/74 66/65/73
f 71/69/77 66/65/73 67/70/78
f 71/69/77 67/70/78 68/71/79
f 71/69/77 68/71/79 72/72/80
f 74/73/81 73/74/82 69/67/75
f 74/73/81 69/67/75 70/66/74
f 71/69/77 75/75/83 74/73/81
f 71/69/77 74/73/81 70/66/74
f 75/75/83 71/69/77 72/72/80
f 75/75/83 72/72/80 76/76/84
f 74/73/81 78/77/85 77/78/86
f 74/73/81 77/78/86 73/74/82
f 75/75/83 79/79/87 78/77/85
f 75/75/83 78/77/85 74/73/81
f 76/76/84 80/80/88 79/79/89
f 76/76/84 79/79/89 75/75/83
f 86/81/90 85/82/91 81/83/92
f 86/81/90 81/83/92 82/84/93
f 87/85/94 86/81/90 82/84/93
f 87/85/94 82/84/93 83/86/95
f 87/85/94 83/86/95 84/87/96
f 87/85/94 84/87/96 88/88/97
f 86/81/90 90/89/98 89/90/99
f 86/81/90 89/90/99 85/82/91
f 86/81/90 87/85/94 91/91/100
f 86/81/90 91/91/100 90/89/98
f 88/88/97 92/92/101 91/91/100
f 88/88/97 91/91/100 87/85/94
f 89/90/99 90/89/98 94/93/102
f 89/90/99 94/93/102 93/94/103
f 91/91/100 95/95/104 94/93/102
f 91/91/100 94/93/102 90/89/98
f 91/91/100 92/92/101 96/96/105
f 91/91/100 96/96/105 95/95/104
f 128/97/106 129/98/107 130/99/108
f 128/97/106 130/99/108 1/3/109
f 128/97/110 1/3/3 2/2/2
f 128/97/110 2/2/2 131/100/111
f 3/6/6 144/101/112 131/100/111
f 3/6/6 131/100/111 2/2/2
f 3/6/6 4/8/8 145/102/113
f 3/6/6 145/102/113 144/101/112
f 4/8/8 132/103/114 133/104/115
f 4/8/8 133/104/115 145/102/113
f 125/105/116 5/4/4 1/3/3
f 125/105/116 1/3/3 130/99/117
f 4/8/8 8/7/7 134/106/118
f 4/8/8 134/106/118 132/103/114
f 109/107/119 9/9/120 5/4/4
f 109/107/119 5/4/4 125/105/121
f 8/7/7 12/12/12 112/108/122
f 8/7/7 112/108/122 134/106/118
f 9/9/123 109/107/119 110/109/124
f 9/9/123 110/109/124 13/13/14
f 16/16/17 113/110/125 112/108/122
f 16/16/17 112/108/122 12/12/12
f 13/13/14 110/109/124 111/111/126
f 13/13/14 111/111/126 99/112/127
f 13/13/14 99/112/127 100/113/128
f 13/13/14 100/113/128 14/14/15
f 15/15/16 14/14/15 100/113/128
f 15/15/16 100/113/128 101/114/129
f 102/115/130 16/16/17 15/15/16
f 102/115/130 15/15/16 101/114/131
f 16/16/17 102/115/130 103/116/132
f 16/16/17 103/116/132 113/110/125
f 17/19/20 136/117/133 140/118/134
f 17/19/20 140/118/134 141/119/135
f 147/120/136 18/20/21 17/19/20
f 147/120/136 17/19/20 141/119/135
f 19/22/23 18/20/21 147/120/136
f 19/22/23 147/120/136 148/121/137
f 149/122/138 20/23/24 19/22/23
f 149/122/138 19/22/23 148/121/137
f 20/23/24 149/122/139 150/123/140
f 20/23/24 150/123/140 142/124/141
f 21/18/19 137/125/142 136/117/133
f 21/18/19 136/117/133 17/19/20
f 142/124/141 143/126/143 24/24/25
f 142/124/141 24/24/25 20/23/24
f 25/26/27 114/127/144 137/125/142
f 25/26/27 137/125/142 21/18/19
f 28/28/29 24/24/25 143/126/143
f 28/28/29 143/126/143 119/128/145
f 25/26/27 29/30/31 115/129/146
f 25/26/27 115/129/146 114/127/144
f 28/28/29 119/128/145 120/130/147
f 28/28/29 120/130/147 32/32/33
f 29/30/31 117/131/148 118/132/149
f 29/30/31 118/132/149 115/129/146
f 30/29/30 107/133/150 117/131/148
f 30/29/30 117/131/148 29/30/31
f 31/31/32 121/134/151 107/133/150
f 31/31/32 107/133/150 30/29/30
f 32/32/33 122/135/152 121/134/151
f 32/32/33 121/134/151 31/31/32
f 32/32/33 120/130/147 123/136/153
f 32/32/33 123/136/153 122/135/152
f 128/137/106 33/36/37 126/138/154
f 128/137/106 126/138/154 129/139/107
f 131/140/111 34/33/34 33/36/37
f 131/140/111 33/36/37 128/137/110
f 34/33/34 131/140/111 144/141/112
f 34/33/34 144/141/112 35/38/39
f 145/142/113 36/39/40 35/38/39
f 145/142/113 35/38/39 144/141/112
f 145/142/113 133/143/115 135/144/155
f 145/142/113 135/144/155 36/39/40
f 33/36/37 37/35/36 127/145/156
f 33/36/37 127/145/156 126/138/154
f 40/40/41 36/39/40 135/144/155
f 40/40/41 135/144/155 146/146/157
f 41/42/43 138/147/158 127/145/156
f 41/42/43 127/145/156 37/35/36
f 40/40/41 146/146/157 151/148/159
f 40/40/41 151/148/159 44/44/45
f 41/42/43 45/46/47 139/149/160
f 41/42/43 139/149/160 138/147/158
f 48/48/49 44/44/45 151/148/159
f 48/48/49 151/148/159 152/150/161
f 45/46/47 141/151/135 140/152/134
f 45/46/47 140/152/134 139/149/160
f 46/45/46 147/153/136 141/151/135
f 46/45/46 141/151/135 45/46/47
f 47/47/48 148/154/137 147/153/136
f 47/47/48 147/153/136 46/45/46
f 47/47/48 48/48/49 149/155/162
f 47/47/48 149/155/162 148/154/137
f 48/48/49 152/150/161 150/156/163
f 48/48/49 150/156/163 149/155/164
f 49/51/52 135/157/155 133/158/115
f 49/51/52 133/158/115 132/159/114
f 132/159/114 134/160/118 50/52/53
f 132/159/114 50/52/53 49/51/52
f 51/54/165 50/52/53 134/160/118
f 51/54/165 134/160/118 112/161/122
f 113/162/166 52/55/58 51/54/165
f 113/162/166 51/54/165 112/161/122
f 103/163/167 104/164/168 52/55/58
f 103/163/167 52/55/58 113/162/169
f 53/50/51 146/165/157 135/157/155
f 53/50/51 135/157/155 49/51/52
f 56/56/59 52/55/58 104/164/170
f 56/56/59 104/164/170 105/166/171
f 146/165/157 53/50/51 57/58/61
f 146/165/157 57/58/61 151/167/159
f 56/56/59 105/166/171 108/168/172
f 56/56/59 108/168/172 60/60/64
f 57/58/61 61/61/66 152/169/161
f 57/58/61 152/169/161 151/167/159
f 64/64/72 60/60/64 108/168/172
f 64/64/72 108/168/172 124/170/173
f 61/61/66 142/171/141 150/172/174
f 61/61/66 150/172/174 152/169/161
f 62/62/67 143/173/143 142/171/141
f 62/62/67 142/171/141 61/61/66
f 63/63/69 119/174/145 143/173/143
f 63/63/69 143/173/143 62/62/67
f 64/64/72 120/175/147 119/174/145
f 64/64/72 119/174/145 63/63/69
f 64/64/72 124/170/173 123/176/153
f 64/64/72 123/176/153 120/175/147
f 102/177/175 65/68/76 104/178/176
f 102/177/175 104/178/176 103/179/167
f 102/177/175 101/180/177 66/65/73
f 102/177/175 66/65/73 65/68/76
f 66/65/73 101/180/178 100/181/128
f 66/65/73 100/181/128 67/70/78
f 68/71/79 67/70/78 100/181/128
f 68/71/79 100/181/128 99/182/127
f 99/182/127 111/183/126 97/184/179
f 99/182/127 97/184/179 68/71/79
f 69/67/75 105/185/171 104/178/176
f 69/67/75 104/178/176 65/68/76
f 68/71/79 97/184/179 98/186/180
f 68/71/79 98/186/180 72/72/80
f 73/74/82 108/187/172 105/185/171
f 73/74/82 105/185/171 69/67/75
f 72/72/80 98/186/180 106/188/181
f 72/72/80 106/188/181 76/76/84
f 73/74/82 77/78/86 124/189/173
f 73/74/82 124/189/173 108/187/172
f 76/76/84 106/188/181 116/190/182
f 76/76/84 116/190/182 80/80/88
f 77/78/86 122/191/152 123/192/153
f 77/78/86 123/192/153 124/189/173
f 78/77/85 121/193/151 122/191/152
f 78/77/85 122/191/152 77/78/86
f 79/79/89 107/194/150 121/193/151
f 79/79/89 121/193/151 78/77/85
f 79/79/183 80/80/88 117/195/148
f 79/79/183 117/195/148 107/194/150
f 118/196/149 117/195/148 80/80/88
f 118/196/149 80/80/88 116/190/182
f 81/83/92 97/197/179 111/198/126
f 81/83/92 111/198/126 110/199/124
f 109/200/119 82/84/93 81/83/92
f 109/200/119 81/83/92 110/199/124
f 82/84/93 109/200/119 125/201/184
f 82/84/93 125/201/184 83/86/95
f 83/86/95 125/201/121 130/202/185
f 83/86/95 130/202/185 84/87/96
f 84/87/96 130/202/185 129/203/107
f 84/87/96 129/203/107 126/204/154
f 97/197/179 81/83/92 85/82/91
f 97/197/179 85/82/91 98/205/180
f 88/88/97 84/87/96 126/204/154
f 88/88/97 126/204/154 127/206/156
f 85/82/91 89/90/99 106/207/181
f 85/82/91 106/207/181 98/205/180
f 92/92/101 88/88/97 127/206/156
f 92/92/101 127/206/156 138/208/158
f 93/94/103 116/209/182 106/207/181
f 93/94/103 106/207/181 89/90/99
f 92/92/101 138/208/158 139/210/160
f 92/92/101 139/210/160 96/96/105
f 93/94/103 115/211/146 118/212/149
f 93/94/103 118/212/149 116/209/182
f 94/93/102 114/213/144 115/211/146
f 94/93/102 115/211/146 93/94/103
f 94/93/102 95/95/104 137/214/142
f 94/93/102 137/214/142 114/213/144
f 95/95/104 96/96/105 136/215/133
f 95/95/104 136/215/133 137/214/142
f 96/96/105 139/210/160 140/216/134
f 96/96/105 140/216/134 136/215/133
