# OBJ written from E:\3d\3D-Objekte\todo\rocks\meshes\rock3.obj

o Mesh
v 0.467484 -0.813613 -0.480696
v -0.158028 -0.803328 -0.414225
v -0.797436 -0.789646 -0.346154
v -1.54692 -0.897274 -0.389979
v 0.612328 -0.978628 -0.156556
v -0.139821 -0.887436 -0.0320899
v -0.816545 -0.865403 0.0300896
v -1.64237 -0.960489 0.0618985
v 0.709313 -0.999452 0.306142
v -0.0455227 -1.03115 0.430183
v -0.805717 -0.917793 0.464523
v -1.59126 -0.972693 0.52909
v 0.446198 -0.773384 0.664691
v -0.131091 -0.782313 0.712777
v -0.695664 -0.766744 0.737071
v -1.24419 -0.75392 0.790794
v 0.414331 0.563616 -0.438676
v -0.0848703 0.733536 -0.535586
v -0.772847 0.745971 -0.498137
v -1.44635 0.735053 -0.400046
v 0.733596 0.765181 -0.191109
v 0.0368099 0.832764 -0.16289
v -0.708188 0.728193 -0.0758426
v -1.42887 0.730086 0.00219083
v 1.1793 1.03115 0.317739
v 0.133446 0.953779 0.340507
v -0.695184 0.835487 0.382642
v -1.46616 0.824598 0.464387
v 1.0533 0.924412 0.845106
v 0.0827255 0.725664 0.767772
v -0.635001 0.600828 0.716136
v -1.19305 0.568822 0.752668
v 0.707911 -0.658372 -1.16739
v -0.0500517 -0.699553 -1.24195
v -0.959498 -0.644592 -1.12509
v -1.61346 -0.557083 -0.843179
v 0.663952 -0.274226 -1.13097
v -0.0881548 -0.2803 -1.47928
v -0.893499 -0.202278 -1.03334
v -1.47073 -0.189651 -0.748374
v 0.441849 0.0361491 -0.872332
v -0.0837135 0.171893 -1.36783
v -0.868748 0.143869 -0.984267
v -1.40837 0.0989129 -0.724257
v 0.405479 0.29608 -0.830107
v -0.0737801 0.482186 -1.09393
v -0.838692 0.511179 -1.02406
v -1.32308 0.353881 -0.686373
v -2.12051 -0.532088 -0.252898
v -2.15637 -0.534025 0.155441
v -2.49193 -0.657838 0.644792
v -2.25157 -0.613931 1.05917
v -1.94742 -0.202401 -0.233365
v -2.49286 -0.265886 0.113557
v -2.21527 -0.246788 0.570745
v -2.09554 -0.250925 0.97821
v -1.86843 0.0841562 -0.251319
v -2.39646 0.116062 0.0654366
v -1.86719 0.0733128 0.470351
v -1.81352 0.0595175 0.840015
v -1.74509 0.326786 -0.264037
v -2.26288 0.459348 0.0631382
v -2.02798 0.407095 0.48159
v -1.84775 0.351761 0.821943
v -1.37473 -0.576696 1.29023
v -0.780787 -0.715663 1.45818
v -0.0173759 -0.629981 1.26505
v 0.409717 -0.503571 0.936975
v -1.31045 -0.256108 1.22196
v -0.758116 -0.351078 1.47928
v 0.0684223 -0.327283 1.38625
v 0.524715 -0.258358 0.98789
v -1.27697 0.0411498 1.23603
v -0.656806 0.0226772 1.30375
v 0.0451593 0.0294636 1.13981
v 0.878013 0.0783682 1.23857
v -1.07574 0.263039 1.02215
v -0.544371 0.268789 1.04394
v 0.0490713 0.283796 0.992895
v 0.733933 0.33695 1.0213
v 1.11888 -0.529785 0.593488
v 1.74068 -0.703943 0.240165
v 1.96063 -0.809207 -0.377406
v 1.77219 -0.686656 -0.859313
v 1.40232 -0.278681 0.667104
v 2.13988 -0.340768 0.276204
v 2.43657 -0.368181 -0.398215
v 1.48093 -0.246434 -0.718184
v 2.07063 0.133531 0.840578
v 2.49286 0.152235 0.263826
v 1.95419 0.10242 -0.312899
v 1.0893 0.0593557 -0.53328
v 1.94565 0.525188 0.707301
v 2.12469 0.58168 0.175794
v 1.36774 0.378332 -0.21391
v 0.945007 0.277978 -0.474986
v 0.330379 -0.690984 0.894138
v 0.71418 -0.621862 0.757592
v 0.778672 -0.443727 0.772014
v 0.925638 -0.244278 0.849699
v -0.145647 -0.708999 0.931734
v -0.648746 -0.74393 1.00983
v -1.12345 -0.687982 1.02333
v -1.9445 -0.798819 0.917084
v -1.67316 -0.692093 1.10891
v -1.76291 -0.466112 1.17525
v -1.70198 -0.213942 1.13003
v 1.61971 0.770925 0.65442
v 1.33272 0.654176 1.00788
v 1.35927 0.0470605 1.03909
v 1.52666 0.37911 1.0751
v 0.635495 0.600026 1.01368
v 0.018486 0.568169 0.997946
v -0.536142 0.449307 0.893631
v -0.98952 0.426616 0.879438
v -1.47306 0.44304 0.960537
v -1.68905 0.0399703 1.12054
v -1.66707 0.303754 1.10437
v 1.49526 -1.02389 0.238803
v 1.06229 -0.797946 0.576446
v -1.77921 -0.702034 0.155349
v -2.05721 -0.821557 0.554494
v 1.62625 0.771247 0.181892
v -2.11932 0.780191 0.534465
v -1.77868 0.593235 0.790813
v 1.40393 -0.993529 -0.235131
v 0.384869 -0.748612 -0.73165
v 0.885768 -0.723612 -0.788892
v 1.154 -0.845721 -0.57924
v -1.82306 -0.659037 -0.160849
v -1.88129 -0.716931 -0.541835
v -1.93928 -0.461835 -0.564374
v -1.76248 -0.174616 -0.482136
v 0.728952 0.437236 -0.393765
v 0.599259 0.375442 -0.580821
v 0.292361 0.462948 -0.652957
v 1.09995 0.560272 -0.174805
v 0.761299 0.0221481 -0.705966
v 0.726746 0.22265 -0.6825
v -1.2458 0.580747 -0.616799
v -1.7012 0.547685 -0.239722
v -1.45088 0.438033 -0.417002
v -2.06895 0.728226 0.0936596
v -1.69878 0.0608694 -0.491652
v -1.49302 0.25842 -0.443625
v 1.29837 -0.569947 -1.09527
v 0.979296 -0.218165 -0.858639
v -0.165586 -0.771842 -0.772671
v -0.793596 -0.785308 -0.759766
v -1.52472 -0.839776 -0.786866
v -0.141536 0.611134 -0.808203
v -0.723922 0.644705 -0.758023
vn -0.0812802 -0.979413 -0.18478
vn -0.0629869 -0.989571 -0.129548
vn -0.0774921 -0.972135 -0.221242
vn -0.049502 -0.983977 -0.171286
vn 0.00426943 -0.987236 -0.159209
vn 0.0448403 -0.995164 -0.0874003
vn -0.280875 -0.953293 -0.111095
vn -0.400032 -0.904164 -0.14987
vn 0.0425147 -0.961188 0.2726
vn -0.0203229 -0.966768 0.254846
vn -0.00606597 -0.969341 0.245643
vn -0.00546003 -0.988935 0.148247
vn 0.0717701 -0.812555 0.578449
vn 0.0174207 -0.900026 0.435489
vn -0.00511824 -0.933803 0.35775
vn 0.0670558 -0.970626 0.23106
vn -0.0701161 0.974714 -0.212171
vn 0.149717 0.818355 -0.554869
vn 0.296028 0.783984 -0.545653
vn 0.0803497 0.956973 -0.278829
vn -0.0785993 0.993451 -0.0829271
vn -0.0513279 0.983305 -0.174576
vn -0.222172 0.857293 -0.464423
vn -0.0509689 0.969635 -0.239188
vn 0.121444 0.979792 -0.158929
vn -0.105261 0.994416 0.00753835
vn -0.0649099 0.984762 0.161338
vn -0.0162657 0.975705 0.218484
vn -0.143156 0.894462 0.423608
vn 0.114241 0.820509 0.560102
vn -0.0598303 0.830711 0.553479
vn 0.0345825 0.787541 0.615291
vn -0.00453065 -0.72126 -0.692649
vn -0.0131981 0.0466637 -0.998823
vn 0.261608 0.301592 -0.916844
vn 0.12991 -0.695863 -0.706328
vn -0.144395 0.0959884 -0.984853
vn -0.343549 0.210303 -0.915285
vn -0.394808 0.0340063 -0.918134
vn -0.499738 0.252869 -0.828444
vn 0.0537966 0.255877 -0.965211
vn 0.494947 0.428031 -0.756186
vn -0.442746 0.0629774 -0.894433
vn -0.536367 0.254362 -0.804743
vn 0.222416 0.693325 -0.685442
vn 0.531739 0.615301 -0.581944
vn -0.329479 0.33016 -0.884555
vn -0.555652 0.374304 -0.742393
vn -0.69343 0.255856 -0.673567
vn -0.729778 -0.0533276 -0.681601
vn -0.711938 -0.0148772 -0.702085
vn -0.63801 0.278558 -0.717878
vn -0.960288 0.102884 -0.259348
vn -0.712913 0.668897 0.21055
vn -0.740642 0.478158 -0.472031
vn -0.831714 0.554393 -0.0300142
vn -0.562344 0.479642 0.673583
vn -0.541357 0.607877 0.580877
vn -0.503701 0.103696 -0.857632
vn -0.65538 0.190613 -0.730852
vn -0.77062 0.366214 0.521567
vn -0.516854 0.457073 0.723841
vn -0.73162 0.670911 0.120875
vn -0.836076 0.268184 0.478596
vn -0.723822 0.13614 -0.676423
vn -0.552003 0.286403 -0.783113
vn -0.919822 -0.194612 0.340666
vn -0.911936 0.002964 0.410322
vn -0.893504 -0.264557 0.362851
vn -0.0879732 -0.706793 0.701929
vn -0.0418103 0.193908 0.980128
vn -0.216334 0.161966 0.962791
vn -0.360017 -0.605453 0.709799
vn 0.287293 -0.519221 0.804905
vn 0.389408 -0.265222 0.882054
vn 0.360387 -0.354588 0.862779
vn 0.429182 -0.597364 0.677465
vn 0.0379194 0.527611 0.848639
vn -0.155808 0.514515 0.843207
vn 0.201259 0.225219 0.953295
vn 0.235732 -0.594997 0.768381
vn 0.0501714 0.490953 0.86974
vn -0.0294982 0.693202 0.72014
vn 0.0293236 0.277765 0.960202
vn -0.102827 0.277154 0.955307
vn -0.0803451 0.177683 0.980802
vn 0.47394 -0.631132 0.614047
vn 0.580359 -0.522676 0.624494
vn 0.332067 -0.505484 0.796378
vn 0.357164 -0.3665 0.859134
vn 0.711291 -0.616319 0.337958
vn 0.406495 -0.906869 0.111132
vn 0.639704 0.684285 -0.350046
vn 0.461219 0.724775 -0.511839
vn 0.90279 0.381687 -0.198203
vn 0.797601 0.580379 -0.164296
vn 0.729518 -0.079149 0.679366
vn 0.466839 0.00172412 0.884341
vn 0.937378 -0.273784 0.215324
vn 0.763507 -0.537666 0.357731
vn 0.268339 0.639409 -0.72052
vn 0.270995 0.755357 -0.596655
vn 0.581886 0.703916 -0.407322
vn 0.827853 0.254393 0.499944
vn 0.448922 0.883413 -0.134352
vn 0.412609 0.680735 0.605272
vn 0.249669 0.709315 -0.659194
vn 0.540886 0.839755 0.0474644
vn 0.287393 0.640355 -0.712285
vn 0.0305492 -0.990432 -0.134581
vn 0.0323988 -0.963705 -0.264997
vn -0.000260345 -0.94117 -0.337934
vn -0.015658 -0.994713 -0.101495
vn 0.0263415 -0.936816 -0.348829
vn -0.365693 -0.711499 -0.600032
vn -0.606922 -0.767096 -0.207869
vn -0.573573 -0.691542 -0.439072
vn 0.105559 -0.988127 -0.111638
vn -0.530228 -0.824885 -0.196015
vn 0.216375 -0.860501 0.461216
vn -0.234948 -0.971314 -0.0367248
vn 0.242407 -0.512521 0.823748
vn -0.032127 -0.935179 0.352715
vn 0.294272 -0.386073 0.874272
vn 0.157696 -0.584409 0.795989
vn 0.0689509 -0.900708 0.428919
vn -0.0324298 -0.997144 0.0682107
vn -0.112229 -0.988129 0.104908
vn -0.0731168 -0.911506 0.404736
vn 0.325744 0.677117 -0.659852
vn 0.37344 0.757839 -0.534998
vn 0.406346 0.800166 -0.441155
vn 0.212905 0.894467 -0.393193
vn -0.0963915 0.828067 -0.55228
vn -0.504306 0.537721 -0.675671
vn -0.672009 0.281966 -0.684763
vn -0.436771 0.439467 -0.78492
vn 0.26284 0.643064 -0.719294
vn -0.211386 0.796737 -0.566151
vn 0.330783 0.908794 -0.254314
vn -0.0389605 0.967478 0.249937
vn 0.390299 0.707466 0.589202
vn -0.0875822 0.830543 0.550025
vn 0.00157366 0.294377 0.955688
vn 0.22308 0.313846 0.922895
vn -0.100537 0.473387 0.875099
vn -0.0369327 0.604266 0.795926
vn 0.0461256 0.709769 0.702922
vn -0.0433665 0.794032 0.606327
vn 0.0885976 -0.954844 -0.283589
vn -0.019246 -0.709489 -0.704454
vn -0.158864 -0.223616 -0.961644
vn -0.704777 -0.121 -0.699034
vn 0.235331 0.680338 -0.694089
vn 0.266966 0.702057 -0.660186
vn -0.716259 0.316442 -0.621963
vn 0.367888 0.543627 -0.754405
vn -0.698958 0.361497 -0.617072
vn 0.41094 0.573992 -0.708281
vn -0.672375 0.419748 -0.609691
vn -0.539126 -0.658754 -0.524773
vn -0.393707 -0.883696 -0.253133
vn -0.343658 -0.917006 -0.202483
vn -0.731754 -0.332176 -0.595143
vn -0.711728 -0.633758 -0.302976
vn -0.351035 -0.930876 -0.101211
vn -0.155839 -0.812937 0.561112
vn -0.25604 -0.50679 0.823169
vn -0.273798 -0.324904 0.905247
vn -0.696317 0.40084 -0.595374
vn -0.453755 0.122424 0.882677
vn -0.290706 0.304866 0.906944
vn -0.462895 0.370029 0.805486
vn -0.900068 0.0276634 0.434871
vn -0.359821 0.638348 0.680471
vn -0.516671 0.657465 -0.548444
vn -0.951067 -0.257119 0.171352
vn -0.833678 0.100964 -0.542943
vn -0.907838 0.215716 -0.359579
vn -0.777648 0.378638 0.501893
vn -0.355424 0.681585 0.639621
vn -0.824362 0.210107 0.525626
vn 0.342667 -0.34532 0.873689
vn 0.274436 -0.586046 0.762388
vn 0.183793 -0.32774 0.926718
vn 0.116686 0.298631 0.947209
vn 0.163709 -0.324995 0.931439
vn 0.0654761 -0.922834 -0.379593
vt 0.533841 0.95622
vt 0.533703 0.942691
vt 0.546326 0.941685
vt 0.549383 0.954676
vt 0.520465 0.957258
vt 0.520956 0.94403
vt 0.503665 0.957316
vt 0.504906 0.942329
vt 0.551065 0.97035
vt 0.536218 0.972564
vt 0.52042 0.973029
vt 0.504357 0.972168
vt 0.546603 0.986137
vt 0.534134 0.98646
vt 0.521901 0.985597
vt 0.510092 0.985649
vt 0.448931 0.901847
vt 0.463655 0.903179
vt 0.459976 0.916106
vt 0.446075 0.914969
vt 0.433166 0.899281
vt 0.431508 0.913683
vt 0.418144 0.909908
vt 0.418236 0.897094
vt 0.471603 0.883765
vt 0.451431 0.883911
vt 0.43429 0.882312
vt 0.418539 0.880769
vt 0.450286 0.866121
vt 0.471303 0.869027
vt 0.434721 0.865781
vt 0.423394 0.864967
vt 0.558796 0.791486
vt 0.541397 0.793586
vt 0.540051 0.77499
vt 0.557398 0.775898
vt 0.559303 0.809559
vt 0.539942 0.813518
vt 0.558414 0.824829
vt 0.540416 0.827581
vt 0.524161 0.795286
vt 0.522767 0.774738
vt 0.524427 0.814122
vt 0.526309 0.827438
vt 0.509717 0.795638
vt 0.511208 0.779201
vt 0.509104 0.810627
vt 0.513777 0.825564
vt 0.449295 0.938965
vt 0.4644 0.940165
vt 0.46478 0.953699
vt 0.451932 0.953641
vt 0.468214 0.970138
vt 0.450655 0.969752
vt 0.467102 0.98339
vt 0.451465 0.984276
vt 0.435454 0.95278
vt 0.435601 0.938208
vt 0.435538 0.970604
vt 0.436317 0.983004
vt 0.420589 0.95372
vt 0.423971 0.938238
vt 0.421372 0.969151
vt 0.423126 0.981981
vt 0.536719 0.910412
vt 0.536325 0.896754
vt 0.550513 0.892208
vt 0.549779 0.907598
vt 0.521936 0.910739
vt 0.519916 0.897031
vt 0.508194 0.910475
vt 0.505928 0.898213
vt 0.534741 0.880504
vt 0.548156 0.87865
vt 0.519011 0.880389
vt 0.502271 0.880691
vt 0.532289 0.866898
vt 0.544308 0.866245
vt 0.519463 0.867522
vt 0.504562 0.867654
vt 0.475792 0.796041
vt 0.457445 0.79475
vt 0.460072 0.775863
vt 0.472925 0.777389
vt 0.45808 0.814904
vt 0.477348 0.817316
vt 0.472198 0.833018
vt 0.451393 0.835977
vt 0.436343 0.795356
vt 0.436489 0.777116
vt 0.43731 0.816471
vt 0.433622 0.836274
vt 0.417464 0.798016
vt 0.419391 0.780583
vt 0.420577 0.820583
vt 0.423008 0.834099
vt 0.545084 0.932747
vt 0.555454 0.931787
vt 0.560573 0.940902
vt 0.533586 0.930546
vt 0.520521 0.930336
vt 0.505315 0.92901
vt 0.492057 0.947469
vt 0.495431 0.934985
vt 0.565387 0.953959
vt 0.492374 0.958544
vt 0.567011 0.968887
vt 0.493929 0.973439
vt 0.558971 0.982851
vt 0.495377 0.985285
vt 0.553725 0.992866
vt 0.54456 0.994339
vt 0.533813 0.994379
vt 0.522341 0.994989
vt 0.511525 0.994381
vt 0.499729 0.994277
vt 0.469155 0.917659
vt 0.466501 0.924434
vt 0.458046 0.924917
vt 0.444572 0.925787
vt 0.431583 0.923601
vt 0.419088 0.920155
vt 0.408584 0.917824
vt 0.408383 0.90822
vt 0.475146 0.907692
vt 0.40552 0.8939
vt 0.484304 0.88975
vt 0.404975 0.879185
vt 0.484119 0.871975
vt 0.411217 0.866394
vt 0.464025 0.855043
vt 0.478619 0.859063
vt 0.449544 0.855481
vt 0.43625 0.856175
vt 0.42713 0.856681
vt 0.416859 0.856679
vt 0.555181 0.763071
vt 0.569132 0.769204
vt 0.573612 0.779329
vt 0.574332 0.792608
vt 0.572973 0.807554
vt 0.57111 0.822879
vt 0.567172 0.834536
vt 0.5551 0.836486
vt 0.535629 0.764323
vt 0.540002 0.837945
vt 0.521408 0.765998
vt 0.527631 0.836927
vt 0.511536 0.7696
vt 0.516307 0.835066
vt 0.501138 0.780904
vt 0.503391 0.77245
vt 0.498942 0.795686
vt 0.498787 0.811148
vt 0.502783 0.824049
vt 0.507558 0.833435
vt 0.462451 0.929431
vt 0.473617 0.930069
vt 0.472787 0.942685
vt 0.47615 0.952729
vt 0.478803 0.968289
vt 0.477419 0.982681
vt 0.473255 0.992647
vt 0.462139 0.994251
vt 0.447962 0.930094
vt 0.449122 0.994007
vt 0.436223 0.929756
vt 0.437317 0.992893
vt 0.425417 0.930225
vt 0.425068 0.992485
vt 0.414115 0.940459
vt 0.417189 0.932104
vt 0.408418 0.954571
vt 0.404975 0.968837
vt 0.412567 0.980753
vt 0.416945 0.99053
vt 0.558851 0.903751
vt 0.558104 0.913985
vt 0.547798 0.918675
vt 0.53559 0.923255
vt 0.520945 0.922356
vt 0.510631 0.918794
vt 0.501025 0.917259
vt 0.498801 0.909126
vt 0.559282 0.890618
vt 0.496643 0.89896
vt 0.557604 0.877829
vt 0.491662 0.882123
vt 0.556884 0.865829
vt 0.487948 0.86844
vt 0.542405 0.857397
vt 0.552968 0.857913
vt 0.531946 0.857523
vt 0.518245 0.855043
vt 0.504892 0.855804
vt 0.490161 0.855781
vt 0.484985 0.781267
vt 0.472081 0.767426
vt 0.480181 0.769696
vt 0.491354 0.797704
vt 0.4915 0.814638
vt 0.489283 0.831127
vt 0.486955 0.843163
vt 0.470386 0.846724
vt 0.462394 0.764358
vt 0.448546 0.847756
vt 0.44273 0.763071
vt 0.434015 0.845888
vt 0.425455 0.765352
vt 0.424279 0.843369
vt 0.406049 0.781544
vt 0.41087 0.766799
vt 0.404975 0.800164
vt 0.410243 0.821341
vt 0.41368 0.833427
vt 0.416057 0.840705
mtllib rock.mtl
usemtl rock
quads
f 6/1/1 2/2/2 1/3/3 5/4/4
f 6/1/1 7/5/5 3/6/6 2/2/2
f 8/7/7 4/8/8 3/6/6 7/5/5
f 9/9/9 10/10/10 6/1/1 5/4/4
f 10/10/10 11/11/11 7/5/5 6/1/1
f 8/7/7 7/5/5 11/11/11 12/12/12
f 9/9/9 13/13/13 14/14/14 10/10/10
f 10/10/10 14/14/14 15/15/15 11/11/11
f 12/12/12 11/11/11 15/15/15 16/16/16
f 22/17/17 21/18/18 17/19/19 18/20/20
f 23/21/21 22/17/17 18/20/20 19/22/22
f 23/21/21 19/22/22 20/23/23 24/24/24
f 25/25/25 21/18/18 22/17/17 26/26/26
f 26/26/26 22/17/17 23/21/21 27/27/27
f 27/27/27 23/21/21 24/24/24 28/28/28
f 25/25/25 26/26/26 30/29/29 29/30/30
f 26/26/26 27/27/27 31/31/31 30/29/29
f 27/27/27 28/28/28 32/32/32 31/31/31
f 34/33/33 38/34/34 37/35/35 33/36/36
f 35/37/37 39/38/38 38/34/34 34/33/33
f 35/37/37 36/39/39 40/40/40 39/38/38
f 38/34/34 42/41/41 41/42/42 37/35/35
f 38/34/34 39/38/38 43/43/43 42/41/41
f 39/38/38 40/40/40 44/44/44 43/43/43
f 42/41/41 46/45/45 45/46/46 41/42/42
f 43/43/43 47/47/47 46/45/45 42/41/41
f 43/43/43 44/44/44 48/48/48 47/47/47
f 53/49/49 49/50/50 50/51/51 54/52/52
f 51/53/53 55/54/54 54/52/55 50/51/51
f 51/53/56 52/55/57 56/56/58 55/54/54
f 58/57/59 57/58/60 53/49/49 54/52/52
f 59/59/61 58/57/62 54/52/63 55/54/54
f 55/54/54 56/56/58 60/60/64 59/59/61
f 62/61/65 61/62/66 57/58/60 58/57/59
f 58/57/62 59/59/61 63/63/67 62/61/68
f 59/59/61 60/60/64 64/64/69 63/63/67
f 66/65/70 70/66/71 69/67/72 65/68/73
f 70/66/71 66/65/70 67/69/74 71/70/75
f 71/70/75 67/69/74 68/71/76 72/72/77
f 74/73/78 73/74/79 69/67/72 70/66/71
f 70/66/71 71/70/75 75/75/80 74/73/78
f 72/72/77 76/76/81 75/75/80 71/70/75
f 74/73/78 78/77/82 77/78/83 73/74/79
f 75/75/80 79/79/84 78/77/82 74/73/78
f 76/76/85 80/80/86 79/79/84 75/75/80
f 82/81/87 86/82/88 85/83/89 81/84/90
f 87/85/91 86/82/88 82/81/87 83/86/92
f 84/87/93 88/88/94 87/85/95 83/86/96
f 86/82/88 90/89/97 89/90/98 85/83/89
f 86/82/88 87/85/99 91/91/100 90/89/97
f 88/88/94 92/92/101 91/91/102 87/85/103
f 90/89/104 94/93/105 93/94/106 89/90/98
f 91/91/102 95/95/107 94/93/105 90/89/108
f 91/91/102 92/92/101 96/96/109 95/95/107
f 1/3/3 127/97/110 128/98/111 129/99/112
f 2/2/2 148/100/113 127/97/110 1/3/3
f 3/6/6 149/101/114 148/100/113 2/2/2
f 3/6/6 4/8/8 150/102/115 149/101/114
f 4/8/8 130/103/116 131/104/117 150/102/115
f 126/105/118 5/4/4 1/3/3 129/99/112
f 8/7/7 121/106/119 130/103/116 4/8/8
f 126/105/118 119/107/120 9/9/9 5/4/4
f 12/12/12 122/108/121 121/106/119 8/7/7
f 9/9/9 119/107/120 120/109/122 13/13/13
f 104/110/123 122/108/121 12/12/12 16/16/16
f 120/109/122 98/111/124 97/112/125 13/13/13
f 13/13/13 97/112/125 101/113/126 14/14/14
f 15/15/15 14/14/14 101/113/126 102/114/127
f 15/15/15 102/114/127 103/115/128 16/16/16
f 16/16/16 103/115/128 105/116/129 104/110/123
f 17/19/19 134/117/130 135/118/131 136/119/132
f 18/20/20 17/19/19 136/119/132 151/120/133
f 18/20/20 151/120/133 152/121/134 19/22/22
f 19/22/22 152/121/134 140/122/135 20/23/23
f 20/23/23 140/122/135 142/123/136 141/124/137
f 21/18/18 137/125/138 134/117/130 17/19/19
f 143/126/139 24/24/24 20/23/23 141/124/137
f 25/25/25 123/127/140 137/125/138 21/18/18
f 28/28/28 24/24/24 143/126/139 124/128/141
f 29/30/30 108/129/142 123/127/140 25/25/25
f 28/28/28 124/128/141 125/130/143 32/32/32
f 29/30/30 112/131/144 109/132/145 108/129/142
f 30/29/29 113/133/146 112/131/144 29/30/30
f 30/29/29 31/31/31 114/134/147 113/133/146
f 31/31/31 32/32/32 115/135/148 114/134/147
f 125/130/143 116/136/149 115/135/148 32/32/32
f 33/36/36 146/137/150 128/138/111 127/139/110
f 34/33/33 33/36/36 127/139/110 148/140/113
f 34/33/33 148/140/113 149/141/114 35/37/151
f 150/142/115 36/39/39 35/37/152 149/141/114
f 150/142/115 131/143/117 132/144/153 36/39/39
f 146/137/154 33/36/36 37/35/35 147/145/155
f 36/39/39 132/144/153 133/146/156 40/40/40
f 37/35/35 41/42/42 138/147/157 147/145/155
f 40/40/40 133/146/156 144/148/158 44/44/44
f 41/42/42 45/46/46 139/149/159 138/147/157
f 144/148/158 145/150/160 48/48/48 44/44/44
f 45/46/46 136/151/132 135/152/131 139/149/159
f 46/45/45 151/153/133 136/151/132 45/46/46
f 46/45/45 47/47/47 152/154/134 151/153/133
f 140/155/135 152/154/134 47/47/47 48/48/48
f 48/48/48 145/150/160 142/156/136 140/155/135
f 49/50/161 132/157/153 131/158/117 130/159/116
f 50/51/162 49/50/163 130/159/116 121/160/119
f 50/51/164 121/160/119 122/161/121 51/53/165
f 51/53/166 122/161/121 104/162/123 52/55/167
f 52/55/168 104/162/123 105/163/129 106/164/169
f 49/50/170 53/49/49 133/165/156 132/157/153
f 52/55/171 106/164/169 107/166/172 56/56/58
f 53/49/49 57/58/60 144/167/158 133/165/156
f 56/56/58 107/166/172 117/168/173 60/60/64
f 57/58/60 61/62/66 145/169/160 144/167/158
f 64/64/174 60/60/64 117/168/173 118/170/175
f 141/171/137 142/172/136 145/169/160 61/62/66
f 62/61/65 143/173/176 141/171/137 61/62/66
f 124/174/177 143/173/178 62/61/179 63/63/67
f 63/63/67 64/64/174 125/175/180 124/174/177
f 118/170/175 116/176/149 125/175/181 64/64/182
f 65/68/73 106/177/169 105/178/129 103/179/128
f 66/65/70 65/68/73 103/179/128 102/180/127
f 66/65/70 102/180/127 101/181/126 67/69/74
f 97/182/125 68/71/76 67/69/74 101/181/126
f 97/182/125 98/183/124 99/184/183 68/71/76
f 65/68/73 69/67/72 107/185/172 106/177/169
f 72/72/77 68/71/76 99/184/183 100/186/184
f 73/74/79 117/187/173 107/185/172 69/67/72
f 76/76/81 72/72/77 100/186/184 110/188/185
f 73/74/79 77/78/83 118/189/175 117/187/173
f 111/190/186 80/80/86 76/76/187 110/188/185
f 77/78/83 115/191/148 116/192/149 118/189/175
f 78/77/82 114/193/147 115/191/148 77/78/83
f 79/79/84 113/194/146 114/193/147 78/77/82
f 79/79/84 80/80/86 112/195/144 113/194/146
f 111/190/186 109/196/145 112/195/144 80/80/86
f 120/197/122 81/84/90 99/198/183 98/199/124
f 82/81/87 81/84/90 120/197/122 119/200/120
f 83/86/92 82/81/87 119/200/120 126/201/118
f 84/87/188 83/86/92 126/201/118 129/202/112
f 84/87/188 129/202/112 128/203/111 146/204/150
f 85/83/89 100/205/184 99/198/183 81/84/90
f 146/204/154 147/206/155 88/88/94 84/87/93
f 89/90/98 110/207/185 100/205/184 85/83/89
f 88/88/94 147/206/155 138/208/157 92/92/101
f 89/90/98 93/94/106 111/209/186 110/207/185
f 92/92/101 138/208/157 139/210/159 96/96/109
f 93/94/106 108/211/142 109/212/145 111/209/186
f 94/93/105 123/213/140 108/211/142 93/94/106
f 94/93/105 95/95/107 137/214/138 123/213/140
f 96/96/109 134/215/130 137/214/138 95/95/107
f 96/96/109 139/210/159 135/216/131 134/215/130
