# OBJ written from E:\3d\3D-Objekte\todo\rocks\meshes\rock4.obj

o Mesh
v 0.757196 -1.11061 0.447814
v 0.60808 -1.09664 0.0298543
v 0.401199 -0.919655 -0.377952
v 0.264212 -0.826607 -0.704997
v 0.267642 -1.03276 0.484457
v 0.218421 -1.31186 0.136736
v 0.031877 -1.02107 -0.312946
v -0.0690351 -0.977716 -0.679305
v -0.132463 -0.962486 0.552629
v -0.300875 -1.14878 0.229354
v -0.391127 -1.08942 -0.215264
v -0.455187 -0.990329 -0.588049
v -0.494907 -0.935537 0.621741
v -0.641618 -1.03311 0.298401
v -0.686907 -0.93593 -0.0895181
v -0.696723 -0.809504 -0.391784
v 0.625575 0.939948 0.371579
v 0.72555 1.22999 0.0299001
v 0.481411 1.01047 -0.363641
v 0.294278 0.832203 -0.584994
v 0.355348 1.11416 0.585267
v 0.287709 1.24369 0.176816
v 0.165314 1.20817 -0.299901
v -0.00156355 0.937683 -0.570261
v -0.0704532 1.11352 0.722896
v -0.191895 1.31186 0.321995
v -0.264478 1.04643 -0.142101
v -0.359417 0.927971 -0.478185
v -0.439284 0.899999 0.655203
v -0.538105 0.974568 0.325746
v -0.619409 0.919065 -0.0567498
v -0.600381 0.796286 -0.336089
v 1.02074 -0.603959 0.281505
v 1.05565 -0.636895 -0.0973277
v 0.762277 -0.474105 -0.451293
v 0.594477 -0.440327 -0.715132
v 1.19654 -0.226717 0.333501
v 1.22651 -0.194757 -0.120721
v 0.959889 -0.131879 -0.534841
v 0.686759 -0.118877 -0.8138
v 1.14432 0.210624 0.311771
v 1.13437 0.28505 -0.107957
v 1.01932 0.319237 -0.552185
v 0.741547 0.269536 -0.847802
v 1.07207 0.57681 0.293406
v 1.01608 0.650443 -0.0889611
v 0.788884 0.608423 -0.426157
v 0.62553 0.540306 -0.680201
v 0.171659 -0.449274 -0.990356
v -0.186967 -0.625694 -1.17009
v -0.593871 -0.593912 -1.00551
v -0.880029 -0.527526 -0.767816
v 0.22982 -0.161022 -1.13235
v -0.15288 -0.20561 -1.21351
v -0.659859 -0.225719 -1.16382
v -0.980112 -0.201519 -0.890583
v 0.302334 0.252037 -1.24699
v -0.120486 0.268894 -1.15794
v -0.550333 0.26017 -1.00072
v -0.932343 0.231129 -0.871788
v 0.255568 0.575371 -0.966588
v -0.083673 0.65537 -1.0491
v -0.429564 0.57502 -0.839349
v -0.76545 0.562325 -0.733963
v -0.992518 -0.501597 -0.311745
v -1.09147 -0.651764 -0.00201845
v -1.11452 -0.708861 0.439739
v -0.884919 -0.604406 0.74963
v -1.09867 -0.204992 -0.347112
v -1.22651 -0.306936 0.0225482
v -1.21117 -0.303944 0.50965
v -0.983226 -0.232517 0.900961
v -1.11653 0.170701 -0.331378
v -0.997205 0.128041 0.0303798
v -1.02052 0.173947 0.463623
v -0.928725 0.202942 0.877839
v -0.947799 0.47482 -0.264727
v -0.916694 0.472942 0.061667
v -0.88495 0.532518 0.441666
v -0.774563 0.537056 0.797457
v -0.348664 -0.535457 0.917675
v -0.0233827 -0.603703 0.920491
v 0.351012 -0.598092 0.833775
v 0.668193 -0.52452 0.680814
v -0.432076 -0.251131 1.23405
v 0.0183616 -0.258435 1.18938
v 0.424555 -0.226997 0.982913
v 0.74695 -0.177268 0.774547
v -0.397666 0.181402 1.14276
v 0.0210538 0.211481 1.24699
v 0.414865 0.205666 0.970103
v 0.737696 0.213039 0.753148
v -0.368511 0.569226 1.11004
v 0.0235572 0.611346 1.09972
v 0.449081 0.654924 1.00868
v 0.732712 0.576036 0.757191
v -0.760476 -0.830895 0.614274
v -0.552142 -0.672783 0.747429
v -0.908016 -0.917345 0.341057
v -0.873927 -0.813482 -0.0040164
v -0.883682 -0.712367 -0.270868
v -0.625949 -0.500198 0.910079
v -0.764941 -0.210722 1.13824
v -0.847314 -0.637852 -0.478721
v -0.979717 -0.442091 -0.555161
v -1.0468 -0.148782 -0.593887
v -0.683523 0.144832 1.02716
v -0.568696 0.424656 0.92976
v -1.09433 0.180739 -0.621327
v -0.983167 0.464555 -0.557163
v -0.671448 0.741019 0.659663
v -0.511315 0.658355 0.832737
v -0.781506 0.797405 0.376187
v -0.895193 0.802716 0.0551772
v -0.829788 0.706374 -0.24259
v -0.0370402 -0.761313 0.726732
v -0.314327 -0.710278 0.730225
v -0.522378 -0.868423 -0.865648
v -0.719651 -0.709732 -0.644939
v -0.792049 0.615981 -0.446821
v 0.0293269 0.865831 0.903267
v -0.276388 0.736278 0.84825
v -0.356648 0.740298 -0.659822
v -0.640258 0.742608 -0.594905
v 0.590218 -0.807462 0.575781
v 0.294266 -0.834993 0.695441
v 0.138576 -0.732577 -0.954157
v -0.16761 -0.842007 -0.915675
v 0.348016 -0.573161 -0.793372
v 0.387718 0.625642 -0.713244
v 0.677011 0.860822 0.676183
v 0.405747 0.954229 0.8982
v 0.199572 0.764562 -0.827006
v -0.0765777 0.800143 -0.792547
v 1.01703 -0.991259 0.293947
v 0.812907 -0.73484 0.479927
v 0.834 -0.862801 -0.074594
v 0.634617 -0.725951 -0.391875
v 0.523 -0.710913 -0.678295
v 0.894449 -0.466056 0.526969
v 0.967869 -0.153686 0.569609
v 0.430928 -0.369785 -0.889946
v 0.453863 -0.0991239 -0.978598
v 0.934585 0.17787 0.55066
v 0.972806 0.510485 0.572747
v 0.540093 0.232378 -1.05806
v 0.459683 0.48313 -0.850439
v 0.856749 0.722092 0.50557
v 0.940695 0.866076 0.275974
v 0.863862 0.902082 -0.0718894
v 0.692463 0.849489 -0.369332
v 0.532953 0.749422 -0.578702
vn 0.0437052 -0.977476 0.206474
vn -0.0882074 -0.828243 0.553384
vn -0.107698 -0.988802 -0.103303
vn 0.244454 -0.907684 -0.341103
vn 0.0716828 -0.933673 -0.35088
vn 0.349571 -0.827139 -0.440047
vn 0.160155 -0.938919 -0.304601
vn 0.346714 -0.852069 -0.392133
vn 0.00970744 -0.717276 0.696722
vn -0.215474 -0.959211 0.182992
vn -0.272665 -0.941792 -0.196674
vn -0.296475 -0.928621 -0.223083
vn -0.0839034 -0.690552 0.7184
vn -0.272978 -0.946188 0.173812
vn -0.463424 -0.869778 -0.16948
vn -0.584932 -0.782489 -0.213461
vn 0.503113 0.862083 -0.0607421
vn 0.160994 0.959628 0.230641
vn 0.29548 0.838525 0.457785
vn 0.540655 0.791391 0.285294
vn 0.251143 0.770531 -0.58584
vn -0.0168582 0.951071 -0.308513
vn 0.380704 0.709386 -0.593157
vn -0.00764071 0.874601 -0.484782
vn -0.189914 0.976348 0.103326
vn -0.173549 0.791248 0.586351
vn -0.275669 0.931288 -0.238139
vn -0.405524 0.831376 -0.379952
vn -0.515435 0.851121 0.099602
vn -0.483016 0.618589 0.619712
vn -0.420183 0.867816 -0.265219
vn -0.488244 0.807748 -0.330396
vn 0.961977 -0.0886108 -0.258357
vn 0.902714 -0.119514 0.413308
vn 0.927168 -0.22121 0.302367
vn 0.844222 -0.309076 -0.437906
vn 0.724021 -0.398674 -0.562897
vn 0.766714 -0.201439 -0.609567
vn 0.628862 -0.363957 -0.687072
vn 0.656534 -0.297204 -0.693277
vn 0.954239 0.252538 -0.160165
vn 0.89961 0.209617 0.383095
vn 0.803641 0.271242 -0.529707
vn 0.672854 0.27669 -0.686083
vn 0.901306 0.384646 -0.199236
vn 0.900222 0.340612 0.271263
vn 0.732221 0.474532 -0.48854
vn 0.519242 0.620664 -0.587506
vn -0.0461118 0.0650438 -0.996816
vn 0.28009 -0.207846 -0.937203
vn 0.501594 -0.355946 -0.788484
vn 0.0955781 -0.366898 -0.925338
vn -0.426046 -0.466671 -0.77505
vn -0.308912 0.0562081 -0.949428
vn -0.73957 -0.575555 -0.348959
vn -0.822156 -0.0758299 -0.564189
vn -0.20789 0.259953 -0.942977
vn 0.209612 0.20402 -0.956263
vn -0.270643 0.373904 -0.887101
vn -0.649255 0.418149 -0.635311
vn -0.183924 0.611026 -0.769948
vn 0.370954 0.624111 -0.687661
vn -0.345312 0.586178 -0.732909
vn -0.488491 0.676349 -0.551296
vn -0.997429 0.0716557 0.000148695
vn -0.99454 -0.073578 -0.0739969
vn -0.824743 -0.474827 -0.307147
vn -0.82143 -0.507365 -0.260449
vn -0.960746 0.0609997 0.270641
vn -0.823046 -0.495727 0.27722
vn -0.536842 -0.564434 0.627068
vn -0.797395 -0.125099 0.590349
vn -0.926835 0.343255 0.152162
vn -0.946475 0.272126 0.173585
vn -0.919337 0.369215 0.136018
vn -0.766091 0.329426 0.55189
vn -0.979967 0.169877 0.103953
vn -0.942059 0.297818 0.154368
vn -0.947562 0.300232 0.10948
vn -0.659486 0.490469 0.569665
vn 0.30909 -0.329712 0.89205
vn -0.097097 -0.355994 0.92943
vn -0.119948 -0.72453 0.678726
vn 0.140067 -0.600217 0.787477
vn 0.537713 -0.224291 0.812747
vn 0.416376 -0.444472 0.793143
vn 0.565543 -0.394666 0.724155
vn 0.624098 -0.164729 0.763784
vn 0.325845 0.00201034 0.945421
vn -0.141274 0.142031 0.979729
vn 0.564731 -0.0732636 0.822017
vn 0.601874 -0.00506509 0.798575
vn 0.180484 0.323574 0.92883
vn -0.319377 0.49817 0.806118
vn 0.517144 0.125335 0.846672
vn 0.632283 0.140739 0.761847
vn 0.342606 -0.73229 0.588534
vn 0.86866 -0.355386 0.345153
vn 0.612731 -0.159201 0.77409
vn 0.406456 -0.434783 0.80359
vn 0.208086 -0.868288 0.450306
vn 0.632558 -0.584437 -0.508236
vn 0.614566 -0.591151 -0.52235
vn 0.572398 -0.574468 -0.585104
vn 0.520397 -0.619833 -0.587363
vn 0.524835 -0.415928 -0.742666
vn 0.159632 -0.600274 0.783702
vn 0.134232 -0.781219 -0.609654
vn 0.0436486 -0.625562 0.778952
vn -0.43088 -0.770716 -0.469404
vn -0.0791642 -0.601628 0.794844
vn -0.63019 -0.742375 -0.227465
vn -0.172309 -0.563768 0.807759
vn -0.317838 -0.632286 0.706536
vn -0.532199 -0.825818 0.186516
vn -0.5755 -0.768215 -0.280439
vn -0.650174 -0.692959 -0.31158
vn -0.733766 -0.659247 -0.164257
vn 0.571612 0.645691 0.506303
vn 0.636801 0.608974 0.472901
vn 0.797026 0.594972 0.103716
vn 0.78243 0.50656 -0.362215
vn 0.543955 0.552306 -0.631721
vn 0.514194 0.615525 -0.597272
vn 0.512514 0.73228 -0.448438
vn 0.586097 0.634116 -0.504368
vn 0.411945 0.651955 0.636597
vn 0.00388392 0.886492 -0.462727
vn -0.0386426 0.613122 0.789042
vn -0.375585 0.74111 -0.5565
vn -0.39734 0.609806 0.685754
vn -0.474657 0.776896 -0.413683
vn -0.514558 0.634831 0.576385
vn -0.430321 0.657209 0.618789
vn -0.775057 0.607477 0.173949
vn -0.841019 0.535728 -0.0753815
vn -0.779982 0.61942 -0.08915
vn -0.642198 0.762053 -0.0828112
vn 0.643176 -0.28256 0.711677
vn 0.516094 -0.316517 -0.795904
vn 0.686173 -0.136838 0.714452
vn 0.570832 -0.3347 -0.749751
vn 0.689309 0.088761 0.71901
vn 0.648951 0.215091 -0.729793
vn 0.718698 0.231424 0.65568
vn 0.519956 0.639247 -0.566576
vn -0.873679 -0.469015 -0.129268
vn -0.975645 -0.157499 -0.15268
vn -0.945604 0.283759 -0.159101
vn -0.798222 0.593238 -0.10445
vn -0.287602 -0.69869 0.65507
vn -0.512385 -0.312404 0.799916
vn -0.457121 0.216326 0.862696
vn -0.450917 0.49243 0.744438
vt 0.752871 0.900458
vt 0.733943 0.901895
vt 0.734873 0.886055
vt 0.750905 0.884644
vt 0.732893 0.865498
vt 0.748767 0.865607
vt 0.732113 0.851153
vt 0.746977 0.851426
vt 0.717351 0.901607
vt 0.714845 0.885129
vt 0.715321 0.867043
vt 0.716156 0.851814
vt 0.702996 0.899636
vt 0.700844 0.885009
vt 0.701217 0.868643
vt 0.701996 0.855323
vt 0.651534 0.819653
vt 0.65164 0.803823
vt 0.668536 0.801227
vt 0.667105 0.8163
vt 0.632937 0.819848
vt 0.633176 0.805367
vt 0.619612 0.817623
vt 0.617719 0.803841
vt 0.65088 0.786053
vt 0.667288 0.784077
vt 0.631047 0.786631
vt 0.616817 0.787863
vt 0.646584 0.769192
vt 0.661606 0.768113
vt 0.630041 0.771058
vt 0.617738 0.774876
vt 0.733638 0.78589
vt 0.733184 0.769372
vt 0.749609 0.769303
vt 0.751129 0.784251
vt 0.750136 0.803563
vt 0.734309 0.804228
vt 0.750345 0.816058
vt 0.736239 0.819069
vt 0.715515 0.788066
vt 0.71647 0.771263
vt 0.717055 0.805205
vt 0.719998 0.820324
vt 0.701093 0.789898
vt 0.702279 0.774076
vt 0.702439 0.806365
vt 0.706063 0.818584
vt 0.634008 0.948963
vt 0.618875 0.94976
vt 0.619845 0.936574
vt 0.636067 0.933323
vt 0.652601 0.933367
vt 0.652867 0.948498
vt 0.667323 0.93532
vt 0.668024 0.949357
vt 0.634049 0.967467
vt 0.618077 0.966095
vt 0.65195 0.96827
vt 0.667565 0.965976
vt 0.633876 0.982557
vt 0.619972 0.98233
vt 0.650174 0.982944
vt 0.664597 0.981161
vt 0.728969 0.945288
vt 0.724531 0.930899
vt 0.738051 0.930873
vt 0.743139 0.94374
vt 0.730424 0.963239
vt 0.745466 0.96037
vt 0.744841 0.975483
vt 0.729405 0.980296
vt 0.710121 0.947219
vt 0.709164 0.932587
vt 0.711098 0.964437
vt 0.712762 0.980926
vt 0.696413 0.950541
vt 0.695331 0.937156
vt 0.696398 0.966404
vt 0.698624 0.981394
vt 0.637389 0.866004
vt 0.62035 0.865859
vt 0.624976 0.849886
vt 0.638671 0.84931
vt 0.654821 0.866539
vt 0.654311 0.850551
vt 0.668721 0.853698
vt 0.669793 0.868481
vt 0.63647 0.883361
vt 0.620061 0.882586
vt 0.654551 0.883559
vt 0.669664 0.884254
vt 0.636839 0.899179
vt 0.622111 0.897038
vt 0.653376 0.901063
vt 0.668239 0.89892
vt 0.765002 0.89891
vt 0.757653 0.913164
vt 0.746631 0.912917
vt 0.763905 0.880885
vt 0.761091 0.865335
vt 0.758199 0.853792
vt 0.74458 0.839962
vt 0.756123 0.844395
vt 0.732881 0.913303
vt 0.730897 0.83989
vt 0.718459 0.913027
vt 0.715801 0.839417
vt 0.706699 0.911443
vt 0.702701 0.844179
vt 0.696818 0.909422
vt 0.691736 0.898229
vt 0.689126 0.884688
vt 0.691601 0.869608
vt 0.692326 0.857571
vt 0.694747 0.848588
vt 0.679398 0.81372
vt 0.677208 0.825099
vt 0.666414 0.829477
vt 0.650927 0.832147
vt 0.634467 0.830649
vt 0.622735 0.827758
vt 0.608915 0.816683
vt 0.613584 0.826517
vt 0.682398 0.798655
vt 0.606931 0.804094
vt 0.679269 0.782467
vt 0.606872 0.789566
vt 0.674155 0.768858
vt 0.607114 0.776917
vt 0.659767 0.757028
vt 0.670304 0.759406
vt 0.645666 0.757169
vt 0.630478 0.758053
vt 0.618004 0.763885
vt 0.609217 0.766838
vt 0.764922 0.768698
vt 0.743735 0.757955
vt 0.754837 0.757614
vt 0.762703 0.785346
vt 0.761556 0.801943
vt 0.761777 0.814472
vt 0.758899 0.824139
vt 0.749226 0.826064
vt 0.73015 0.757028
vt 0.737569 0.830258
vt 0.715626 0.75853
vt 0.722259 0.831679
vt 0.702117 0.76189
vt 0.708224 0.828283
vt 0.689836 0.776757
vt 0.692378 0.765268
vt 0.689668 0.79193
vt 0.691857 0.806596
vt 0.695891 0.817786
vt 0.69965 0.826611
vt 0.622989 0.925457
vt 0.608414 0.938529
vt 0.61098 0.928959
vt 0.63601 0.920963
vt 0.65185 0.920975
vt 0.665676 0.924707
vt 0.67486 0.92607
vt 0.677218 0.936359
vt 0.607731 0.951041
vt 0.679749 0.949905
vt 0.606872 0.96714
vt 0.679404 0.965129
vt 0.609561 0.981916
vt 0.676465 0.978526
vt 0.622708 0.991702
vt 0.611799 0.990317
vt 0.635415 0.993579
vt 0.650048 0.993354
vt 0.662837 0.991409
vt 0.673075 0.989155
vt 0.734956 0.921383
vt 0.745113 0.923185
vt 0.747947 0.931725
vt 0.753577 0.942194
vt 0.756796 0.957794
vt 0.755975 0.971988
vt 0.754801 0.984106
vt 0.745376 0.988085
vt 0.722042 0.920963
vt 0.729805 0.992764
vt 0.707826 0.921196
vt 0.714064 0.992252
vt 0.695471 0.925214
vt 0.701071 0.991956
vt 0.685124 0.939278
vt 0.68617 0.930373
vt 0.683383 0.952306
vt 0.684906 0.966597
vt 0.688447 0.97943
vt 0.69089 0.9896
vt 0.613491 0.850493
vt 0.617038 0.841095
vt 0.627189 0.839835
vt 0.639626 0.839587
vt 0.65433 0.839417
vt 0.667812 0.841096
vt 0.677789 0.844298
vt 0.679952 0.855816
vt 0.606872 0.865537
vt 0.681856 0.869346
vt 0.607734 0.881634
vt 0.680984 0.883405
vt 0.610951 0.894726
vt 0.68051 0.897288
vt 0.622983 0.909113
vt 0.613383 0.905253
vt 0.637103 0.911862
vt 0.652859 0.913693
vt 0.667219 0.911134
vt 0.67781 0.907165
mtllib rock.mtl
usemtl rock
quads
f 1/1/1 5/2/2 6/3/3 2/4/4
f 6/3/3 7/5/5 3/6/6 2/4/4
f 7/5/5 8/7/7 4/8/8 3/6/6
f 6/3/3 5/2/2 9/9/9 10/10/10
f 6/3/3 10/10/10 11/11/11 7/5/5
f 7/5/5 11/11/11 12/12/12 8/7/7
f 9/9/9 13/13/13 14/14/14 10/10/10
f 10/10/10 14/14/14 15/15/15 11/11/11
f 11/11/11 15/15/15 16/16/16 12/12/12
f 18/17/17 22/18/18 21/19/19 17/20/20
f 22/18/18 18/17/17 19/21/21 23/22/22
f 23/22/22 19/21/21 20/23/23 24/24/24
f 26/25/25 25/26/26 21/19/19 22/18/18
f 22/18/18 23/22/22 27/27/27 26/25/25
f 27/27/27 23/22/22 24/24/24 28/28/28
f 26/25/25 30/29/29 29/30/30 25/26/26
f 27/27/27 31/31/31 30/29/29 26/25/25
f 27/27/27 28/28/28 32/32/32 31/31/31
f 38/33/33 37/34/34 33/35/35 34/36/36
f 38/33/33 34/36/36 35/37/37 39/38/38
f 39/38/38 35/37/37 36/39/39 40/40/40
f 38/33/33 42/41/41 41/42/42 37/34/34
f 38/33/33 39/38/38 43/43/43 42/41/41
f 43/43/43 39/38/38 40/40/40 44/44/44
f 42/41/41 46/45/45 45/46/46 41/42/42
f 42/41/41 43/43/43 47/47/47 46/45/45
f 43/43/43 44/44/44 48/48/48 47/47/47
f 54/49/49 53/50/50 49/51/51 50/52/52
f 54/49/49 50/52/52 51/53/53 55/54/54
f 55/54/54 51/53/53 52/55/55 56/56/56
f 58/57/57 57/58/58 53/50/50 54/49/49
f 55/54/54 59/59/59 58/57/57 54/49/49
f 59/59/59 55/54/54 56/56/56 60/60/60
f 58/57/57 62/61/61 61/62/62 57/58/58
f 58/57/57 59/59/59 63/63/63 62/61/61
f 60/60/60 64/64/64 63/63/63 59/59/59
f 70/65/65 69/66/66 65/67/67 66/68/68
f 71/69/69 70/65/65 66/68/68 67/70/70
f 71/69/69 67/70/70 68/71/71 72/72/72
f 74/73/73 73/74/74 69/66/66 70/65/65
f 71/69/69 75/75/75 74/73/73 70/65/65
f 71/69/69 72/72/72 76/76/76 75/75/75
f 74/73/73 78/77/77 77/78/78 73/74/74
f 75/75/75 79/79/79 78/77/77 74/73/73
f 75/75/75 76/76/76 80/80/80 79/79/79
f 86/81/81 85/82/82 81/83/83 82/84/84
f 87/85/85 86/81/81 82/84/84 83/86/86
f 87/85/85 83/86/86 84/87/87 88/88/88
f 86/81/81 90/89/89 89/90/90 85/82/82
f 90/89/89 86/81/81 87/85/85 91/91/91
f 91/91/91 87/85/85 88/88/88 92/92/92
f 94/93/93 93/94/94 89/90/90 90/89/89
f 91/91/91 95/95/95 94/93/93 90/89/89
f 91/91/91 92/92/92 96/96/96 95/95/95
f 1/1/97 135/97/98 136/98/99 125/99/100
f 1/1/101 2/4/4 137/100/102 135/97/98
f 2/4/4 3/6/6 138/101/103 137/100/102
f 4/8/8 139/102/104 138/101/103 3/6/6
f 4/8/8 127/103/105 129/104/106 139/102/104
f 5/2/2 1/1/101 125/99/100 126/105/107
f 4/8/8 8/7/7 128/106/108 127/103/105
f 9/9/9 5/2/2 126/105/107 116/107/109
f 12/12/12 118/108/110 128/106/108 8/7/7
f 13/13/13 9/9/9 116/107/109 117/109/111
f 12/12/12 16/16/16 119/110/112 118/108/110
f 13/13/13 117/109/111 98/111/113 97/112/114
f 14/14/14 13/13/13 97/112/114 99/113/115
f 14/14/14 99/113/115 100/114/116 15/15/15
f 16/16/16 15/15/15 100/114/116 101/115/117
f 16/16/16 101/115/117 104/116/118 119/110/112
f 17/20/20 131/117/119 148/118/120 149/119/121
f 150/120/122 18/17/17 17/20/20 149/119/121
f 19/21/21 18/17/17 150/120/122 151/121/123
f 20/23/23 19/21/21 151/121/123 152/122/124
f 133/123/125 20/23/23 152/122/124 130/124/126
f 132/125/127 131/117/119 17/20/20 21/19/19
f 20/23/23 133/123/125 134/126/128 24/24/24
f 21/19/19 25/26/26 121/127/129 132/125/127
f 24/24/24 134/126/128 123/128/130 28/28/28
f 25/26/26 29/30/30 122/129/131 121/127/129
f 28/28/28 123/128/130 124/130/132 32/32/32
f 29/30/30 111/131/133 112/132/134 122/129/131
f 30/29/29 113/133/135 111/131/133 29/30/30
f 31/31/31 114/134/136 113/133/135 30/29/29
f 31/31/31 32/32/32 115/135/137 114/134/136
f 32/32/32 124/130/132 120/136/138 115/135/137
f 135/137/98 33/35/35 140/138/139 136/139/99
f 135/137/98 137/140/102 34/36/36 33/35/35
f 35/37/37 34/36/36 137/140/102 138/141/103
f 139/142/104 36/39/39 35/37/37 138/141/103
f 139/142/104 129/143/106 142/144/140 36/39/39
f 37/34/34 141/145/141 140/138/139 33/35/35
f 40/40/40 36/39/39 142/144/140 143/146/142
f 37/34/34 41/42/42 144/147/143 141/145/141
f 44/44/44 40/40/40 143/146/142 146/148/144
f 41/42/42 45/46/46 145/149/145 144/147/143
f 146/148/144 147/150/146 48/48/48 44/44/44
f 45/46/46 149/151/121 148/152/120 145/149/145
f 45/46/46 46/45/45 150/153/122 149/151/121
f 46/45/45 47/47/47 151/154/123 150/153/122
f 47/47/47 48/48/48 152/155/124 151/154/123
f 147/150/146 130/156/126 152/155/124 48/48/48
f 127/157/105 49/51/51 142/158/140 129/159/106
f 50/52/52 49/51/51 127/157/105 128/160/108
f 51/53/53 50/52/52 128/160/108 118/161/110
f 52/55/55 51/53/53 118/161/110 119/162/112
f 52/55/55 119/162/112 104/163/118 105/164/147
f 49/51/51 53/50/50 143/165/142 142/158/140
f 56/56/56 52/55/55 105/164/147 106/166/148
f 57/58/58 146/167/144 143/165/142 53/50/50
f 56/56/56 106/166/148 109/168/149 60/60/60
f 57/58/58 61/62/62 147/169/146 146/167/144
f 60/60/60 109/168/149 110/170/150 64/64/64
f 133/171/125 130/172/126 147/169/146 61/62/62
f 62/61/61 134/173/128 133/171/125 61/62/62
f 62/61/61 63/63/63 123/174/130 134/173/128
f 64/64/64 124/175/132 123/174/130 63/63/63
f 110/170/150 120/176/138 124/175/132 64/64/64
f 65/67/67 105/177/147 104/178/118 101/179/117
f 66/68/68 65/67/67 101/179/117 100/180/116
f 67/70/70 66/68/68 100/180/116 99/181/115
f 68/71/71 67/70/70 99/181/115 97/182/114
f 68/71/71 97/182/114 98/183/113 102/184/151
f 65/67/67 69/66/66 106/185/148 105/177/147
f 103/186/152 72/72/72 68/71/71 102/184/151
f 73/74/74 109/187/149 106/185/148 69/66/66
f 72/72/72 103/186/152 107/188/153 76/76/76
f 77/78/78 110/189/150 109/187/149 73/74/74
f 76/76/76 107/188/153 108/190/154 80/80/80
f 77/78/78 115/191/137 120/192/138 110/189/150
f 78/77/77 114/193/136 115/191/137 77/78/78
f 78/77/77 79/79/79 113/194/135 114/193/136
f 79/79/79 80/80/80 111/195/133 113/194/135
f 80/80/80 108/190/154 112/196/134 111/195/133
f 81/83/83 102/197/151 98/198/113 117/199/111
f 82/84/84 81/83/83 117/199/111 116/200/109
f 83/86/86 82/84/84 116/200/109 126/201/107
f 84/87/87 83/86/86 126/201/107 125/202/100
f 84/87/87 125/202/100 136/203/99 140/204/139
f 85/82/82 103/205/152 102/197/151 81/83/83
f 88/88/88 84/87/87 140/204/139 141/206/141
f 85/82/82 89/90/90 107/207/153 103/205/152
f 88/88/88 141/206/141 144/208/143 92/92/92
f 89/90/90 93/94/94 108/209/154 107/207/153
f 96/96/96 92/92/92 144/208/143 145/210/145
f 93/94/94 122/211/131 112/212/134 108/209/154
f 94/93/93 121/213/129 122/211/131 93/94/94
f 95/95/95 132/214/127 121/213/129 94/93/93
f 95/95/95 96/96/96 131/215/119 132/214/127
f 96/96/96 145/210/145 148/216/120 131/215/119
