# OBJ written from E:\3d\3D-Objekte\todo\rocks\meshes\rock11.obj
o Mesh
v -0.53753 0.611149 -1.02277
v -0.219298 0.742484 -1.03061
v 0.130161 0.794639 -1.03458
v 0.473034 0.731175 -1.00317
v -0.614856 0.626813 -0.312311
v -0.251339 0.732106 -0.235278
v 0.134093 0.798544 -0.23611
v 0.469921 0.766055 -0.279849
v -0.55856 0.436379 0.474092
v -0.203762 0.536704 0.583178
v 0.194121 0.60729 0.505617
v 0.543125 0.72417 0.439116
v -0.394097 0.218767 1.07193
v -0.0845133 0.235214 1.16184
v 0.26084 0.301372 1.21958
v 0.55512 0.416602 1.07989
v -0.443464 -0.715195 -1.01689
v -0.136605 -0.798544 -1.21594
v 0.262641 -0.722742 -1.18442
v 0.545159 -0.534862 -1.00091
v -0.513716 -0.76986 -0.401857
v -0.143428 -0.758539 -0.529128
v 0.311988 -0.661283 -0.568356
v 0.618235 -0.510139 -0.462523
v -0.466591 -0.752613 0.371266
v -0.0887409 -0.777103 0.341208
v 0.376483 -0.701007 0.262647
v 0.731912 -0.566561 0.2487
v -0.288029 -0.702775 0.966292
v 0.0360135 -0.693869 0.901708
v 0.411218 -0.638711 0.879417
v 0.696963 -0.543997 0.778085
v -0.464575 0.20299 -1.68963
v -0.152664 0.219159 -1.90471
v 0.239696 0.0798524 -2.1513
v 0.519687 0.223615 -1.77971
v -0.498758 -0.167897 -1.89695
v -0.172361 -0.320273 -2.21915
v 0.255029 -0.37931 -2.30908
v 0.582614 -0.15906 -1.91858
v -0.52056 -0.454923 -1.92733
v -0.153353 -0.518589 -2.0353
v 0.240446 -0.568831 -2.11496
v 0.574191 -0.442501 -1.86151
v -0.471578 -0.612536 -1.7622
v -0.136995 -0.689704 -1.84976
v 0.205051 -0.633819 -1.7667
v 0.546358 -0.618496 -1.73543
v 0.881639 0.404648 -1.05696
v 0.924354 0.532341 -0.367377
v 0.915657 0.481308 0.400657
v 0.902149 0.340333 1.08342
v 0.979652 0.105908 -1.19394
v 0.964584 0.269112 -0.435893
v 0.986647 0.249827 0.354842
v 1.04795 0.223893 1.15585
v 0.997638 -0.210261 -1.23025
v 1.01605 -0.0230113 -0.499138
v 1.13562 0.0175666 0.342472
v 1.07153 -0.0352561 1.03466
v 0.873822 -0.394326 -1.10744
v 1.0741 -0.318681 -0.49735
v 1.06472 -0.252225 0.237731
v 1.02964 -0.277497 0.864379
v 0.719621 0.14213 1.81675
v 0.399752 -0.0391446 1.82443
v 0.0665792 -0.146379 1.89775
v -0.287283 -0.169975 1.82264
v 0.786579 -0.0398574 1.84915
v 0.49938 -0.180688 2.16135
v 0.0893945 -0.303352 2.30908
v -0.330736 -0.337293 2.0869
v 0.835453 -0.215894 1.885
v 0.492622 -0.39903 1.89556
v 0.10321 -0.512646 2.16525
v -0.286395 -0.56434 2.05455
v 0.700199 -0.440178 1.37472
v 0.422274 -0.540218 1.58426
v 0.0909599 -0.638878 1.75409
v -0.261855 -0.621289 1.62415
v -0.707709 0.0466008 0.985322
v -0.869982 0.158753 0.41556
v -0.941988 0.272754 -0.388595
v -0.843788 0.226951 -1.06633
v -0.767851 -0.173691 1.11102
v -1.06724 -0.0808272 0.48628
v -1.13562 -0.0377085 -0.455163
v -0.906813 -0.0780798 -1.15556
v -0.770573 -0.389397 1.14735
v -0.947046 -0.326433 0.438883
v -1.0258 -0.336809 -0.406257
v -0.956068 -0.370863 -1.2029
v -0.66756 -0.540317 0.999114
v -0.777685 -0.506222 0.339516
v -0.851698 -0.543878 -0.350351
v -0.790702 -0.535449 -1.00009
v 1.02004 0.140479 1.72962
v -0.258878 -0.0119628 1.52281
v -0.503379 0.0300558 1.33395
v 0.0121144 0.000917859 1.54855
v -0.539127 -0.127566 1.45732
v -0.563925 -0.296994 1.57828
v 0.304536 0.113106 1.64945
v 0.56024 0.197999 1.52545
v 0.743079 0.294003 1.36734
v 0.903521 0.244275 1.60065
v -0.185874 -0.67529 1.34841
v 0.0980572 -0.660452 1.30131
v -0.535218 -0.442822 1.57516
v -0.497058 -0.548841 1.37157
v 0.407532 -0.620402 1.35412
v 0.668093 -0.541955 1.20906
v 0.854201 -0.434861 1.08634
v 1.02011 -0.0740648 1.59958
v 0.914283 -0.305628 1.26009
v -0.623761 0.207509 0.88961
v 0.791502 0.519939 0.97765
v -0.529171 -0.615206 0.75194
v -0.403833 -0.605909 1.10946
v 0.955989 -0.45262 0.747725
v -0.807717 0.335514 0.36198
v 0.761105 0.600064 0.387804
v -0.645722 -0.632267 0.262712
v 0.956363 -0.429178 0.188412
v -0.855548 0.473785 -0.343369
v 0.725239 0.688922 -0.272767
v -0.7134 -0.671249 -0.32164
v 0.820454 -0.401806 -0.424462
v -0.695839 0.46813 -0.869013
v 0.716477 0.622378 -0.87708
v -0.7154 -0.709703 -0.945665
v 0.745082 -0.434319 -0.904719
v -0.415834 0.492178 -1.36257
v -0.620877 0.372698 -1.30037
v -0.169523 0.533921 -1.58016
v -0.627741 0.18469 -1.35165
v -0.73385 -0.164522 -1.59747
v 0.138833 0.526864 -1.69222
v 0.418998 0.540216 -1.49211
v 0.600718 0.500188 -1.28319
v 0.725085 0.236593 -1.54381
v 0.87864 -0.127088 -1.70031
v -0.619074 -0.634837 -1.35438
v -0.380524 -0.658026 -1.43907
v -0.105158 -0.732544 -1.55992
v -0.765062 -0.390625 -1.65219
v -0.7078 -0.532454 -1.53516
v 0.196306 -0.706913 -1.51371
v 0.476851 -0.668707 -1.45127
v 0.657507 -0.522091 -1.28078
v 0.838748 -0.348026 -1.64382
v 0.763349 -0.496853 -1.53413
vn -0.224708 0.967094 0.119314
vn -0.243608 0.951411 -0.188342
vn -0.436848 0.88146 -0.179422
vn -0.424455 0.89978 0.101164
vn -0.0955401 0.987559 0.124898
vn 0.0189597 0.980745 -0.194369
vn 0.129215 0.989725 0.0612163
vn 0.309476 0.929718 -0.199624
vn -0.433418 0.840171 0.325979
vn -0.224391 0.919226 0.323532
vn -0.173892 0.929044 0.326557
vn -0.10277 0.951415 0.290253
vn -0.303766 0.848527 0.433276
vn -0.219172 0.876295 0.429034
vn -0.175341 0.897 0.405767
vn -0.194121 0.887427 0.418079
vn 0.089137 -0.995866 0.0174881
vn -0.11386 -0.992769 0.03801
vn -0.0955215 -0.994115 -0.0510888
vn 0.0250626 -0.997941 -0.0590445
vn 0.231307 -0.971229 0.0566773
vn 0.28886 -0.957366 0.00305813
vn 0.338009 -0.931631 0.133469
vn 0.436953 -0.898266 -0.046788
vn 0.0527498 -0.997972 0.0356148
vn -0.310855 -0.945203 0.0997999
vn 0.261219 -0.965159 0.0152421
vn 0.382591 -0.922768 -0.0460834
vn 0.0776695 -0.994028 0.0766504
vn -0.298606 -0.940327 0.163153
vn 0.252483 -0.965699 0.0606497
vn 0.336774 -0.941249 0.0251848
vn -0.491724 -0.132368 -0.860632
vn -0.78646 0.0988682 -0.609677
vn -0.671865 0.515636 -0.531711
vn -0.33532 0.556427 -0.76023
vn 0.354972 -0.19266 -0.91481
vn 0.201404 0.543571 -0.814842
vn 0.528797 0.559926 -0.637853
vn 0.695333 0.0356642 -0.717802
vn -0.376729 -0.761437 -0.52753
vn -0.66255 -0.472298 -0.581345
vn 0.301543 -0.778897 -0.549901
vn 0.68185 -0.42603 -0.594626
vn -0.135563 -0.950725 -0.278828
vn -0.40742 -0.860941 -0.304612
vn 0.197748 -0.933554 -0.298953
vn 0.488292 -0.805075 -0.336788
vn 0.962254 0.264368 -0.0646203
vn 0.959797 0.220017 -0.174304
vn 0.784979 0.560393 -0.264137
vn 0.851869 0.521887 -0.0442031
vn 0.877078 0.479517 0.028252
vn 0.917234 0.392062 -0.0704962
vn 0.659554 0.743378 0.111251
vn 0.89028 0.454743 0.0247109
vn 0.95316 0.281373 -0.110977
vn 0.992411 -0.0334358 -0.118335
vn 0.961486 0.265205 -0.0721925
vn 0.99863 -0.0395288 0.0342879
vn 0.864444 -0.501207 -0.0390926
vn 0.749908 -0.661499 -0.00758079
vn 0.894542 -0.446866 0.0103019
vn 0.890186 -0.446866 0.0887622
vn -0.0849224 0.92223 0.377201
vn 0.19005 0.531895 0.825208
vn -0.10868 0.820659 0.560989
vn -0.205756 0.895549 0.394532
vn -0.203961 0.910817 0.358905
vn -0.187929 0.904694 0.382377
vn -0.372226 0.846516 0.380602
vn -0.712555 0.549101 0.436753
vn 0.443687 -0.758525 0.477265
vn 0.559136 -0.604768 0.567118
vn 0.359926 -0.0711604 0.930263
vn 0.414635 -0.610297 0.674992
vn 0.0350938 -0.564442 0.824727
vn 0.166588 -0.823141 0.542852
vn -0.782016 -0.0302399 0.622524
vn -0.504783 -0.763898 0.402063
vn 0.426307 -0.881112 0.204705
vn 0.577814 -0.78061 0.238284
vn 0.195227 -0.972841 0.124364
vn -0.2331 -0.968466 0.0879716
vn -0.964748 0.150563 0.215853
vn -0.889979 0.206534 0.406547
vn -0.734896 0.53709 0.41408
vn -0.813789 0.528191 0.242406
vn -0.829766 0.555191 -0.057026
vn -0.987139 0.147062 -0.0626874
vn -0.851565 0.452195 -0.265248
vn -0.916918 0.250676 -0.310521
vn -0.844777 -0.523443 0.111174
vn -0.847132 -0.460924 0.264417
vn -0.852373 -0.522848 0.00946212
vn -0.917311 -0.360607 -0.168827
vn -0.713829 -0.693301 0.0988973
vn -0.608461 -0.779039 0.151243
vn -0.7668 -0.64163 0.0181345
vn -0.850097 -0.51689 -0.100794
vn -0.817595 0.499331 -0.286717
vn -0.758593 0.624812 -0.184785
vn -0.542296 0.741265 -0.395526
vn -0.289416 0.80873 -0.512049
vn 0.07298 0.841771 -0.534879
vn 0.421203 0.784427 -0.455262
vn 0.498938 0.826874 -0.259499
vn 0.53991 0.727763 -0.422917
vn -0.725961 0.686782 0.036207
vn 0.441848 0.896344 -0.0365705
vn -0.736897 0.611003 0.289237
vn 0.416315 0.891237 0.17994
vn -0.569289 0.706022 0.42124
vn 0.126149 0.9349 0.331737
vn -0.422594 0.798692 0.428374
vn -0.231208 0.875033 0.425277
vn -0.19241 0.882762 0.428614
vn -0.261154 0.874462 0.408797
vn -0.249482 0.888652 0.384782
vn -0.116892 0.945594 0.303625
vn -0.545722 -0.832945 -0.0916026
vn -0.479791 -0.869568 -0.116846
vn -0.255382 -0.960952 -0.106539
vn -0.0544784 -0.987235 -0.149667
vn 0.133456 -0.989503 -0.0554325
vn 0.233108 -0.966454 0.107829
vn 0.405924 -0.903795 0.135574
vn 0.398012 -0.914091 0.0776159
vn -0.543033 -0.838979 0.0350742
vn 0.405911 -0.913757 -0.0168906
vn -0.602915 -0.788419 0.12202
vn 0.521305 -0.853174 -0.0183035
vn -0.531482 -0.831641 0.160935
vn 0.628416 -0.77557 0.0598707
vn -0.224457 -0.969265 0.100718
vn -0.386023 -0.913384 0.129289
vn 0.109087 -0.992583 0.0536518
vn 0.323513 -0.941148 0.0978736
vn 0.45332 -0.876161 0.163837
vn 0.629007 -0.752724 0.19431
vn -0.865856 0.365221 -0.341916
vn 0.61143 0.604485 -0.510638
vn -0.839118 0.29314 -0.458202
vn 0.784312 0.233632 -0.574691
vn -0.877775 -0.21159 -0.429814
vn 0.829556 -0.326793 -0.452817
vn -0.730301 -0.654968 -0.194109
vn 0.620743 -0.774865 -0.119428
vn 0.201656 0.871325 0.447356
vn 0.647023 0.42901 0.630326
vn 0.895496 -0.262485 0.359427
vn 0.777021 -0.604337 0.17611
vn -0.625149 0.659479 0.417464
vn 0.299787 0.240072 0.923306
vn -0.725687 0.280354 0.628315
vn -0.858389 0.275444 0.432781
vn -0.82673 -0.464146 0.317941
vn -0.478072 -0.867352 0.138379
vt 0.132803 0.447332
vt 0.132186 0.430812
vt 0.147415 0.431612
vt 0.149923 0.446441
vt 0.115176 0.44813
vt 0.115746 0.431573
vt 0.0999405 0.448821
vt 0.100156 0.433609
vt 0.150335 0.463576
vt 0.134051 0.466138
vt 0.115994 0.465908
vt 0.0995101 0.465482
vt 0.14863 0.47937
vt 0.133824 0.480809
vt 0.117579 0.482041
vt 0.10208 0.480574
vt 0.0359524 0.304022
vt 0.0369085 0.321779
vt 0.0217711 0.318277
vt 0.0201954 0.302024
vt 0.0206316 0.284544
vt 0.0362101 0.284587
vt 0.0247154 0.269901
vt 0.0389586 0.268911
vt 0.0551372 0.305496
vt 0.0545694 0.322282
vt 0.0551661 0.286479
vt 0.0566377 0.269674
vt 0.0725859 0.303905
vt 0.0709147 0.319436
vt 0.073619 0.286569
vt 0.0722352 0.272206
vt 0.035373 0.448176
vt 0.0196894 0.447248
vt 0.0202182 0.432625
vt 0.0349112 0.430574
vt 0.0538893 0.448519
vt 0.0527033 0.430298
vt 0.0687759 0.430929
vt 0.0711517 0.44718
vt 0.0369403 0.466191
vt 0.0199929 0.464641
vt 0.0549194 0.466075
vt 0.0709995 0.464017
vt 0.0381775 0.481761
vt 0.0226649 0.479497
vt 0.0546067 0.481304
vt 0.0697456 0.478653
vt 0.0372287 0.367039
vt 0.0198966 0.367195
vt 0.022682 0.35215
vt 0.0381857 0.350607
vt 0.0549814 0.350413
vt 0.0550163 0.366908
vt 0.0706794 0.351398
vt 0.0724509 0.366647
vt 0.0362554 0.384769
vt 0.019228 0.384721
vt 0.055106 0.38586
vt 0.0713731 0.38475
vt 0.0365483 0.402275
vt 0.020891 0.401282
vt 0.053298 0.402539
vt 0.0688374 0.400747
vt 0.118665 0.284764
vt 0.101979 0.288312
vt 0.102859 0.272435
vt 0.118972 0.269094
vt 0.137755 0.285471
vt 0.135574 0.269444
vt 0.151612 0.271468
vt 0.155307 0.287745
vt 0.119079 0.30514
vt 0.102355 0.305441
vt 0.139157 0.305485
vt 0.155494 0.30544
vt 0.121887 0.322109
vt 0.10699 0.322266
vt 0.13947 0.32258
vt 0.155195 0.32076
vt 0.134754 0.366669
vt 0.134367 0.34985
vt 0.149719 0.351826
vt 0.152848 0.366356
vt 0.153115 0.384519
vt 0.134743 0.385188
vt 0.14976 0.39979
vt 0.133721 0.40245
vt 0.116577 0.366387
vt 0.117243 0.350168
vt 0.115502 0.385027
vt 0.115522 0.402192
vt 0.100607 0.367588
vt 0.101656 0.352474
vt 0.0999227 0.384316
vt 0.100983 0.399921
vt 0.155022 0.421804
vt 0.157646 0.431699
vt 0.144495 0.421154
vt 0.131903 0.418637
vt 0.117086 0.417349
vt 0.102522 0.421405
vt 0.0877481 0.436057
vt 0.0916243 0.42435
vt 0.162897 0.445597
vt 0.0878459 0.449995
vt 0.162992 0.461223
vt 0.0875227 0.465192
vt 0.160051 0.476091
vt 0.0890915 0.47943
vt 0.158032 0.486717
vt 0.146547 0.490256
vt 0.133652 0.491447
vt 0.118648 0.492706
vt 0.104418 0.491877
vt 0.0932929 0.489781
vt 0.0228164 0.331486
vt 0.0108977 0.327871
vt 0.00899435 0.315939
vt 0.00711031 0.300994
vt 0.00946359 0.285233
vt 0.0125031 0.271778
vt 0.0165026 0.261809
vt 0.02662 0.258852
vt 0.0376261 0.335208
vt 0.0396479 0.257357
vt 0.0538742 0.335315
vt 0.0559523 0.256569
vt 0.0680748 0.33263
vt 0.0702062 0.259932
vt 0.0831093 0.319201
vt 0.0787886 0.330061
vt 0.085483 0.30437
vt 0.0862902 0.288549
vt 0.083534 0.274823
vt 0.0820718 0.263969
vt 0.00940678 0.43512
vt 0.0115926 0.423942
vt 0.0211607 0.420789
vt 0.034119 0.418193
vt 0.0502348 0.417349
vt 0.0663439 0.418411
vt 0.0801359 0.43173
vt 0.0774812 0.420893
vt 0.00726441 0.44929
vt 0.0856136 0.445886
vt 0.00711031 0.465798
vt 0.0837403 0.462175
vt 0.0100775 0.479125
vt 0.0809748 0.47602
vt 0.0255338 0.491746
vt 0.0137591 0.489582
vt 0.0397258 0.493119
vt 0.0542941 0.492795
vt 0.0679372 0.49055
vt 0.0783481 0.487753
vt 0.00891913 0.354363
vt 0.0123819 0.343653
vt 0.0247967 0.34129
vt 0.03868 0.337224
vt 0.0540575 0.337437
vt 0.0681285 0.339007
vt 0.0827955 0.353335
vt 0.0788955 0.341267
vt 0.00711031 0.36943
vt 0.0859594 0.367748
vt 0.00738726 0.385873
vt 0.0848746 0.383648
vt 0.00939689 0.399806
vt 0.0815974 0.397548
vt 0.0236724 0.412484
vt 0.0134102 0.411044
vt 0.0367097 0.41544
vt 0.052721 0.414416
vt 0.0671711 0.412531
vt 0.0789498 0.407956
vt 0.0910766 0.27594
vt 0.0951103 0.263355
vt 0.106359 0.260482
vt 0.120136 0.256569
vt 0.135422 0.257441
vt 0.149066 0.259747
vt 0.161313 0.262352
vt 0.16502 0.272566
vt 0.0881993 0.290775
vt 0.168623 0.287139
vt 0.0896593 0.306968
vt 0.168474 0.303934
vt 0.0947541 0.320912
vt 0.166631 0.318748
vt 0.108619 0.333951
vt 0.0978263 0.331065
vt 0.122485 0.334937
vt 0.137904 0.334484
vt 0.152324 0.331781
vt 0.16366 0.329929
vt 0.148314 0.340035
vt 0.158705 0.342199
vt 0.161251 0.352846
vt 0.165174 0.367845
vt 0.166098 0.384032
vt 0.162526 0.398961
vt 0.158998 0.408512
vt 0.148037 0.412336
vt 0.134432 0.337651
vt 0.133703 0.414935
vt 0.118791 0.337224
vt 0.116734 0.415246
vt 0.104554 0.341144
vt 0.103453 0.412938
vt 0.0903179 0.355129
vt 0.0932431 0.344434
vt 0.0880762 0.368731
vt 0.088476 0.38405
vt 0.0878684 0.399235
vt 0.0928964 0.41045
mtllib rock.mtl
usemtl rock
f 6/1/1 2/2/2 1/3/3
f 6/1/1 1/3/3 5/4/4
f 7/5/5 3/6/6 2/2/2
f 7/5/5 2/2/2 6/1/1
f 3/6/6 7/5/5 8/7/7
f 3/6/6 8/7/7 4/8/8
f 6/1/1 5/4/4 9/9/9
f 6/1/1 9/9/9 10/10/10
f 10/10/10 11/11/11 7/5/5
f 10/10/10 7/5/5 6/1/1
f 11/11/11 12/12/12 8/7/7
f 11/11/11 8/7/7 7/5/5
f 9/9/9 13/13/13 14/14/14
f 9/9/9 14/14/14 10/10/10
f 11/11/11 10/10/10 14/14/14
f 11/11/11 14/14/14 15/15/15
f 11/11/11 15/15/15 16/16/16
f 11/11/11 16/16/16 12/12/12
f 22/17/17 21/18/18 17/19/19
f 22/17/17 17/19/19 18/20/20
f 22/17/17 18/20/20 19/21/21
f 22/17/17 19/21/21 23/22/22
f 23/22/22 19/21/21 20/23/23
f 23/22/22 20/23/23 24/24/24
f 26/25/25 25/26/26 21/18/18
f 26/25/25 21/18/18 22/17/17
f 26/25/25 22/17/17 23/22/22
f 26/25/25 23/22/22 27/27/27
f 27/27/27 23/22/22 24/24/24
f 27/27/27 24/24/24 28/28/28
f 25/26/26 26/25/25 30/29/29
f 25/26/26 30/29/29 29/30/30
f 27/27/27 31/31/31 30/29/29
f 27/27/27 30/29/29 26/25/25
f 27/27/27 28/28/28 32/32/32
f 27/27/27 32/32/32 31/31/31
f 38/33/33 37/34/34 33/35/35
f 38/33/33 33/35/35 34/36/36
f 39/37/37 38/33/33 34/36/36
f 39/37/37 34/36/36 35/38/38
f 39/37/37 35/38/38 36/39/39
f 39/37/37 36/39/39 40/40/40
f 38/33/33 42/41/41 41/42/42
f 38/33/33 41/42/42 37/34/34
f 39/37/37 43/43/43 42/41/41
f 39/37/37 42/41/41 38/33/33
f 39/37/37 40/40/40 44/44/44
f 39/37/37 44/44/44 43/43/43
f 42/41/41 46/45/45 45/46/46
f 42/41/41 45/46/46 41/42/42
f 43/43/43 47/47/47 46/45/45
f 43/43/43 46/45/45 42/41/41
f 44/44/44 48/48/48 47/47/47
f 44/44/44 47/47/47 43/43/43
f 54/49/49 53/50/50 49/51/51
f 54/49/49 49/51/51 50/52/52
f 54/49/49 50/52/52 51/53/53
f 54/49/49 51/53/53 55/54/54
f 55/54/54 51/53/53 52/55/55
f 55/54/54 52/55/55 56/56/56
f 58/57/57 57/58/58 53/50/50
f 58/57/57 53/50/50 54/49/49
f 59/59/59 58/57/57 54/49/49
f 59/59/59 54/49/49 55/54/54
f 55/54/54 56/56/56 60/60/60
f 55/54/54 60/60/60 59/59/59
f 58/57/57 62/61/61 61/62/62
f 58/57/57 61/62/62 57/58/58
f 58/57/57 59/59/59 63/63/63
f 58/57/57 63/63/63 62/61/61
f 59/59/59 60/60/60 64/64/64
f 59/59/59 64/64/64 63/63/63
f 70/65/65 69/66/66 65/67/67
f 70/65/65 65/67/67 66/68/68
f 71/69/69 70/65/65 66/68/68
f 71/69/69 66/68/68 67/70/70
f 71/69/69 67/70/70 68/71/71
f 71/69/69 68/71/71 72/72/72
f 74/73/73 73/74/74 69/66/75
f 74/73/73 69/66/75 70/65/76
f 71/69/77 75/75/78 74/73/73
f 71/69/77 74/73/73 70/65/76
f 71/69/77 72/72/79 76/76/80
f 71/69/77 76/76/80 75/75/78
f 73/74/74 74/73/73 78/77/81
f 73/74/74 78/77/81 77/78/82
f 75/75/78 79/79/83 78/77/81
f 75/75/78 78/77/81 74/73/73
f 76/76/80 80/80/84 79/79/83
f 76/76/80 79/79/83 75/75/78
f 86/81/85 85/82/86 81/83/87
f 86/81/85 81/83/87 82/84/88
f 86/81/85 82/84/88 83/85/89
f 86/81/85 83/85/89 87/86/90
f 87/86/90 83/85/89 84/87/91
f 87/86/90 84/87/91 88/88/92
f 90/89/93 89/90/94 85/82/86
f 90/89/93 85/82/86 86/81/85
f 87/86/90 91/91/95 90/89/93
f 87/86/90 90/89/93 86/81/85
f 91/91/95 87/86/90 88/88/92
f 91/91/95 88/88/92 92/92/96
f 89/90/94 90/89/93 94/93/97
f 89/90/94 94/93/97 93/94/98
f 91/91/95 95/95/99 94/93/97
f 91/91/95 94/93/97 90/89/93
f 92/92/96 96/96/100 95/95/99
f 92/92/96 95/95/99 91/91/95
f 134/97/101 129/98/102 1/3/3
f 134/97/101 1/3/3 133/99/103
f 2/2/2 135/100/104 133/99/103
f 2/2/2 133/99/103 1/3/3
f 3/6/6 138/101/105 135/100/104
f 3/6/6 135/100/104 2/2/2
f 3/6/6 4/8/8 139/102/106
f 3/6/6 139/102/106 138/101/105
f 4/8/8 130/103/107 140/104/108
f 4/8/8 140/104/108 139/102/106
f 5/4/4 1/3/3 129/98/102
f 5/4/4 129/98/102 125/105/109
f 8/7/7 126/106/110 130/103/107
f 8/7/7 130/103/107 4/8/8
f 5/4/4 125/105/109 121/107/111
f 5/4/4 121/107/111 9/9/9
f 8/7/7 12/12/12 122/108/112
f 8/7/7 122/108/112 126/106/110
f 9/9/9 121/107/111 116/109/113
f 9/9/9 116/109/113 13/13/13
f 16/16/16 117/110/114 122/108/112
f 16/16/16 122/108/112 12/12/12
f 99/111/115 98/112/116 13/13/13
f 99/111/115 13/13/13 116/109/113
f 13/13/13 98/112/116 100/113/117
f 13/13/13 100/113/117 14/14/14
f 15/15/15 14/14/14 100/113/117
f 15/15/15 100/113/117 103/114/118
f 15/15/15 103/114/118 104/115/119
f 15/15/15 104/115/119 16/16/16
f 16/16/16 104/115/119 105/116/120
f 16/16/16 105/116/120 117/110/114
f 17/19/19 131/117/121 143/118/122
f 17/19/19 143/118/122 144/119/123
f 17/19/19 144/119/123 145/120/124
f 17/19/19 145/120/124 18/20/20
f 18/20/20 145/120/124 148/121/125
f 18/20/20 148/121/125 19/21/21
f 149/122/126 20/23/23 19/21/21
f 149/122/126 19/21/21 148/121/125
f 20/23/23 149/122/126 150/123/127
f 20/23/23 150/123/127 132/124/128
f 131/117/121 17/19/19 21/18/18
f 131/117/121 21/18/18 127/125/129
f 24/24/24 20/23/23 132/124/128
f 24/24/24 132/124/128 128/126/130
f 21/18/18 25/26/26 123/127/131
f 21/18/18 123/127/131 127/125/129
f 28/28/28 24/24/24 128/126/130
f 28/28/28 128/126/130 124/128/132
f 25/26/26 29/30/30 118/129/133
f 25/26/26 118/129/133 123/127/131
f 120/130/134 32/32/32 28/28/28
f 120/130/134 28/28/28 124/128/132
f 29/30/30 107/131/135 119/132/136
f 29/30/30 119/132/136 118/129/133
f 30/29/29 108/133/137 107/131/135
f 30/29/29 107/131/135 29/30/30
f 31/31/31 111/134/138 108/133/137
f 31/31/31 108/133/137 30/29/29
f 31/31/31 32/32/32 112/135/139
f 31/31/31 112/135/139 111/134/138
f 32/32/32 120/130/134 113/136/140
f 32/32/32 113/136/140 112/135/139
f 33/35/35 136/137/141 134/138/101
f 33/35/35 134/138/101 133/139/103
f 33/35/35 133/139/103 135/140/104
f 33/35/35 135/140/104 34/36/36
f 35/38/38 34/36/36 135/140/104
f 35/38/38 135/140/104 138/141/105
f 35/38/38 138/141/105 139/142/106
f 35/38/38 139/142/106 36/39/39
f 141/143/142 36/39/39 139/142/106
f 141/143/142 139/142/106 140/144/108
f 33/35/35 37/34/34 137/145/143
f 33/35/35 137/145/143 136/137/141
f 142/146/144 40/40/40 36/39/39
f 142/146/144 36/39/39 141/143/142
f 37/34/34 41/42/42 146/147/145
f 37/34/34 146/147/145 137/145/143
f 40/40/40 142/146/144 151/148/146
f 40/40/40 151/148/146 44/44/44
f 41/42/42 45/46/46 147/149/147
f 41/42/42 147/149/147 146/147/145
f 44/44/44 151/148/146 152/150/148
f 44/44/44 152/150/148 48/48/48
f 45/46/46 144/151/123 143/152/122
f 45/46/46 143/152/122 147/149/147
f 45/46/46 46/45/45 145/153/124
f 45/46/46 145/153/124 144/151/123
f 46/45/45 47/47/47 148/154/125
f 46/45/45 148/154/125 145/153/124
f 48/48/48 149/155/126 148/154/125
f 48/48/48 148/154/125 47/47/47
f 152/150/148 150/156/127 149/155/126
f 152/150/148 149/155/126 48/48/48
f 141/157/142 140/158/108 130/159/107
f 141/157/142 130/159/107 49/51/51
f 50/52/52 49/51/51 130/159/107
f 50/52/52 130/159/107 126/160/110
f 51/53/53 50/52/52 126/160/110
f 51/53/53 126/160/110 122/161/112
f 52/55/55 51/53/53 122/161/112
f 52/55/55 122/161/112 117/162/114
f 106/163/149 52/55/55 117/162/114
f 106/163/149 117/162/114 105/164/120
f 53/50/50 142/165/144 141/157/142
f 53/50/50 141/157/142 49/51/51
f 56/56/56 52/55/55 106/163/149
f 56/56/56 106/163/149 97/166/150
f 53/50/50 57/58/58 151/167/146
f 53/50/50 151/167/146 142/165/144
f 56/56/56 97/166/150 114/168/151
f 56/56/56 114/168/151 60/60/60
f 61/62/62 152/169/148 151/167/146
f 61/62/62 151/167/146 57/58/58
f 114/168/151 115/170/152 64/64/64
f 114/168/151 64/64/64 60/60/60
f 61/62/62 132/171/128 150/172/127
f 61/62/62 150/172/127 152/169/148
f 62/61/61 128/173/130 132/171/128
f 62/61/61 132/171/128 61/62/62
f 62/61/61 63/63/63 124/174/132
f 62/61/61 124/174/132 128/173/130
f 63/63/63 64/64/64 120/175/134
f 63/63/63 120/175/134 124/174/132
f 64/64/64 115/170/152 113/176/140
f 64/64/64 113/176/140 120/175/134
f 65/67/67 106/177/149 105/178/120
f 65/67/67 105/178/120 104/179/119
f 65/67/67 104/179/119 103/180/118
f 65/67/67 103/180/118 66/68/68
f 67/70/70 66/68/68 103/180/118
f 67/70/70 103/180/118 100/181/117
f 67/70/70 100/181/117 98/182/116
f 67/70/70 98/182/116 68/71/71
f 68/71/71 98/182/116 99/183/115
f 68/71/71 99/183/115 101/184/153
f 69/66/154 97/185/150 106/177/149
f 69/66/154 106/177/149 65/67/67
f 72/72/155 68/71/71 101/184/153
f 72/72/155 101/184/153 102/186/156
f 69/66/154 73/74/74 114/187/151
f 69/66/154 114/187/151 97/185/150
f 72/72/155 102/186/156 109/188/157
f 72/72/155 109/188/157 76/76/80
f 73/74/74 77/78/82 115/189/152
f 73/74/74 115/189/152 114/187/151
f 76/76/80 109/188/157 110/190/158
f 76/76/80 110/190/158 80/80/84
f 115/189/152 77/78/82 112/191/139
f 115/189/152 112/191/139 113/192/140
f 78/77/81 111/193/138 112/191/139
f 78/77/81 112/191/139 77/78/82
f 79/79/83 108/194/137 111/193/138
f 79/79/83 111/193/138 78/77/81
f 79/79/83 80/80/84 107/195/135
f 79/79/83 107/195/135 108/194/137
f 80/80/84 110/190/158 119/196/136
f 80/80/84 119/196/136 107/195/135
f 81/83/87 101/197/153 99/198/115
f 81/83/87 99/198/115 116/199/113
f 82/84/88 81/83/87 116/199/113
f 82/84/88 116/199/113 121/200/111
f 83/85/89 82/84/88 121/200/111
f 83/85/89 121/200/111 125/201/109
f 84/87/91 83/85/89 125/201/109
f 84/87/91 125/201/109 129/202/102
f 134/203/101 136/204/141 84/87/91
f 134/203/101 84/87/91 129/202/102
f 85/82/86 102/205/156 101/197/153
f 85/82/86 101/197/153 81/83/87
f 137/206/143 88/88/92 84/87/91
f 137/206/143 84/87/91 136/204/141
f 85/82/86 89/90/94 109/207/157
f 85/82/86 109/207/157 102/205/156
f 92/92/96 88/88/92 137/206/143
f 92/92/96 137/206/143 146/208/145
f 89/90/94 93/94/98 110/209/158
f 89/90/94 110/209/158 109/207/157
f 147/210/147 96/96/100 92/92/96
f 147/210/147 92/92/96 146/208/145
f 93/94/98 118/211/133 119/212/136
f 93/94/98 119/212/136 110/209/158
f 94/93/97 123/213/131 118/211/133
f 94/93/97 118/211/133 93/94/98
f 94/93/97 95/95/99 127/214/129
f 94/93/97 127/214/129 123/213/131
f 96/96/100 131/215/121 127/214/129
f 96/96/100 127/214/129 95/95/99
f 96/96/100 147/210/147 143/216/122
f 96/96/100 143/216/122 131/215/121
